<svg width="149" height="40" viewBox="0 0 149 40" fill="none" xmlns="http://www.w3.org/2000/svg">
<path d="M0 0H149V40H0V0Z" fill="#525252" fill-opacity="0.93"/>
<path d="M19.904 27V11.856H15.224V9.456H27.176V11.856H22.496V27H19.904ZM33.5906 27.24C32.5186 27.24 31.5746 27.032 30.7586 26.616C29.9586 26.184 29.3426 25.584 28.9106 24.816C28.4786 24.048 28.2626 23.152 28.2626 22.128V18.672C28.2626 17.632 28.4786 16.736 28.9106 15.984C29.3426 15.216 29.9586 14.624 30.7586 14.208C31.5746 13.776 32.5186 13.56 33.5906 13.56C34.6786 13.56 35.6226 13.776 36.4226 14.208C37.2226 14.624 37.8386 15.216 38.2706 15.984C38.7026 16.736 38.9186 17.632 38.9186 18.672V21.024H30.7586V22.128C30.7586 23.104 30.9986 23.848 31.4786 24.36C31.9746 24.872 32.6866 25.128 33.6146 25.128C34.3666 25.128 34.9746 25 35.4386 24.744C35.9026 24.472 36.1906 24.08 36.3026 23.568H38.8706C38.6786 24.688 38.1026 25.584 37.1426 26.256C36.1826 26.912 34.9986 27.24 33.5906 27.24ZM36.4226 19.464V18.648C36.4226 17.688 36.1826 16.944 35.7026 16.416C35.2226 15.888 34.5186 15.624 33.5906 15.624C32.6786 15.624 31.9746 15.888 31.4786 16.416C30.9986 16.944 30.7586 17.696 30.7586 18.672V19.272L36.6146 19.248L36.4226 19.464ZM39.8133 27L44.4453 20.184L40.1013 13.8H43.0773L45.4053 17.448C45.5173 17.64 45.6293 17.848 45.7413 18.072C45.8533 18.28 45.9413 18.456 46.0053 18.6C46.0533 18.456 46.1333 18.28 46.2453 18.072C46.3573 17.848 46.4693 17.64 46.5813 17.448L48.9093 13.8H51.8853L47.5413 20.208L52.1493 27H49.1733L46.6053 23.04C46.4933 22.848 46.3813 22.632 46.2693 22.392C46.1573 22.152 46.0693 21.96 46.0053 21.816C45.9413 21.96 45.8453 22.152 45.7173 22.392C45.6053 22.632 45.4853 22.848 45.3573 23.04L42.7653 27H39.8133ZM64.5945 27L69.0585 9.48H72.4665L76.9305 27H74.3145L73.2585 22.56H68.2905L67.2345 27H64.5945ZM68.7705 20.424H72.7545L71.5545 15.36C71.3465 14.464 71.1705 13.688 71.0265 13.032C70.8985 12.36 70.8105 11.904 70.7625 11.664C70.7145 11.904 70.6265 12.36 70.4985 13.032C70.3705 13.688 70.1945 14.456 69.9705 15.336L68.7705 20.424ZM85.0491 27C84.2331 27 83.5211 26.84 82.9131 26.52C82.3051 26.184 81.8251 25.712 81.4731 25.104C81.1371 24.496 80.9691 23.792 80.9691 22.992V11.832H76.6491V9.48H83.5611V22.992C83.5611 23.504 83.7051 23.912 83.9931 24.216C84.2811 24.504 84.6731 24.648 85.1691 24.648H89.2491V27H85.0491ZM96.4798 27.24C95.3918 27.24 94.5278 26.944 93.8878 26.352C93.2478 25.744 92.9278 24.92 92.9278 23.88L93.4798 24.48H92.9278V27H90.3598V9.48H92.9518V13.248L92.8798 16.32H93.4798L92.9278 16.92C92.9278 15.88 93.2478 15.064 93.8878 14.472C94.5438 13.864 95.4078 13.56 96.4798 13.56C97.8078 13.56 98.8718 14.008 99.6718 14.904C100.472 15.8 100.872 17.016 100.872 18.552V22.272C100.872 23.792 100.472 25 99.6718 25.896C98.8718 26.792 97.8078 27.24 96.4798 27.24ZM95.5918 24.984C96.4398 24.984 97.1038 24.744 97.5838 24.264C98.0638 23.768 98.3038 23.056 98.3038 22.128V18.672C98.3038 17.744 98.0638 17.04 97.5838 16.56C97.1038 16.064 96.4398 15.816 95.5918 15.816C94.7758 15.816 94.1278 16.072 93.6478 16.584C93.1838 17.08 92.9518 17.776 92.9518 18.672V22.128C92.9518 23.024 93.1838 23.728 93.6478 24.24C94.1278 24.736 94.7758 24.984 95.5918 24.984ZM107.91 27.24C106.326 27.24 105.062 26.784 104.118 25.872C103.174 24.944 102.702 23.688 102.702 22.104V13.8H105.294V22.104C105.294 23.016 105.526 23.728 105.99 24.24C106.454 24.736 107.094 24.984 107.91 24.984C108.742 24.984 109.39 24.736 109.854 24.24C110.334 23.728 110.574 23.016 110.574 22.104V13.8H113.166V22.104C113.166 23.688 112.686 24.944 111.726 25.872C110.782 26.784 109.51 27.24 107.91 27.24ZM115.141 31.32V28.92H118.453C119.333 28.92 120.021 28.68 120.517 28.2C121.013 27.72 121.261 27.04 121.261 26.16V16.176H115.861V13.8H123.853V26.184C123.853 27.768 123.373 29.016 122.413 29.928C121.453 30.856 120.157 31.32 118.525 31.32H115.141ZM122.437 11.52C121.877 11.52 121.429 11.376 121.093 11.088C120.757 10.784 120.589 10.384 120.589 9.888C120.589 9.376 120.757 8.976 121.093 8.688C121.429 8.384 121.877 8.232 122.437 8.232C122.997 8.232 123.445 8.384 123.781 8.688C124.117 8.976 124.285 9.376 124.285 9.888C124.285 10.384 124.117 10.784 123.781 11.088C123.445 11.376 122.997 11.52 122.437 11.52ZM131.396 27.24C130.02 27.24 128.932 26.888 128.132 26.184C127.348 25.464 126.956 24.488 126.956 23.256C126.956 22.008 127.372 21.032 128.204 20.328C129.052 19.608 130.212 19.248 131.684 19.248H135.356V18.024C135.356 17.304 135.132 16.744 134.684 16.344C134.236 15.944 133.604 15.744 132.788 15.744C132.068 15.744 131.468 15.904 130.988 16.224C130.508 16.528 130.228 16.936 130.148 17.448H127.604C127.748 16.264 128.292 15.32 129.236 14.616C130.196 13.912 131.404 13.56 132.86 13.56C134.428 13.56 135.668 13.96 136.58 14.76C137.492 15.544 137.948 16.616 137.948 17.976V27H135.428V24.576H134.996L135.428 24.096C135.428 25.056 135.06 25.824 134.324 26.4C133.588 26.96 132.612 27.24 131.396 27.24ZM132.164 25.248C133.092 25.248 133.852 25.016 134.444 24.552C135.052 24.072 135.356 23.464 135.356 22.728V21H131.732C131.06 21 130.524 21.184 130.124 21.552C129.74 21.92 129.548 22.424 129.548 23.064C129.548 23.736 129.78 24.272 130.244 24.672C130.708 25.056 131.348 25.248 132.164 25.248Z" fill="white"/>
<path d="M15.38 32.174V29.575H26.42V32.174H15.38Z" fill="#8A3FFC"/>
</svg>