<svg width="371" height="218" viewBox="0 0 371 218" fill="none" xmlns="http://www.w3.org/2000/svg">
<rect width="350" height="165" transform="translate(9.11053 3.05429) rotate(-0.5)" fill="#E0C8FF"/>
<path d="M47.7034 43.393C47.6477 42.8779 47.4248 42.4793 47.0345 42.1971C46.6443 41.915 46.1168 41.7769 45.452 41.7827C45.0003 41.7866 44.6195 41.8539 44.3096 41.9844C43.9996 42.1107 43.7624 42.2854 43.5982 42.5084C43.4382 42.7314 43.3594 42.9835 43.3619 43.2647C43.3554 43.4992 43.4062 43.7033 43.5142 43.8771C43.6266 44.0508 43.7792 44.2008 43.972 44.3269C44.1649 44.4488 44.3874 44.5556 44.6396 44.6471C44.8918 44.7344 45.1609 44.8088 45.447 44.8702L46.6255 45.1412C47.1977 45.264 47.7233 45.4299 48.2024 45.6388C48.6815 45.8477 49.0971 46.1061 49.4493 46.4141C49.8014 46.7222 50.0752 47.0863 50.2706 47.5065C50.4703 47.9266 50.5747 48.4094 50.5837 48.9548C50.5864 49.7559 50.3879 50.4523 49.9883 51.0439C49.5928 51.6311 49.0172 52.09 48.2616 52.4205C47.5101 52.7467 46.6018 52.9144 45.5365 52.9237C44.4797 52.9329 43.5578 52.779 42.771 52.462C41.9883 52.145 41.3748 51.6709 40.9303 51.0398C40.4901 50.4044 40.2553 49.616 40.2257 48.6744L42.9039 48.651C42.9376 49.0897 43.0665 49.4551 43.2906 49.7471C43.519 50.0349 43.8213 50.2518 44.1976 50.3976C44.5781 50.5392 45.007 50.6079 45.4842 50.6037C45.953 50.5996 46.3593 50.5279 46.7033 50.3885C47.0515 50.2491 47.3205 50.0572 47.5101 49.8126C47.6997 49.568 47.7932 49.2881 47.7904 48.9728C47.7878 48.6787 47.6983 48.4323 47.5219 48.2336C47.3497 48.0348 47.0968 47.8666 46.7632 47.7288C46.4338 47.5911 46.03 47.4668 45.5518 47.3559L44.1233 47.0104C43.0173 46.7515 42.1422 46.3394 41.4981 45.774C40.8539 45.2086 40.5297 44.4422 40.5255 43.4749C40.5144 42.6823 40.7192 41.988 41.1402 41.392C41.5654 40.7959 42.1516 40.3285 42.8986 39.9895C43.6457 39.6506 44.4965 39.477 45.451 39.4687C46.4225 39.4602 47.272 39.619 47.9993 39.945C48.7308 40.271 49.3016 40.7284 49.7116 41.3172C50.1216 41.906 50.3364 42.5902 50.356 43.3699L47.7034 43.393ZM56.8644 52.8312C55.8715 52.8399 55.011 52.6364 54.283 52.2209C53.5591 51.8011 52.9978 51.2136 52.5992 50.4585C52.2005 49.6992 51.9968 48.8167 51.988 47.8111C51.9791 46.7969 52.1674 45.9089 52.5528 45.147C52.9382 44.3808 53.4891 43.7836 54.2056 43.3555C54.9263 42.923 55.7831 42.7025 56.7759 42.6938C57.7688 42.6852 58.6271 42.8907 59.351 43.3106C60.0791 43.7261 60.6425 44.3136 61.0412 45.0729C61.4398 45.828 61.6436 46.7126 61.6524 47.7267C61.6612 48.7324 61.4729 49.6183 61.0875 50.3845C60.7021 51.1464 60.149 51.7436 59.4284 52.176C58.7119 52.6042 57.8572 52.8226 56.8644 52.8312ZM56.8588 50.7218C57.3104 50.7179 57.6864 50.5867 57.9868 50.3284C58.287 50.0659 58.5119 49.7102 58.6614 49.2614C58.8152 48.8126 58.8896 48.3027 58.8846 47.7317C58.8796 47.1607 58.7963 46.6522 58.6348 46.2061C58.4774 45.7601 58.2464 45.4084 57.9416 45.1511C57.6368 44.8938 57.2585 44.7671 56.8068 44.771C56.3509 44.775 55.9685 44.9083 55.6597 45.171C55.3552 45.4336 55.126 45.7893 54.9723 46.2381C54.8228 46.6869 54.7505 47.1968 54.7555 47.7678C54.7605 48.3388 54.8416 48.8473 54.9989 49.2934C55.1605 49.7394 55.3958 50.0911 55.7049 50.3483C56.0182 50.6013 56.4028 50.7258 56.8588 50.7218ZM68.6594 42.718L68.6772 44.7633L62.6178 44.8162L62.6 42.7708L68.6594 42.718ZM64.0727 52.5765L63.9808 42.0492C63.9746 41.3376 64.1079 40.7462 64.3808 40.2751C64.658 39.8039 65.0384 39.449 65.5221 39.2104C66.0059 38.9718 66.5567 38.8498 67.1745 38.8444C67.5921 38.8408 67.9738 38.8694 68.3195 38.9303C68.6695 38.9912 68.9299 39.0464 69.1008 39.0961L68.6329 41.1457C68.5261 41.1125 68.3937 41.0817 68.2358 41.0533C68.0821 41.0248 67.9243 41.0112 67.7624 41.0127C67.3618 41.0162 67.0835 41.1123 66.9275 41.3012C66.7714 41.4858 66.6948 41.7443 66.6977 42.0767L66.7892 52.5528L64.0727 52.5765ZM75.545 42.6579L75.5628 44.7032L69.6504 44.7548L69.6325 42.7095L75.545 42.6579ZM70.9543 40.3456L73.6772 40.3218L73.7571 49.4749C73.7593 49.7263 73.7993 49.922 73.8773 50.0619C73.9551 50.1976 74.0625 50.2925 74.1994 50.3468C74.3405 50.4009 74.5026 50.4272 74.6859 50.4256C74.8137 50.4245 74.9414 50.4127 75.0691 50.3903C75.1967 50.3636 75.2945 50.3436 75.3626 50.3302L75.8085 52.3527C75.6726 52.3965 75.4812 52.4472 75.2346 52.5047C74.9879 52.5665 74.6878 52.6054 74.3343 52.6212C73.6783 52.6525 73.1022 52.5702 72.6062 52.3742C72.1144 52.1782 71.7303 51.8705 71.4539 51.451C71.1775 51.0315 71.0386 50.5001 71.0373 49.8566L70.9543 40.3456ZM79.3411 52.4433L76.5836 42.6488L79.3385 42.6248L80.9173 49.2078L81.0068 49.207L82.5344 42.5969L85.2381 42.5733L86.9061 49.1172L86.9892 49.1165L88.4276 42.5454L91.1761 42.5215L88.5964 52.3625L85.7137 52.3877L83.9724 46.2279L83.8509 46.229L82.2174 52.4182L79.3411 52.4433ZM95.5155 52.4875C94.8892 52.493 94.33 52.3892 93.838 52.1762C93.3461 51.9589 92.9555 51.6363 92.6662 51.2084C92.3812 50.7762 92.2358 50.2362 92.2302 49.5885C92.2254 49.0431 92.3216 48.5841 92.5186 48.2117C92.7156 47.8392 92.9858 47.5385 93.3289 47.3097C93.6721 47.0808 94.0627 46.9069 94.5006 46.7881C94.9427 46.6691 95.4065 46.5841 95.8919 46.533C96.4623 46.4684 96.9221 46.409 97.271 46.3548C97.62 46.2963 97.8728 46.2132 98.0295 46.1053C98.1863 45.9974 98.2637 45.839 98.2619 45.6302L98.2616 45.5918C98.2581 45.187 98.1275 44.875 97.8699 44.6556C97.6165 44.4362 97.2576 44.3285 96.7932 44.3326C96.3031 44.3369 95.9142 44.4489 95.6263 44.6688C95.3384 44.8844 95.149 45.1545 95.0581 45.4792L92.5379 45.2966C92.6605 44.6989 92.9075 44.1811 93.2786 43.7432C93.6498 43.301 94.1305 42.9602 94.7208 42.7206C95.3153 42.4768 96.0045 42.3515 96.7886 42.3446C97.334 42.3399 97.8566 42.3992 98.3563 42.5227C98.8602 42.6462 99.3072 42.8404 99.6973 43.1055C100.092 43.3705 100.404 43.713 100.633 44.1329C100.863 44.5485 100.98 45.0482 100.985 45.632L101.043 52.2539L98.4605 52.2764L98.4487 50.915L98.372 50.9157C98.217 51.2238 98.0084 51.4963 97.7463 51.7329C97.4841 51.9654 97.1682 52.1492 96.7986 52.2846C96.429 52.4156 96.0013 52.4833 95.5155 52.4875ZM96.2789 50.6015C96.6795 50.598 97.0325 50.5161 97.3379 50.3558C97.6433 50.1912 97.8822 49.9717 98.0545 49.6975C98.2268 49.4233 98.3115 49.1136 98.3085 48.7684L98.2994 47.7265C98.2146 47.7827 98.0979 47.8348 97.9492 47.883C97.8047 47.9269 97.641 47.9688 97.4581 48.0088C97.2751 48.0444 97.0922 48.078 96.9092 48.1094C96.7262 48.1366 96.5602 48.1615 96.4113 48.1841C96.0921 48.2338 95.8136 48.3108 95.5759 48.4151C95.3382 48.5195 95.154 48.6596 95.0234 48.8354C94.8928 49.007 94.8286 49.2207 94.8309 49.4763C94.8341 49.8471 94.9708 50.1293 95.241 50.3229C95.5154 50.5123 95.8613 50.6052 96.2789 50.6015ZM103.155 52.2355L103.07 42.4177L105.709 42.3946L105.724 44.1076L105.827 44.1067C106 43.4958 106.297 43.033 106.716 42.7182C107.135 42.3992 107.619 42.2373 108.169 42.2325C108.305 42.2313 108.453 42.2386 108.61 42.2543C108.768 42.2699 108.907 42.2922 109.026 42.3209L109.048 44.737C108.919 44.6998 108.742 44.6673 108.516 44.6394C108.29 44.6115 108.083 44.5984 107.896 44.6001C107.495 44.6036 107.138 44.694 106.824 44.8715C106.515 45.0447 106.27 45.2855 106.089 45.5939C105.913 45.9022 105.826 46.2567 105.83 46.6572L105.878 52.2117L103.155 52.2355ZM114.539 52.3279C113.529 52.3367 112.658 52.1398 111.926 51.737C111.198 51.33 110.635 50.7511 110.236 50.0003C109.837 49.2452 109.634 48.35 109.625 47.3145C109.616 46.3046 109.804 45.4165 110.189 44.6504C110.575 43.8842 111.121 43.2849 111.829 42.8526C112.541 42.4202 113.379 42.1999 114.342 42.1914C114.99 42.1858 115.594 42.2849 116.154 42.4889C116.718 42.6885 117.211 42.9932 117.632 43.4028C118.057 43.8125 118.39 44.3295 118.63 44.9539C118.87 45.5739 118.993 46.3016 119 47.1368L119.007 47.8846L110.717 47.957L110.702 46.2695L116.429 46.2196C116.426 45.8275 116.337 45.481 116.164 45.1799C115.991 44.8789 115.753 44.6444 115.449 44.4766C115.149 44.3045 114.801 44.2202 114.405 44.2237C113.991 44.2273 113.626 44.3263 113.308 44.5209C112.994 44.7111 112.749 44.9668 112.573 45.288C112.397 45.6049 112.308 45.9572 112.307 46.345L112.321 47.9494C112.325 48.4351 112.419 48.8541 112.601 49.2062C112.787 49.5583 113.047 49.8288 113.381 50.0176C113.715 50.2065 114.11 50.2989 114.566 50.2949C114.869 50.2923 115.145 50.2472 115.396 50.1598C115.647 50.0724 115.861 49.9427 116.038 49.7707C116.216 49.5987 116.35 49.3887 116.442 49.1407L118.962 49.2849C118.839 49.8911 118.582 50.4218 118.189 50.877C117.801 51.3278 117.297 51.6816 116.677 51.9385C116.062 52.191 115.349 52.3208 114.539 52.3279ZM127.294 52.0248L124.328 52.0507L128.733 38.9209L132.3 38.8897L136.926 51.9408L133.961 51.9666L130.593 41.8962L130.491 41.8971L127.294 52.0248ZM127.064 46.881L134.069 46.8199L134.088 48.9803L127.083 49.0415L127.064 46.881ZM138.451 51.9275L138.365 42.1096L141.005 42.0866L141.02 43.7996L141.122 43.7987C141.296 43.1878 141.592 42.725 142.011 42.4102C142.431 42.0912 142.915 41.9293 143.465 41.9245C143.601 41.9233 143.748 41.9306 143.906 41.9462C144.064 41.9619 144.202 41.9841 144.322 42.0129L144.343 44.429C144.215 44.3918 144.038 44.3592 143.812 44.3314C143.586 44.3035 143.379 44.2904 143.191 44.292C142.791 44.2955 142.433 44.386 142.12 44.5635C141.81 44.7366 141.565 44.9774 141.384 45.2858C141.208 45.5942 141.122 45.9487 141.125 46.3492L141.174 51.9037L138.451 51.9275ZM149.796 52.0202C148.791 52.029 147.924 51.8235 147.196 51.4037C146.472 50.9796 145.913 50.3879 145.518 49.6285C145.128 48.8691 144.929 47.9929 144.92 47.0001C144.911 45.9944 145.097 45.1107 145.479 44.3488C145.864 43.5826 146.415 42.9833 147.131 42.5509C147.848 42.1143 148.702 41.8916 149.695 41.8829C150.552 41.8755 151.303 42.0244 151.949 42.3299C152.595 42.6353 153.108 43.0677 153.488 43.6269C153.868 44.1861 154.081 44.8448 154.125 45.6029L151.556 45.6254C151.479 45.1359 151.284 44.7435 150.97 44.4479C150.661 44.148 150.257 44.0003 149.758 44.0046C149.337 44.0083 148.969 44.1266 148.656 44.3594C148.347 44.588 148.107 44.9203 147.936 45.3565C147.765 45.7927 147.682 46.3197 147.687 46.9376C147.693 47.564 147.783 48.0959 147.957 48.5333C148.135 48.9707 148.383 49.303 148.701 49.5304C149.018 49.7577 149.388 49.8696 149.81 49.8659C150.121 49.8632 150.399 49.7968 150.645 49.6668C150.895 49.5368 151.101 49.3496 151.26 49.1053C151.424 48.8567 151.53 48.5596 151.579 48.214L154.148 48.1916C154.112 48.942 153.913 49.6042 153.552 50.1784C153.195 50.7483 152.698 51.1959 152.061 51.521C151.425 51.8462 150.67 52.0126 149.796 52.0202ZM158.596 46.0753L158.646 51.7512L155.923 51.775L155.809 38.6846L158.455 38.6615L158.498 43.6663L158.614 43.6653C158.83 43.0838 159.184 42.6269 159.675 42.2944C160.167 41.9577 160.785 41.7861 161.531 41.7796C162.213 41.7737 162.809 41.9176 163.318 42.2115C163.832 42.5011 164.232 42.9216 164.518 43.4731C164.809 44.0203 164.955 44.6774 164.957 45.4445L165.012 51.6957L162.289 51.7194L162.239 45.954C162.238 45.3489 162.08 44.8794 161.766 44.5454C161.456 44.2115 161.025 44.0469 160.471 44.0518C160.1 44.055 159.773 44.1367 159.488 44.2968C159.209 44.457 158.989 44.689 158.83 44.993C158.675 45.2926 158.597 45.6534 158.596 46.0753ZM167.155 51.677L167.069 41.8592L169.792 41.8354L169.878 51.6532L167.155 51.677ZM168.426 40.5816C168.021 40.5852 167.673 40.454 167.381 40.188C167.093 39.9178 166.947 39.5931 166.944 39.2138C166.941 38.8389 167.08 38.5159 167.364 38.2449C167.651 37.9697 167.997 37.8303 168.402 37.8268C168.807 37.8232 169.153 37.9566 169.441 38.2268C169.733 38.4927 169.881 38.8132 169.884 39.1882C169.887 39.5674 169.745 39.8947 169.458 40.1699C169.175 40.4409 168.831 40.5781 168.426 40.5816ZM177.195 41.7708L177.213 43.8162L171.301 43.8678L171.283 41.8224L177.195 41.7708ZM172.605 39.4585L175.328 39.4347L175.407 48.5878C175.41 48.8392 175.45 49.0349 175.528 49.1748C175.606 49.3105 175.713 49.4055 175.85 49.4597C175.991 49.5138 176.153 49.5401 176.336 49.5385C176.464 49.5374 176.592 49.5256 176.72 49.5032C176.847 49.4765 176.945 49.4565 177.013 49.4431L177.459 51.4656C177.323 51.5094 177.132 51.5601 176.885 51.6176C176.638 51.6794 176.338 51.7183 175.985 51.7341C175.329 51.7654 174.753 51.6831 174.257 51.4871C173.765 51.2911 173.381 50.9834 173.104 50.5639C172.828 50.1444 172.689 49.613 172.688 48.9695L172.605 39.4585ZM183.425 51.7267C182.415 51.7356 181.544 51.5386 180.812 51.1359C180.084 50.7289 179.521 50.15 179.122 49.3991C178.723 48.6441 178.52 47.7488 178.511 46.7133C178.502 45.7034 178.69 44.8154 179.075 44.0492C179.461 43.283 180.007 42.6838 180.715 42.2514C181.427 41.8191 182.265 41.5987 183.228 41.5903C183.876 41.5846 184.48 41.6838 185.04 41.8877C185.604 42.0873 186.097 42.392 186.518 42.8017C186.943 43.2113 187.276 43.7283 187.516 44.3527C187.756 44.9728 187.879 45.7004 187.887 46.5356L187.893 47.2835L179.603 47.3558L179.588 45.6684L185.315 45.6184C185.312 45.2264 185.224 44.8798 185.05 44.5788C184.877 44.2777 184.639 44.0433 184.335 43.8755C184.035 43.7034 183.687 43.619 183.291 43.6225C182.877 43.6261 182.512 43.7252 182.194 43.9197C181.88 44.11 181.635 44.3657 181.459 44.6868C181.283 45.0037 181.194 45.3561 181.193 45.7439L181.207 47.3482C181.212 47.834 181.305 48.2529 181.487 48.605C181.673 48.9571 181.933 49.2276 182.267 49.4164C182.601 49.6053 182.996 49.6977 183.452 49.6938C183.755 49.6911 184.031 49.6461 184.282 49.5587C184.533 49.4713 184.747 49.3415 184.924 49.1695C185.102 48.9975 185.236 48.7875 185.328 48.5396L187.848 48.6838C187.725 49.29 187.468 49.8207 187.075 50.2758C186.687 50.7266 186.183 51.0805 185.563 51.3373C184.948 51.5899 184.235 51.7197 183.425 51.7267ZM194.144 51.6332C193.139 51.642 192.272 51.4365 191.544 51.0167C190.82 50.5926 190.261 50.0008 189.866 49.2415C189.476 48.4821 189.277 47.6059 189.268 46.6131C189.259 45.6074 189.445 44.7237 189.826 43.9618C190.212 43.1956 190.763 42.5963 191.479 42.1639C192.196 41.7272 193.05 41.5046 194.043 41.4959C194.9 41.4884 195.651 41.6374 196.297 41.9429C196.943 42.2483 197.456 42.6807 197.836 43.2399C198.216 43.7991 198.428 44.4578 198.473 45.2159L195.904 45.2383C195.827 44.7489 195.632 44.3564 195.318 44.0609C195.009 43.761 194.605 43.6132 194.106 43.6176C193.684 43.6213 193.317 43.7395 193.004 43.9724C192.694 44.201 192.454 44.5333 192.284 44.9695C192.113 45.4057 192.03 45.9327 192.035 46.5506C192.041 47.177 192.131 47.7089 192.305 48.1463C192.483 48.5837 192.731 48.916 193.049 49.1434C193.366 49.3707 193.736 49.4826 194.157 49.4789C194.469 49.4762 194.747 49.4098 194.993 49.2798C195.243 49.1498 195.448 48.9626 195.608 48.7183C195.772 48.4697 195.878 48.1726 195.926 47.827L198.496 47.8046C198.46 48.5549 198.261 49.2172 197.9 49.7914C197.542 50.3613 197.046 50.8088 196.409 51.134C195.773 51.4592 195.018 51.6256 194.144 51.6332ZM205.407 41.5246L205.425 43.57L199.513 43.6216L199.495 41.5762L205.407 41.5246ZM200.817 39.2123L203.539 39.1885L203.619 48.3416C203.622 48.593 203.662 48.7887 203.739 48.9286C203.817 49.0643 203.925 49.1593 204.062 49.2135C204.203 49.2676 204.365 49.2939 204.548 49.2923C204.676 49.2912 204.804 49.2794 204.931 49.257C205.059 49.2303 205.157 49.2103 205.225 49.1969L205.671 51.2194C205.535 51.2632 205.343 51.3139 205.097 51.3714C204.85 51.4332 204.55 51.4721 204.197 51.4879C203.54 51.5192 202.964 51.4369 202.468 51.2409C201.977 51.0449 201.593 50.7372 201.316 50.3177C201.04 49.8982 200.901 49.3668 200.9 48.7233L200.817 39.2123ZM213.526 47.0917L213.477 41.4542L216.2 41.4304L216.285 51.2482L213.671 51.271L213.656 49.4877L213.553 49.4886C213.337 50.0658 212.972 50.5314 212.46 50.8853C211.951 51.2392 211.329 51.4193 210.591 51.4257C209.935 51.4315 209.357 51.2874 208.855 50.9934C208.354 50.6995 207.961 50.2789 207.675 49.7317C207.393 49.1844 207.246 48.5273 207.235 47.7603L207.181 41.5091L209.904 41.4853L209.954 47.2507C209.963 47.8302 210.123 48.287 210.433 48.6209C210.742 48.9549 211.155 49.1196 211.671 49.1151C211.999 49.1122 212.305 49.035 212.589 48.8834C212.873 48.7275 213.102 48.4996 213.274 48.1998C213.45 47.9 213.534 47.5306 213.526 47.0917ZM218.463 51.2292L218.378 41.4114L221.018 41.3884L221.033 43.1014L221.135 43.1005C221.308 42.4895 221.605 42.0267 222.024 41.712C222.443 41.393 222.927 41.2311 223.477 41.2263C223.614 41.2251 223.761 41.2323 223.918 41.248C224.076 41.2636 224.215 41.2859 224.335 41.3147L224.356 43.7308C224.227 43.6935 224.05 43.661 223.824 43.6331C223.598 43.6053 223.391 43.5922 223.204 43.5938C222.803 43.5973 222.446 43.6878 222.132 43.8652C221.823 44.0384 221.578 44.2792 221.397 44.5876C221.221 44.8959 221.134 45.2504 221.138 45.651L221.186 51.2054L218.463 51.2292ZM229.847 51.3216C228.837 51.3304 227.966 51.1335 227.234 50.7308C226.506 50.3238 225.943 49.7448 225.544 48.994C225.146 48.239 224.942 47.3437 224.933 46.3082C224.924 45.2983 225.112 44.4103 225.497 43.6441C225.883 42.8779 226.429 42.2787 227.137 41.8463C227.85 41.414 228.687 41.1936 229.65 41.1852C230.298 41.1795 230.902 41.2787 231.462 41.4826C232.026 41.6822 232.519 41.9869 232.94 42.3966C233.365 42.8062 233.698 43.3232 233.938 43.9476C234.178 44.5677 234.301 45.2953 234.309 46.1305L234.315 46.8783L226.025 46.9507L226.01 45.2633L231.737 45.2133C231.734 44.8212 231.646 44.4747 231.472 44.1736C231.299 43.8726 231.061 43.6382 230.757 43.4703C230.457 43.2982 230.109 43.2139 229.713 43.2174C229.299 43.221 228.934 43.3201 228.616 43.5146C228.302 43.7048 228.057 43.9605 227.881 44.2817C227.705 44.5986 227.616 44.9509 227.615 45.3387L227.629 46.9431C227.634 47.4289 227.727 47.8478 227.909 48.1999C228.095 48.552 228.355 48.8225 228.689 49.0113C229.023 49.2002 229.418 49.2926 229.874 49.2886C230.177 49.286 230.453 49.241 230.704 49.1535C230.955 49.0661 231.169 48.9364 231.346 48.7644C231.524 48.5924 231.658 48.3824 231.75 48.1344L234.27 48.2787C234.147 48.8849 233.89 49.4155 233.497 49.8707C233.109 50.3215 232.605 50.6754 231.985 50.9322C231.37 51.1848 230.657 51.3146 229.847 51.3216ZM51.9065 93.5934L52.0208 106.684L50.2055 106.7L43.4678 97.1572L43.3464 97.1583L43.4302 106.759L41.4551 106.776L41.3409 93.6856L43.1689 93.6696L49.9131 103.225L50.0345 103.224L49.9506 93.6104L51.9065 93.5934ZM58.9816 106.821C58.0143 106.83 57.1794 106.63 56.477 106.223C55.7787 105.811 55.2367 105.23 54.8509 104.479C54.4693 103.724 54.274 102.837 54.2651 101.819C54.2564 100.813 54.4361 99.9252 54.8044 99.1549C55.177 98.3846 55.7001 97.7813 56.3739 97.345C57.0519 96.9087 57.8469 96.6865 58.7588 96.6786C59.3128 96.6737 59.8505 96.7607 60.3719 96.9394C60.8934 97.1181 61.3625 97.4016 61.7793 97.79C62.196 98.1785 62.5265 98.6848 62.7705 99.3091C63.0146 99.9292 63.1405 100.685 63.1483 101.575L63.1542 102.253L55.3498 102.321L55.3373 100.889L61.2689 100.837C61.2645 100.334 61.1584 99.89 60.9504 99.504C60.7425 99.1138 60.4522 98.8073 60.0795 98.5847C59.711 98.3621 59.2797 98.2529 58.7854 98.2572C58.2485 98.2619 57.7809 98.3981 57.3826 98.6658C56.9886 98.9292 56.6848 99.2728 56.4711 99.6965C56.2617 100.116 56.1591 100.571 56.1634 101.061L56.1732 102.179C56.1789 102.836 56.2988 103.393 56.533 103.851C56.7713 104.309 57.1004 104.658 57.5201 104.897C57.9398 105.132 58.4287 105.247 58.987 105.242C59.3492 105.239 59.679 105.185 59.9763 105.08C60.2737 104.971 60.5301 104.811 60.7456 104.6C60.9611 104.39 61.1251 104.131 61.2374 103.823L63.0492 104.133C62.9089 104.667 62.6531 105.136 62.2816 105.54C61.9143 105.939 61.4504 106.252 60.8899 106.479C60.3335 106.701 59.6974 106.815 58.9816 106.821ZM69.5456 106.729C68.5783 106.737 67.7434 106.538 67.041 106.131C66.3428 105.719 65.8008 105.138 65.4149 104.387C65.0333 103.632 64.8381 102.745 64.8292 101.727C64.8204 100.721 65.0002 99.833 65.3685 99.0627C65.741 98.2924 66.2642 97.6891 66.938 97.2528C67.616 96.8165 68.411 96.5943 69.3229 96.5864C69.8768 96.5815 70.4145 96.6685 70.936 96.8472C71.4575 97.0259 71.9266 97.3094 72.3433 97.6978C72.7601 98.0863 73.0905 98.5926 73.3346 99.217C73.5787 99.837 73.7046 100.592 73.7123 101.483L73.7183 102.16L65.9139 102.229L65.9014 100.797L71.833 100.745C71.8286 100.242 71.7224 99.7978 71.5145 99.4118C71.3065 99.0216 71.0162 98.7151 70.6435 98.4925C70.2751 98.2699 69.8437 98.1607 69.3494 98.165C68.8125 98.1697 68.3449 98.3059 67.9467 98.5736C67.5527 98.837 67.2488 99.1806 67.0352 99.6043C66.8258 100.024 66.7232 100.479 66.7275 100.969L66.7372 102.087C66.743 102.743 66.8629 103.301 67.097 103.759C67.3354 104.217 67.6644 104.566 68.0842 104.805C68.5038 105.04 68.9928 105.155 69.551 105.15C69.9132 105.147 70.243 105.093 70.5404 104.988C70.8377 104.879 71.0942 104.719 71.3097 104.508C71.5252 104.298 71.6891 104.038 71.8015 103.731L73.6132 104.041C73.473 104.575 73.2171 105.043 72.8456 105.447C72.4784 105.847 72.0145 106.16 71.4539 106.386C70.8976 106.609 70.2615 106.723 69.5456 106.729ZM79.5535 106.635C78.7609 106.642 78.0518 106.446 77.4261 106.047C76.8047 105.643 76.3138 105.065 75.9536 104.314C75.5975 103.559 75.4149 102.651 75.4056 101.59C75.3964 100.529 75.5653 99.6194 75.9124 98.8621C76.2637 98.1047 76.7487 97.523 77.3674 97.1171C77.986 96.7111 78.6895 96.5046 79.4778 96.4978C80.0872 96.4924 80.5781 96.5904 80.9506 96.7917C81.3274 96.9887 81.6192 97.2206 81.826 97.4872C82.0372 97.7539 82.2012 97.989 82.318 98.1925L82.4331 98.1915L82.3906 93.3273L84.3018 93.3107L84.416 106.401L82.5496 106.417L82.5363 104.89L82.3765 104.891C82.2632 105.101 82.0991 105.341 81.8842 105.611C81.6734 105.882 81.3815 106.119 81.0082 106.322C80.635 106.526 80.1501 106.63 79.5535 106.635ZM79.9611 105.002C80.5108 104.997 80.974 104.848 81.3508 104.555C81.7317 104.258 82.0179 103.848 82.2094 103.326C82.4051 102.805 82.5 102.199 82.494 101.509C82.488 100.827 82.3848 100.231 82.1843 99.7214C81.9839 99.2118 81.6927 98.8159 81.311 98.5337C80.9293 98.2515 80.4593 98.1128 79.9011 98.1177C79.3258 98.1227 78.8477 98.2761 78.4668 98.5777C78.0859 98.8793 77.7997 99.2888 77.6082 99.8061C77.4209 100.323 77.3301 100.906 77.3358 101.554C77.3415 102.21 77.4447 102.799 77.6453 103.322C77.8459 103.844 78.1392 104.257 78.5254 104.56C78.9158 104.86 79.3944 105.007 79.9611 105.002ZM94.4359 98.8922L92.7064 99.2141C92.632 98.9931 92.5151 98.7832 92.3557 98.5843C92.2006 98.3854 91.9903 98.2231 91.725 98.0976C91.4597 97.9721 91.1289 97.9111 90.7326 97.9145C90.1915 97.9192 89.7408 98.0446 89.3807 98.2907C89.0206 98.5325 88.8422 98.843 88.8455 99.2222C88.8484 99.5503 88.9721 99.8135 89.2168 100.012C89.4614 100.21 89.8549 100.37 90.3972 100.494L91.9599 100.838C92.8651 101.039 93.5412 101.355 93.9881 101.785C94.4351 102.216 94.6616 102.779 94.6677 103.473C94.6728 104.061 94.5069 104.587 94.17 105.05C93.8374 105.509 93.3696 105.871 92.7668 106.136C92.1683 106.402 91.4727 106.538 90.6801 106.545C89.5807 106.554 88.6817 106.328 87.983 105.865C87.2843 105.398 86.8523 104.731 86.6871 103.863L88.5319 103.565C88.6511 104.046 88.8908 104.408 89.2509 104.652C89.6109 104.892 90.0786 105.009 90.6539 105.004C91.2803 104.999 91.7798 104.864 92.1525 104.601C92.5252 104.334 92.7099 104.01 92.7066 103.631C92.7039 103.324 92.5866 103.068 92.3547 102.861C92.127 102.654 91.7784 102.499 91.3087 102.397L89.6437 102.047C88.7257 101.846 88.0452 101.52 87.6024 101.068C87.1637 100.616 86.9414 100.04 86.9353 99.3412C86.9302 98.7616 87.0877 98.2531 87.4078 97.8157C87.7278 97.3782 88.1723 97.0355 88.7412 96.7877C89.31 96.5355 89.963 96.4063 90.7002 96.3998C91.7613 96.3906 92.5985 96.6134 93.2118 97.0683C93.8252 97.5189 94.2332 98.1269 94.4359 98.8922ZM106.054 96.3937L106.068 97.9277L100.705 97.9745L100.692 96.4405L106.054 96.3937ZM102.109 94.0757L104.021 94.0591L104.102 103.346C104.105 103.717 104.163 103.996 104.275 104.182C104.387 104.364 104.531 104.489 104.707 104.556C104.886 104.618 105.08 104.648 105.289 104.646C105.442 104.645 105.577 104.633 105.691 104.611C105.806 104.589 105.896 104.571 105.96 104.557L106.318 106.133C106.208 106.177 106.051 106.221 105.847 106.265C105.642 106.314 105.387 106.342 105.08 106.349C104.577 106.361 104.108 106.276 103.672 106.092C103.235 105.909 102.881 105.622 102.609 105.232C102.338 104.843 102.199 104.352 102.194 103.759L102.109 94.0757ZM112.286 106.356C111.366 106.364 110.56 106.16 109.871 105.744C109.181 105.328 108.643 104.743 108.257 103.988C107.871 103.232 107.674 102.348 107.665 101.334C107.656 100.315 107.838 99.423 108.211 98.6569C108.583 97.8908 109.111 97.2939 109.793 96.866C110.476 96.4382 111.277 96.2203 112.197 96.2122C113.118 96.2042 113.923 96.4081 114.613 96.824C115.302 97.2398 115.84 97.8275 116.226 98.587C116.612 99.3464 116.809 100.235 116.818 101.254C116.827 102.268 116.645 103.156 116.273 103.918C115.9 104.68 115.373 105.274 114.69 105.702C114.008 106.13 113.206 106.348 112.286 106.356ZM112.278 104.752C112.875 104.746 113.368 104.584 113.757 104.266C114.146 103.947 114.433 103.525 114.615 102.999C114.803 102.473 114.893 101.895 114.888 101.264C114.882 100.638 114.782 100.063 114.585 99.5409C114.393 99.0142 114.1 98.5927 113.705 98.2766C113.31 97.9604 112.814 97.8049 112.218 97.8101C111.617 97.8154 111.12 97.9795 110.726 98.3025C110.337 98.6256 110.049 99.0521 109.862 99.5822C109.679 100.108 109.59 100.684 109.596 101.31C109.601 101.941 109.7 102.518 109.892 103.04C110.088 103.563 110.384 103.98 110.779 104.292C111.178 104.604 111.678 104.757 112.278 104.752ZM123.911 106.056L123.797 92.966L125.708 92.9493L125.75 97.8135L125.865 97.8125C125.974 97.607 126.132 97.3691 126.339 97.0988C126.545 96.8285 126.833 96.5916 127.202 96.3881C127.571 96.1803 128.06 96.0738 128.669 96.0685C129.462 96.0616 130.171 96.2557 130.796 96.6508C131.422 97.0459 131.915 97.619 132.275 98.3702C132.64 99.1213 132.827 100.027 132.836 101.088C132.845 102.149 132.676 103.061 132.329 103.822C131.982 104.58 131.501 105.166 130.887 105.58C130.273 105.99 129.569 106.199 128.777 106.206C128.18 106.211 127.691 106.115 127.31 105.918C126.934 105.721 126.638 105.489 126.422 105.223C126.207 104.956 126.041 104.719 125.924 104.511L125.764 104.512L125.777 106.04L123.911 106.056ZM125.741 101.131C125.747 101.821 125.852 102.426 126.057 102.944C126.262 103.462 126.555 103.866 126.937 104.157C127.319 104.443 127.785 104.584 128.334 104.58C128.905 104.575 129.381 104.419 129.762 104.113C130.143 103.803 130.429 103.385 130.621 102.859C130.816 102.333 130.911 101.742 130.905 101.086C130.9 100.438 130.797 99.8576 130.596 99.3437C130.4 98.8298 130.107 98.4253 129.716 98.1304C129.33 97.8355 128.849 97.6905 128.274 97.6956C127.72 97.7004 127.253 97.8472 126.872 98.1361C126.495 98.4249 126.211 98.8258 126.019 99.3389C125.828 99.8519 125.735 100.449 125.741 101.131ZM139.258 106.121C138.29 106.129 137.456 105.93 136.753 105.522C136.055 105.111 135.513 104.53 135.127 103.779C134.746 103.024 134.55 102.137 134.541 101.118C134.533 100.113 134.712 99.2247 135.081 98.4544C135.453 97.684 135.976 97.0807 136.65 96.6444C137.328 96.2081 138.123 95.986 139.035 95.978C139.589 95.9732 140.127 96.0601 140.648 96.2388C141.17 96.4175 141.639 96.7011 142.056 97.0895C142.472 97.4779 142.803 97.9843 143.047 98.6086C143.291 99.2286 143.417 99.984 143.425 100.875L143.43 101.552L135.626 101.62L135.614 100.188L141.545 100.137C141.541 99.6338 141.435 99.1894 141.227 98.8035C141.019 98.4132 140.728 98.1068 140.356 97.8842C139.987 97.6615 139.556 97.5524 139.062 97.5567C138.525 97.5614 138.057 97.6975 137.659 97.9652C137.265 98.2286 136.961 98.5722 136.747 98.996C136.538 99.4154 136.435 99.8702 136.44 100.36L136.449 101.479C136.455 102.135 136.575 102.692 136.809 103.15C137.048 103.609 137.377 103.957 137.796 104.197C138.216 104.432 138.705 104.547 139.263 104.542C139.625 104.539 139.955 104.485 140.253 104.38C140.55 104.271 140.806 104.111 141.022 103.9C141.237 103.689 141.401 103.43 141.514 103.122L143.325 103.432C143.185 103.966 142.929 104.435 142.558 104.839C142.191 105.238 141.727 105.551 141.166 105.778C140.61 106 139.974 106.114 139.258 106.121ZM154.489 105.988C153.539 105.996 152.719 105.788 152.029 105.364C151.344 104.935 150.814 104.341 150.441 103.581C150.068 102.822 149.877 101.95 149.869 100.965C149.86 99.9682 150.04 99.0866 150.408 98.3206C150.776 97.5503 151.3 96.947 151.978 96.5107C152.656 96.0744 153.457 95.8522 154.382 95.8441C155.127 95.8376 155.793 95.9703 156.38 96.2421C156.966 96.5098 157.44 96.8892 157.802 97.3803C158.169 97.8715 158.389 98.447 158.463 99.1069L156.603 99.1231C156.497 98.6638 156.259 98.2696 155.889 97.9404C155.524 97.6112 155.037 97.4492 154.428 97.4545C153.895 97.4592 153.43 97.6039 153.032 97.8886C152.638 98.169 152.332 98.568 152.115 99.0856C151.898 99.5989 151.793 100.205 151.799 100.904C151.805 101.62 151.919 102.237 152.141 102.755C152.363 103.272 152.673 103.673 153.072 103.955C153.475 104.237 153.947 104.375 154.488 104.37C154.85 104.367 155.178 104.298 155.471 104.164C155.768 104.025 156.015 103.829 156.213 103.576C156.416 103.322 156.556 103.019 156.634 102.664L158.494 102.648C158.431 103.283 158.229 103.852 157.889 104.354C157.548 104.855 157.089 105.251 156.512 105.542C155.939 105.832 155.265 105.981 154.489 105.988ZM164.702 105.899C163.782 105.907 162.976 105.703 162.287 105.287C161.597 104.871 161.059 104.285 160.673 103.53C160.287 102.775 160.09 101.89 160.081 100.876C160.072 99.8578 160.254 98.9655 160.627 98.1995C160.999 97.4334 161.527 96.8365 162.209 96.4086C162.892 95.9808 163.693 95.7628 164.613 95.7548C165.534 95.7468 166.339 95.9507 167.029 96.3665C167.718 96.7824 168.256 97.3701 168.642 98.1295C169.028 98.889 169.225 99.7779 169.234 100.796C169.243 101.81 169.061 102.698 168.689 103.46C168.316 104.222 167.789 104.817 167.106 105.245C166.424 105.673 165.622 105.891 164.702 105.899ZM164.694 104.294C165.291 104.289 165.784 104.127 166.173 103.808C166.562 103.489 166.848 103.067 167.031 102.541C167.219 102.016 167.309 101.437 167.304 100.807C167.298 100.18 167.198 99.606 167.001 99.0835C166.809 98.5568 166.516 98.1353 166.121 97.8191C165.726 97.503 165.23 97.3475 164.634 97.3527C164.033 97.3579 163.536 97.5221 163.142 97.8451C162.753 98.1681 162.465 98.5947 162.278 99.1247C162.095 99.6505 162.006 100.227 162.012 100.853C162.017 101.484 162.116 102.06 162.308 102.583C162.504 103.105 162.8 103.522 163.195 103.834C163.594 104.146 164.094 104.299 164.694 104.294ZM171.41 105.642L171.324 95.8241L173.159 95.8081L173.173 97.406L173.294 97.405C173.494 96.862 173.825 96.4372 174.287 96.1306C174.748 95.8198 175.303 95.6615 175.951 95.6559C176.607 95.6501 177.158 95.7987 177.604 96.1017C178.054 96.4046 178.388 96.8235 178.606 97.3586L178.708 97.3577C178.938 96.8315 179.307 96.4107 179.816 96.0952C180.324 95.7754 180.932 95.6124 181.64 95.6062C182.53 95.5984 183.259 95.8712 183.827 96.4245C184.398 96.9778 184.689 97.8169 184.699 98.9419L184.756 105.525L182.845 105.542L182.789 99.1375C182.783 98.4728 182.598 97.9928 182.233 97.6977C181.868 97.4026 181.435 97.2572 180.932 97.2616C180.31 97.267 179.828 97.463 179.486 97.8495C179.144 98.2318 178.976 98.7212 178.981 99.3178L179.035 105.575L177.131 105.592L177.074 99.0659C177.069 98.5333 176.899 98.1065 176.564 97.7855C176.229 97.4646 175.795 97.3064 175.262 97.3111C174.9 97.3142 174.566 97.413 174.261 97.6075C173.96 97.7976 173.718 98.0618 173.533 98.4001C173.353 98.7383 173.264 99.129 173.268 99.5722L173.321 105.625L171.41 105.642ZM187.318 105.503L187.232 95.6852L189.066 95.6692L189.08 97.2672L189.202 97.2661C189.402 96.7232 189.732 96.2984 190.194 95.9918C190.656 95.6809 191.211 95.5227 191.858 95.517C192.515 95.5113 193.066 95.6599 193.512 95.9628C193.962 96.2657 194.296 96.6847 194.513 97.2198L194.616 97.2189C194.845 96.6927 195.215 96.2719 195.723 95.9563C196.232 95.6365 196.84 95.4736 197.547 95.4674C198.438 95.4596 199.167 95.7324 199.734 96.2857C200.306 96.839 200.596 97.6781 200.606 98.803L200.664 105.387L198.753 105.403L198.697 98.9987C198.691 98.3339 198.506 97.854 198.141 97.5589C197.776 97.2637 197.342 97.1184 196.839 97.1228C196.217 97.1282 195.735 97.3242 195.393 97.7107C195.052 98.093 194.883 98.5824 194.888 99.1789L194.943 105.437L193.038 105.453L192.981 98.9271C192.977 98.3945 192.807 97.9677 192.472 97.6467C192.136 97.3258 191.702 97.1676 191.17 97.1722C190.808 97.1754 190.474 97.2742 190.169 97.4686C189.868 97.6588 189.625 97.923 189.441 98.2612C189.26 98.5995 189.172 98.9902 189.176 99.4333L189.229 105.486L187.318 105.503ZM209.409 101.238L209.359 95.4921L211.276 95.4754L211.362 105.293L209.483 105.31L209.468 103.609L209.366 103.61C209.144 104.136 208.786 104.576 208.291 104.93C207.799 105.28 207.185 105.458 206.448 105.464C205.817 105.469 205.258 105.336 204.77 105.063C204.286 104.786 203.903 104.374 203.621 103.827C203.343 103.279 203.201 102.601 203.194 101.791L203.14 95.5464L205.051 95.5297L205.103 101.544C205.109 102.213 205.299 102.744 205.673 103.138C206.047 103.531 206.531 103.725 207.123 103.719C207.481 103.716 207.836 103.624 208.188 103.442C208.544 103.259 208.838 102.986 209.069 102.622C209.305 102.258 209.418 101.797 209.409 101.238ZM215.79 99.4248L215.841 105.254L213.93 105.271L213.844 95.453L215.679 95.437L215.693 97.0349L215.814 97.0339C216.035 96.5121 216.385 96.0914 216.864 95.7718C217.347 95.4523 217.957 95.2893 218.694 95.2828C219.363 95.277 219.951 95.4125 220.456 95.6894C220.961 95.9619 221.355 96.3719 221.636 96.9192C221.918 97.4664 222.063 98.1449 222.07 98.9545L222.124 105.199L220.213 105.216L220.161 99.2013C220.154 98.4897 219.964 97.9352 219.59 97.5379C219.216 97.1363 218.705 96.9383 218.057 96.944C217.614 96.9479 217.22 97.0472 216.877 97.2419C216.538 97.4367 216.27 97.7203 216.073 98.0928C215.88 98.4609 215.786 98.9049 215.79 99.4248ZM224.687 105.177L224.602 95.3591L226.513 95.3424L226.598 105.16L224.687 105.177ZM225.554 93.8358C225.221 93.8387 224.935 93.7304 224.694 93.5109C224.458 93.2871 224.338 93.0197 224.336 92.7086C224.333 92.3933 224.448 92.1238 224.68 91.9002C224.917 91.6723 225.201 91.5569 225.534 91.554C225.866 91.5511 226.15 91.6615 226.387 91.8853C226.627 92.1048 226.749 92.3722 226.752 92.6876C226.754 92.9986 226.637 93.2681 226.401 93.4961C226.168 93.7197 225.886 93.8329 225.554 93.8358ZM233.307 105.3C232.357 105.308 231.536 105.1 230.847 104.676C230.161 104.247 229.632 103.653 229.259 102.893C228.885 102.134 228.695 101.262 228.686 100.278C228.677 99.2804 228.857 98.3988 229.225 97.6328C229.594 96.8625 230.117 96.2592 230.795 95.8229C231.473 95.3865 232.274 95.1643 233.199 95.1563C233.945 95.1497 234.611 95.2824 235.197 95.5543C235.783 95.8219 236.257 96.2013 236.62 96.6925C236.986 97.1837 237.206 97.7592 237.28 98.4191L235.42 98.4353C235.314 97.976 235.076 97.5817 234.707 97.2526C234.342 96.9233 233.854 96.7614 233.245 96.7667C232.712 96.7714 232.247 96.916 231.849 97.2008C231.455 97.4812 231.15 97.8802 230.933 98.3977C230.715 98.911 230.61 99.5171 230.616 100.216C230.622 100.932 230.736 101.549 230.958 102.067C231.18 102.585 231.49 102.985 231.889 103.267C232.292 103.549 232.764 103.687 233.305 103.683C233.668 103.679 233.995 103.611 234.288 103.476C234.585 103.337 234.833 103.141 235.031 102.888C235.233 102.635 235.373 102.331 235.451 101.976L237.311 101.96C237.249 102.596 237.047 103.164 236.706 103.666C236.365 104.167 235.906 104.563 235.329 104.854C234.756 105.144 234.082 105.293 233.307 105.3ZM242.241 105.241C241.619 105.247 241.055 105.136 240.551 104.911C240.046 104.681 239.644 104.345 239.346 103.905C239.053 103.464 238.903 102.922 238.898 102.279C238.893 101.725 238.995 101.268 239.205 100.908C239.415 100.548 239.7 100.262 240.061 100.05C240.421 99.8384 240.825 99.6772 241.271 99.5668C241.718 99.4564 242.173 99.3714 242.637 99.312C243.224 99.2387 243.701 99.1791 244.067 99.1333C244.433 99.0832 244.699 99.0063 244.864 98.9026C245.029 98.7989 245.111 98.632 245.109 98.4019L245.109 98.3571C245.104 97.7989 244.942 97.3678 244.624 97.0637C244.311 96.7596 243.845 96.6103 243.227 96.6157C242.583 96.6213 242.078 96.7685 241.709 97.0572C241.345 97.3416 241.095 97.657 240.957 98.0034L239.157 97.61C239.365 97.0116 239.672 96.5274 240.078 96.1573C240.488 95.783 240.961 95.5104 241.496 95.3395C242.032 95.1644 242.596 95.0743 243.188 95.0691C243.58 95.0657 243.996 95.1089 244.435 95.1988C244.879 95.2844 245.294 95.447 245.68 95.6866C246.07 95.9261 246.39 96.2706 246.641 96.7201C246.892 97.1654 247.021 97.746 247.027 98.4618L247.084 104.981L245.218 104.998L245.206 103.655L245.129 103.656C245.008 103.904 244.825 104.149 244.58 104.39C244.335 104.63 244.019 104.831 243.632 104.992C243.246 105.153 242.782 105.236 242.241 105.241ZM242.643 103.703C243.172 103.699 243.622 103.59 243.995 103.378C244.373 103.166 244.658 102.891 244.851 102.553C245.049 102.21 245.145 101.845 245.142 101.457L245.131 100.192C245.063 100.26 244.932 100.325 244.736 100.387C244.545 100.444 244.326 100.495 244.079 100.539C243.833 100.58 243.592 100.618 243.358 100.654C243.124 100.686 242.928 100.714 242.771 100.736C242.4 100.786 242.062 100.868 241.756 100.982C241.455 101.095 241.213 101.257 241.032 101.467C240.855 101.673 240.768 101.947 240.771 102.288C240.775 102.761 240.953 103.117 241.304 103.357C241.656 103.593 242.102 103.708 242.643 103.703ZM254.127 95.1015L254.14 96.6355L248.778 96.6823L248.764 95.1483L254.127 95.1015ZM250.182 92.7835L252.093 92.7669L252.174 102.054C252.177 102.425 252.235 102.703 252.348 102.89C252.46 103.072 252.604 103.197 252.779 103.263C252.959 103.326 253.153 103.356 253.362 103.354C253.515 103.353 253.649 103.341 253.764 103.319C253.879 103.296 253.968 103.279 254.032 103.265L254.391 104.841C254.28 104.885 254.123 104.929 253.919 104.973C253.715 105.022 253.459 105.049 253.153 105.056C252.65 105.069 252.18 104.984 251.744 104.8C251.308 104.616 250.954 104.33 250.682 103.94C250.41 103.55 250.272 103.059 250.266 102.467L250.182 92.7835ZM260.454 105.063C259.487 105.071 258.652 104.872 257.95 104.465C257.252 104.053 256.709 103.472 256.324 102.721C255.942 101.966 255.747 101.079 255.738 100.061C255.729 99.055 255.909 98.167 256.277 97.3967C256.65 96.6264 257.173 96.0231 257.847 95.5868C258.525 95.1504 259.32 94.9283 260.232 94.9203C260.786 94.9155 261.323 95.0024 261.845 95.1811C262.366 95.3598 262.835 95.6434 263.252 96.0318C263.669 96.4202 263.999 96.9266 264.243 97.5509C264.487 98.171 264.613 98.9263 264.621 99.8169L264.627 100.494L256.823 100.563L256.81 99.1308L262.742 99.079C262.737 98.5762 262.631 98.1318 262.423 97.7458C262.215 97.3555 261.925 97.0491 261.552 96.8265C261.184 96.6039 260.752 96.4947 260.258 96.499C259.721 96.5037 259.254 96.6399 258.855 96.9076C258.461 97.171 258.158 97.5145 257.944 97.9383C257.735 98.3577 257.632 98.8125 257.636 99.3025L257.646 100.421C257.652 101.077 257.772 101.635 258.006 102.093C258.244 102.551 258.573 102.9 258.993 103.139C259.413 103.374 259.902 103.489 260.46 103.484C260.822 103.481 261.152 103.427 261.449 103.322C261.746 103.213 262.003 103.053 262.218 102.842C262.434 102.632 262.598 102.372 262.71 102.064L264.522 102.375C264.382 102.909 264.126 103.377 263.754 103.781C263.387 104.181 262.923 104.494 262.363 104.72C261.806 104.942 261.17 105.057 260.454 105.063ZM270.462 104.969C269.67 104.976 268.961 104.78 268.335 104.381C267.713 103.977 267.223 103.399 266.862 102.648C266.506 101.893 266.324 100.985 266.314 99.9236C266.305 98.8625 266.474 97.9533 266.821 97.196C267.172 96.4387 267.657 95.857 268.276 95.451C268.895 95.045 269.598 94.8386 270.387 94.8317C270.996 94.8264 271.487 94.9244 271.859 95.1257C272.236 95.3227 272.528 95.5545 272.735 95.8212C272.946 96.0878 273.11 96.3229 273.227 96.5265L273.342 96.5255L273.299 91.6613L275.21 91.6446L275.325 104.735L273.458 104.751L273.445 103.224L273.285 103.225C273.172 103.435 273.008 103.675 272.793 103.945C272.582 104.216 272.29 104.453 271.917 104.656C271.544 104.86 271.059 104.964 270.462 104.969ZM270.87 103.336C271.42 103.331 271.883 103.182 272.26 102.889C272.64 102.591 272.927 102.182 273.118 101.66C273.314 101.139 273.409 100.533 273.403 99.8425C273.397 99.1607 273.294 98.565 273.093 98.0554C272.893 97.5458 272.601 97.1498 272.22 96.8676C271.838 96.5855 271.368 96.4468 270.81 96.4517C270.235 96.4567 269.756 96.61 269.376 96.9116C268.995 97.2133 268.708 97.6228 268.517 98.1401C268.33 98.6573 268.239 99.2398 268.245 99.8875C268.25 100.544 268.353 101.133 268.554 101.656C268.755 102.178 269.048 102.591 269.434 102.894C269.825 103.193 270.303 103.341 270.87 103.336ZM280.523 102.9L280.433 103.597C280.374 104.109 280.27 104.643 280.121 105.198C279.977 105.758 279.826 106.277 279.668 106.755C279.515 107.234 279.388 107.614 279.288 107.897L277.933 107.908C277.986 107.644 278.06 107.285 278.154 106.833C278.248 106.384 278.34 105.883 278.429 105.328C278.517 104.773 278.583 104.208 278.625 103.632L278.682 102.916L280.523 102.9ZM295.083 97.1412L293.353 97.4631C293.279 97.2421 293.162 97.0322 293.002 96.8333C292.847 96.6344 292.637 96.4721 292.372 96.3466C292.106 96.2211 291.776 96.16 291.379 96.1635C290.838 96.1682 290.387 96.2936 290.027 96.5397C289.667 96.7814 289.489 97.092 289.492 97.4712C289.495 97.7993 289.619 98.0625 289.863 98.2606C290.108 98.4588 290.502 98.6194 291.044 98.7425L292.607 99.0868C293.512 99.2878 294.188 99.6036 294.635 100.034C295.082 100.465 295.308 101.028 295.314 101.722C295.319 102.31 295.154 102.836 294.817 103.299C294.484 103.758 294.016 104.12 293.413 104.385C292.815 104.651 292.119 104.787 291.327 104.794C290.227 104.803 289.328 104.577 288.63 104.114C287.931 103.647 287.499 102.98 287.334 102.112L289.179 101.814C289.298 102.295 289.537 102.657 289.898 102.901C290.258 103.141 290.725 103.258 291.301 103.253C291.927 103.248 292.426 103.113 292.799 102.85C293.172 102.583 293.357 102.259 293.353 101.88C293.351 101.573 293.233 101.317 293.001 101.11C292.774 100.903 292.425 100.748 291.955 100.646L290.29 100.296C289.372 100.095 288.692 99.7688 288.249 99.3166C287.81 98.8645 287.588 98.289 287.582 97.5902C287.577 97.0106 287.734 96.5021 288.054 96.0647C288.374 95.6272 288.819 95.2845 289.388 95.0367C289.957 94.7845 290.61 94.6552 291.347 94.6488C292.408 94.6395 293.245 94.8624 293.858 95.3173C294.472 95.7679 294.88 96.3759 295.083 97.1412ZM301.578 104.704C300.657 104.712 299.852 104.508 299.162 104.092C298.473 103.676 297.935 103.091 297.549 102.336C297.163 101.581 296.966 100.696 296.957 99.6817C296.948 98.6633 297.13 97.771 297.502 97.005C297.875 96.2389 298.403 95.642 299.085 95.2141C299.767 94.7863 300.569 94.5683 301.489 94.5603C302.409 94.5523 303.215 94.7562 303.904 95.1721C304.594 95.5879 305.132 96.1756 305.518 96.935C305.904 97.6945 306.101 98.5834 306.11 99.6018C306.119 100.616 305.937 101.504 305.564 102.266C305.192 103.028 304.664 103.622 303.982 104.05C303.299 104.478 302.498 104.696 301.578 104.704ZM301.57 103.1C302.167 103.094 302.659 102.933 303.049 102.614C303.438 102.295 303.724 101.873 303.907 101.347C304.094 100.821 304.185 100.243 304.18 99.6123C304.174 98.9859 304.073 98.4115 303.877 97.889C303.685 97.3623 303.391 96.9408 302.996 96.6246C302.602 96.3085 302.106 96.153 301.509 96.1582C300.909 96.1634 300.411 96.3276 300.018 96.6506C299.629 96.9736 299.34 97.4002 299.153 97.9302C298.97 98.456 298.882 99.0321 298.887 99.6585C298.893 100.289 298.991 100.866 299.184 101.388C299.38 101.911 299.675 102.328 300.07 102.64C300.469 102.952 300.969 103.105 301.57 103.1ZM46.124 123.918L46.1374 125.452L40.5893 125.5L40.576 123.966L46.124 123.918ZM42.1829 133.771L42.0873 122.815C42.0819 122.201 42.2117 121.691 42.4766 121.284C42.7415 120.873 43.0947 120.565 43.5361 120.361C43.9775 120.152 44.4581 120.046 44.978 120.041C45.3615 120.038 45.6899 120.067 45.9631 120.128C46.2364 120.186 46.4393 120.239 46.5718 120.289L46.1379 121.84C46.0482 121.815 45.9329 121.786 45.7919 121.754C45.651 121.716 45.4804 121.699 45.2801 121.701C44.8156 121.705 44.4843 121.823 44.286 122.054C44.092 122.286 43.9969 122.619 44.0007 123.054L44.094 133.754L42.1829 133.771ZM48.1816 133.718L48.0959 123.9L50.0071 123.884L50.0927 133.702L48.1816 133.718ZM49.0479 122.377C48.7155 122.38 48.429 122.272 48.1885 122.052C47.9521 121.829 47.8326 121.561 47.8299 121.25C47.8271 120.935 47.942 120.665 48.1744 120.442C48.4111 120.214 48.6956 120.098 49.0279 120.095C49.3603 120.092 49.6447 120.203 49.881 120.427C50.1216 120.646 50.2432 120.914 50.246 121.229C50.2487 121.54 50.1317 121.809 49.8951 122.037C49.6626 122.261 49.3802 122.374 49.0479 122.377ZM54.5241 127.833L54.575 133.663L52.6638 133.679L52.5782 123.861L54.4126 123.845L54.4266 125.443L54.548 125.442C54.7693 124.92 55.1193 124.5 55.5981 124.18C56.0811 123.861 56.6912 123.698 57.4284 123.691C58.0974 123.685 58.6846 123.821 59.1899 124.098C59.6951 124.37 60.0886 124.78 60.3704 125.328C60.6522 125.875 60.7966 126.553 60.8036 127.363L60.8581 133.608L58.947 133.624L58.8945 127.61C58.8883 126.898 58.6981 126.344 58.3239 125.946C57.9496 125.545 57.4386 125.347 56.7909 125.352C56.3477 125.356 55.9544 125.456 55.6109 125.65C55.2717 125.845 55.0036 126.129 54.8065 126.501C54.6137 126.869 54.5196 127.313 54.5241 127.833ZM67.0982 133.745C66.3056 133.752 65.5965 133.556 64.9708 133.156C64.3494 132.753 63.8585 132.175 63.4983 131.424C63.1422 130.669 62.9596 129.76 62.9503 128.699C62.9411 127.638 63.11 126.729 63.4571 125.972C63.8084 125.214 64.2934 124.633 64.9121 124.227C65.5307 123.821 66.2342 123.614 67.0225 123.607C67.6319 123.602 68.1228 123.7 68.4953 123.901C68.872 124.098 69.1639 124.33 69.3707 124.597C69.5819 124.864 69.7459 125.099 69.8627 125.302L69.9778 125.301L69.9353 120.437L71.8465 120.42L71.9607 133.511L70.0943 133.527L70.081 131.999L69.9212 132.001C69.8079 132.211 69.6438 132.451 69.4288 132.721C69.2181 132.991 68.9262 133.228 68.5529 133.432C68.1797 133.635 67.6948 133.74 67.0982 133.745ZM67.5058 132.111C68.0555 132.107 68.5187 131.958 68.8955 131.665C69.2764 131.367 69.5626 130.958 69.7541 130.436C69.9498 129.915 70.0447 129.309 70.0387 128.618C70.0327 127.936 69.9295 127.341 69.729 126.831C69.5285 126.322 69.2374 125.926 68.8557 125.643C68.474 125.361 68.004 125.223 67.4458 125.227C66.8705 125.232 66.3924 125.386 66.0115 125.687C65.6306 125.989 65.3444 126.399 65.1529 126.916C64.9656 127.433 64.8748 128.016 64.8805 128.663C64.8862 129.32 64.9894 129.909 65.19 130.431C65.3905 130.954 65.6839 131.367 66.0701 131.67C66.4605 131.969 66.9391 132.116 67.5058 132.111ZM81.5804 133.427L78.6056 123.634L80.5807 123.617L82.5675 130.81L82.6634 130.809L84.5308 123.583L86.5059 123.565L88.486 130.727L88.5819 130.726L90.4304 123.531L92.4055 123.514L89.6085 133.357L87.659 133.374L85.6029 126.303L85.4558 126.304L83.5235 133.41L81.5804 133.427ZM97.1639 133.508C96.5417 133.514 95.9782 133.403 95.4734 133.178C94.9686 132.948 94.5672 132.612 94.2693 132.172C93.9757 131.731 93.826 131.189 93.8204 130.546C93.8156 129.992 93.9181 129.535 94.1281 129.175C94.338 128.815 94.6232 128.529 94.9835 128.317C95.3439 128.106 95.7474 127.944 96.1939 127.834C96.6404 127.723 97.0956 127.639 97.5596 127.579C98.147 127.506 98.6238 127.446 98.9899 127.4C99.356 127.35 99.6216 127.273 99.7869 127.17C99.9522 127.066 100.034 126.899 100.032 126.669L100.031 126.624C100.027 126.066 99.8651 125.635 99.5471 125.331C99.2334 125.027 98.7676 124.877 98.1497 124.883C97.5063 124.888 97.0004 125.036 96.6322 125.324C96.2682 125.609 96.0174 125.924 95.8798 126.271L94.0801 125.877C94.288 125.279 94.5948 124.794 95.0007 124.424C95.4108 124.05 95.8836 123.778 96.4191 123.607C96.9545 123.431 97.5183 123.341 98.1106 123.336C98.5027 123.333 98.9186 123.376 99.3583 123.466C99.8022 123.552 100.217 123.714 100.603 123.954C100.993 124.193 101.313 124.538 101.564 124.987C101.815 125.432 101.944 126.013 101.95 126.729L102.007 133.249L100.141 133.265L100.129 131.923L100.052 131.923C99.9307 132.171 99.7475 132.416 99.5024 132.657C99.2573 132.898 98.9416 133.098 98.5552 133.26C98.1688 133.421 97.705 133.503 97.1639 133.508ZM97.5659 131.971C98.0943 131.966 98.5451 131.858 98.9183 131.645C99.2957 131.433 99.581 131.158 99.774 130.82C99.9713 130.477 100.068 130.112 100.065 129.724L100.054 128.459C99.9863 128.527 99.8547 128.592 99.6592 128.654C99.468 128.711 99.2489 128.762 99.0022 128.807C98.7554 128.847 98.5149 128.885 98.2808 128.922C98.0467 128.953 97.8509 128.981 97.6935 129.003C97.3232 129.053 96.9851 129.135 96.6792 129.249C96.3777 129.362 96.1362 129.524 95.9548 129.734C95.7776 129.941 95.6905 130.214 95.6934 130.555C95.6976 131.028 95.8754 131.384 96.2269 131.624C96.5784 131.86 97.0248 131.975 97.5659 131.971ZM105.441 136.901C105.156 136.903 104.895 136.882 104.661 136.837C104.426 136.796 104.251 136.751 104.135 136.701L104.582 135.131C104.932 135.222 105.244 135.259 105.516 135.244C105.789 135.229 106.029 135.125 106.236 134.931C106.447 134.738 106.632 134.423 106.79 133.987L107.021 133.333L103.342 123.418L105.387 123.401L107.94 130.998L108.042 130.997L110.462 123.356L112.514 123.338L108.565 134.502C108.382 135.015 108.147 135.449 107.861 135.806C107.574 136.166 107.231 136.437 106.832 136.62C106.433 136.802 105.97 136.896 105.441 136.901ZM121.688 125.655L119.959 125.977C119.884 125.756 119.767 125.546 119.608 125.348C119.453 125.149 119.243 124.986 118.977 124.861C118.712 124.735 118.381 124.674 117.985 124.678C117.444 124.682 116.993 124.808 116.633 125.054C116.273 125.296 116.094 125.606 116.098 125.985C116.101 126.314 116.224 126.577 116.469 126.775C116.714 126.973 117.107 127.134 117.649 127.257L119.212 127.601C120.117 127.802 120.793 128.118 121.24 128.549C121.687 128.979 121.914 129.542 121.92 130.237C121.925 130.825 121.759 131.35 121.422 131.813C121.09 132.272 120.622 132.634 120.019 132.9C119.42 133.165 118.725 133.301 117.932 133.308C116.833 133.317 115.934 133.091 115.235 132.628C114.536 132.161 114.104 131.494 113.939 130.626L115.784 130.329C115.903 130.809 116.143 131.171 116.503 131.415C116.863 131.655 117.331 131.772 117.906 131.767C118.532 131.762 119.032 131.628 119.405 131.364C119.777 131.097 119.962 130.774 119.959 130.394C119.956 130.088 119.839 129.831 119.607 129.624C119.379 129.417 119.031 129.263 118.561 129.16L116.896 128.81C115.978 128.609 115.297 128.283 114.855 127.831C114.416 127.379 114.194 126.803 114.187 126.104C114.182 125.525 114.34 125.016 114.66 124.579C114.98 124.141 115.424 123.799 115.993 123.551C116.562 123.299 117.215 123.169 117.952 123.163C119.013 123.154 119.851 123.377 120.464 123.831C121.077 124.282 121.485 124.89 121.688 125.655ZM133.307 123.157L133.32 124.691L127.957 124.738L127.944 123.204L133.307 123.157ZM129.362 120.839L131.273 120.822L131.354 130.11C131.357 130.48 131.415 130.759 131.527 130.945C131.64 131.128 131.783 131.252 131.959 131.319C132.138 131.381 132.332 131.411 132.541 131.41C132.695 131.408 132.829 131.396 132.944 131.374C133.059 131.352 133.148 131.334 133.212 131.321L133.571 132.896C133.46 132.94 133.303 132.984 133.099 133.028C132.895 133.077 132.639 133.105 132.332 133.112C131.83 133.125 131.36 133.039 130.924 132.856C130.488 132.672 130.133 132.385 129.862 131.996C129.59 131.606 129.451 131.115 129.446 130.523L129.362 120.839ZM139.538 133.119C138.618 133.127 137.813 132.923 137.123 132.507C136.433 132.092 135.895 131.506 135.51 130.751C135.124 129.996 134.926 129.111 134.917 128.097C134.909 127.078 135.09 126.186 135.463 125.42C135.836 124.654 136.363 124.057 137.045 123.629C137.728 123.201 138.529 122.983 139.45 122.975C140.37 122.967 141.175 123.171 141.865 123.587C142.555 124.003 143.092 124.591 143.478 125.35C143.864 126.11 144.062 126.999 144.071 128.017C144.079 129.031 143.897 129.919 143.525 130.681C143.152 131.443 142.625 132.038 141.942 132.465C141.26 132.893 140.459 133.111 139.538 133.119ZM139.531 131.515C140.127 131.51 140.62 131.348 141.009 131.029C141.399 130.71 141.685 130.288 141.868 129.762C142.055 129.236 142.146 128.658 142.14 128.027C142.135 127.401 142.034 126.827 141.837 126.304C141.645 125.777 141.352 125.356 140.957 125.04C140.562 124.724 140.067 124.568 139.47 124.573C138.869 124.579 138.372 124.743 137.978 125.066C137.589 125.389 137.301 125.815 137.114 126.345C136.931 126.871 136.842 127.447 136.848 128.074C136.853 128.704 136.952 129.281 137.144 129.803C137.34 130.326 137.636 130.743 138.031 131.055C138.43 131.367 138.93 131.52 139.531 131.515ZM155.507 122.963L155.52 124.497L150.158 124.544L150.144 123.01L155.507 122.963ZM151.562 120.645L153.473 120.629L153.554 129.916C153.557 130.287 153.615 130.565 153.728 130.752C153.84 130.934 153.984 131.058 154.159 131.125C154.339 131.187 154.533 131.218 154.742 131.216C154.895 131.215 155.029 131.203 155.144 131.18C155.259 131.158 155.348 131.14 155.412 131.127L155.771 132.703C155.661 132.746 155.503 132.79 155.299 132.835C155.095 132.883 154.839 132.911 154.533 132.918C154.03 132.931 153.56 132.846 153.124 132.662C152.688 132.478 152.334 132.191 152.062 131.802C151.79 131.412 151.652 130.921 151.646 130.329L151.562 120.645ZM157.707 132.762L157.621 122.945L159.468 122.929L159.482 124.488L159.584 124.487C159.759 123.957 160.07 123.539 160.519 123.233C160.973 122.922 161.487 122.764 162.062 122.759C162.181 122.758 162.322 122.761 162.484 122.768C162.65 122.775 162.78 122.785 162.874 122.797L162.89 124.625C162.813 124.604 162.677 124.582 162.48 124.558C162.284 124.53 162.088 124.517 161.892 124.518C161.44 124.522 161.038 124.622 160.686 124.816C160.339 125.007 160.064 125.271 159.862 125.61C159.661 125.944 159.562 126.324 159.566 126.75L159.618 132.746L157.707 132.762ZM167.386 132.895C166.764 132.901 166.2 132.791 165.695 132.565C165.19 132.335 164.789 132 164.491 131.559C164.198 131.118 164.048 130.576 164.042 129.933C164.038 129.379 164.14 128.922 164.35 128.562C164.56 128.203 164.845 127.917 165.205 127.705C165.566 127.493 165.969 127.332 166.416 127.221C166.862 127.111 167.318 127.026 167.782 126.966C168.369 126.893 168.846 126.833 169.212 126.788C169.578 126.738 169.844 126.661 170.009 126.557C170.174 126.453 170.256 126.286 170.254 126.056L170.253 126.011C170.249 125.453 170.087 125.022 169.769 124.718C169.455 124.414 168.99 124.265 168.372 124.27C167.728 124.276 167.222 124.423 166.854 124.711C166.49 124.996 166.239 125.311 166.102 125.658L164.302 125.264C164.51 124.666 164.817 124.182 165.223 123.812C165.633 123.437 166.106 123.165 166.641 122.994C167.176 122.819 167.74 122.729 168.333 122.723C168.725 122.72 169.14 122.763 169.58 122.853C170.024 122.939 170.439 123.101 170.825 123.341C171.214 123.58 171.535 123.925 171.786 124.374C172.037 124.82 172.166 125.4 172.172 126.116L172.229 132.636L170.362 132.652L170.351 131.31L170.274 131.31C170.153 131.559 169.969 131.803 169.724 132.044C169.479 132.285 169.164 132.486 168.777 132.647C168.391 132.808 167.927 132.891 167.386 132.895ZM167.788 131.358C168.316 131.353 168.767 131.245 169.14 131.033C169.518 130.821 169.803 130.545 169.996 130.207C170.193 129.864 170.29 129.499 170.287 129.111L170.276 127.846C170.208 127.915 170.077 127.98 169.881 128.041C169.69 128.098 169.471 128.149 169.224 128.194C168.977 128.234 168.737 128.273 168.503 128.309C168.269 128.341 168.073 128.368 167.915 128.391C167.545 128.441 167.207 128.522 166.901 128.636C166.6 128.749 166.358 128.911 166.177 129.122C165.999 129.328 165.912 129.601 165.915 129.942C165.919 130.415 166.097 130.772 166.449 131.011C166.8 131.247 167.247 131.362 167.788 131.358ZM176.635 126.768L176.686 132.597L174.774 132.614L174.689 122.796L176.523 122.78L176.537 124.378L176.659 124.377C176.88 123.855 177.23 123.434 177.709 123.115C178.192 122.795 178.802 122.632 179.539 122.626C180.208 122.62 180.795 122.755 181.3 123.032C181.806 123.305 182.199 123.715 182.481 124.262C182.763 124.809 182.907 125.488 182.914 126.297L182.969 132.542L181.058 132.559L181.005 126.544C180.999 125.832 180.809 125.278 180.434 124.881C180.06 124.479 179.549 124.281 178.901 124.287C178.458 124.291 178.065 124.39 177.722 124.585C177.382 124.779 177.114 125.063 176.917 125.435C176.724 125.804 176.63 126.248 176.635 126.768ZM192.824 125.035L191.095 125.357C191.02 125.136 190.903 124.926 190.744 124.727C190.589 124.528 190.378 124.366 190.113 124.24C189.848 124.114 189.517 124.053 189.121 124.057C188.58 124.062 188.129 124.187 187.769 124.433C187.409 124.675 187.23 124.985 187.234 125.365C187.237 125.693 187.36 125.956 187.605 126.154C187.85 126.352 188.243 126.513 188.785 126.636L190.348 126.98C191.253 127.181 191.929 127.497 192.376 127.928C192.823 128.359 193.05 128.921 193.056 129.616C193.061 130.204 192.895 130.729 192.558 131.193C192.225 131.652 191.758 132.014 191.155 132.279C190.556 132.544 189.861 132.68 189.068 132.687C187.969 132.697 187.07 132.47 186.371 132.007C185.672 131.54 185.24 130.873 185.075 130.005L186.92 129.708C187.039 130.188 187.279 130.551 187.639 130.795C187.999 131.034 188.467 131.152 189.042 131.147C189.668 131.141 190.168 131.007 190.541 130.744C190.913 130.476 191.098 130.153 191.095 129.774C191.092 129.467 190.975 129.21 190.743 129.003C190.515 128.796 190.166 128.642 189.697 128.539L188.032 128.189C187.114 127.989 186.433 127.662 185.99 127.21C185.552 126.758 185.329 126.182 185.323 125.484C185.318 124.904 185.476 124.396 185.796 123.958C186.116 123.521 186.56 123.178 187.129 122.93C187.698 122.678 188.351 122.549 189.088 122.542C190.149 122.533 190.987 122.756 191.6 123.211C192.213 123.661 192.621 124.269 192.824 125.035ZM195.182 132.435L195.096 122.618L196.931 122.602L196.945 124.2L197.066 124.199C197.266 123.656 197.597 123.231 198.058 122.924C198.52 122.613 199.075 122.455 199.723 122.449C200.379 122.444 200.93 122.592 201.376 122.895C201.826 123.198 202.16 123.617 202.378 124.152L202.48 124.151C202.71 123.625 203.079 123.204 203.587 122.889C204.096 122.569 204.704 122.406 205.411 122.4C206.302 122.392 207.031 122.665 207.598 123.218C208.17 123.771 208.461 124.61 208.47 125.735L208.528 132.319L206.617 132.336L206.561 125.931C206.555 125.266 206.37 124.786 206.005 124.491C205.64 124.196 205.206 124.051 204.704 124.055C204.081 124.061 203.599 124.257 203.258 124.643C202.916 125.025 202.747 125.515 202.753 126.111L202.807 132.369L200.903 132.386L200.846 125.859C200.841 125.327 200.671 124.9 200.336 124.579C200.001 124.258 199.567 124.1 199.034 124.105C198.672 124.108 198.338 124.207 198.033 124.401C197.732 124.591 197.489 124.855 197.305 125.194C197.125 125.532 197.036 125.923 197.04 126.366L197.093 132.419L195.182 132.435ZM211.089 132.297L211.004 122.479L212.915 122.462L213.001 132.28L211.089 132.297ZM211.956 120.956C211.623 120.958 211.337 120.85 211.096 120.631C210.86 120.407 210.74 120.139 210.738 119.828C210.735 119.513 210.85 119.244 211.082 119.02C211.319 118.792 211.603 118.677 211.936 118.674C212.268 118.671 212.553 118.781 212.789 119.005C213.029 119.225 213.151 119.492 213.154 119.807C213.157 120.118 213.04 120.388 212.803 120.616C212.57 120.839 212.288 120.953 211.956 120.956ZM220.069 122.4L220.082 123.934L214.72 123.981L214.706 122.447L220.069 122.4ZM216.124 120.082L218.035 120.065L218.116 129.352C218.119 129.723 218.177 130.002 218.29 130.188C218.402 130.371 218.546 130.495 218.721 130.562C218.901 130.624 219.095 130.654 219.304 130.652C219.457 130.651 219.591 130.639 219.706 130.617C219.821 130.595 219.91 130.577 219.974 130.563L220.333 132.139C220.222 132.183 220.065 132.227 219.861 132.271C219.657 132.32 219.401 132.348 219.095 132.355C218.592 132.368 218.122 132.282 217.686 132.098C217.25 131.915 216.896 131.628 216.624 131.238C216.352 130.849 216.214 130.358 216.208 129.765L216.124 120.082ZM227.032 132.157L226.947 122.34L228.858 122.323L228.943 132.141L227.032 132.157ZM227.898 120.816C227.566 120.819 227.28 120.711 227.039 120.492C226.803 120.268 226.683 120 226.68 119.689C226.678 119.374 226.793 119.104 227.025 118.881C227.262 118.653 227.546 118.537 227.879 118.535C228.211 118.532 228.495 118.642 228.732 118.866C228.972 119.085 229.094 119.353 229.097 119.668C229.099 119.979 228.982 120.249 228.746 120.477C228.513 120.7 228.231 120.814 227.898 120.816ZM236.012 122.261L236.025 123.795L230.662 123.841L230.649 122.307L236.012 122.261ZM232.067 119.943L233.978 119.926L234.059 129.213C234.062 129.584 234.12 129.863 234.232 130.049C234.345 130.231 234.489 130.356 234.664 130.423C234.843 130.485 235.038 130.515 235.246 130.513C235.4 130.512 235.534 130.5 235.649 130.478C235.764 130.456 235.853 130.438 235.917 130.424L236.276 132C236.165 132.044 236.008 132.088 235.804 132.132C235.6 132.181 235.344 132.209 235.037 132.215C234.535 132.228 234.065 132.143 233.629 131.959C233.193 131.776 232.839 131.489 232.567 131.099C232.295 130.71 232.156 130.219 232.151 129.626L232.067 119.943ZM245.834 132.211C245.212 132.216 244.648 132.106 244.144 131.88C243.639 131.65 243.237 131.315 242.939 130.874C242.646 130.434 242.496 129.892 242.491 129.248C242.486 128.694 242.588 128.238 242.798 127.878C243.008 127.518 243.293 127.232 243.654 127.02C244.014 126.808 244.417 126.647 244.864 126.536C245.31 126.426 245.766 126.341 246.23 126.282C246.817 126.208 247.294 126.149 247.66 126.103C248.026 126.053 248.292 125.976 248.457 125.872C248.622 125.769 248.704 125.602 248.702 125.372L248.702 125.327C248.697 124.769 248.535 124.337 248.217 124.033C247.904 123.729 247.438 123.58 246.82 123.585C246.176 123.591 245.671 123.738 245.302 124.027C244.938 124.311 244.687 124.627 244.55 124.973L242.75 124.58C242.958 123.981 243.265 123.497 243.671 123.127C244.081 122.753 244.554 122.48 245.089 122.309C245.625 122.134 246.188 122.044 246.781 122.039C247.173 122.035 247.589 122.079 248.028 122.168C248.472 122.254 248.887 122.417 249.273 122.656C249.663 122.896 249.983 123.24 250.234 123.69C250.485 124.135 250.614 124.716 250.62 125.432L250.677 131.951L248.811 131.967L248.799 130.625L248.722 130.626C248.601 130.874 248.418 131.119 248.173 131.359C247.927 131.6 247.612 131.801 247.225 131.962C246.839 132.123 246.375 132.206 245.834 132.211ZM246.236 130.673C246.764 130.668 247.215 130.56 247.588 130.348C247.966 130.136 248.251 129.861 248.444 129.522C248.641 129.18 248.738 128.815 248.735 128.427L248.724 127.161C248.656 127.23 248.525 127.295 248.329 127.356C248.138 127.413 247.919 127.464 247.672 127.509C247.425 127.55 247.185 127.588 246.951 127.624C246.717 127.656 246.521 127.683 246.364 127.706C245.993 127.756 245.655 127.838 245.349 127.951C245.048 128.065 244.806 128.227 244.625 128.437C244.448 128.643 244.361 128.917 244.364 129.258C244.368 129.731 244.546 130.087 244.897 130.327C245.249 130.562 245.695 130.678 246.236 130.673ZM257.72 122.071L257.733 123.605L252.371 123.652L252.357 122.118L257.72 122.071ZM253.775 119.753L255.686 119.737L255.767 129.024C255.77 129.395 255.828 129.673 255.94 129.86C256.053 130.042 256.197 130.166 256.372 130.233C256.552 130.295 256.746 130.326 256.954 130.324C257.108 130.323 257.242 130.311 257.357 130.288C257.472 130.266 257.561 130.248 257.625 130.235L257.984 131.811C257.873 131.854 257.716 131.898 257.512 131.943C257.308 131.991 257.052 132.019 256.746 132.026C256.243 132.039 255.773 131.954 255.337 131.77C254.901 131.586 254.547 131.299 254.275 130.91C254.003 130.52 253.864 130.029 253.859 129.437L253.775 119.753ZM268.916 131.99C267.949 131.999 267.114 131.799 266.412 131.392C265.713 130.98 265.171 130.399 264.786 129.648C264.404 128.893 264.209 128.006 264.2 126.988C264.191 125.982 264.371 125.094 264.739 124.324C265.112 123.554 265.635 122.95 266.309 122.514C266.987 122.078 267.782 121.855 268.693 121.848C269.247 121.843 269.785 121.93 270.307 122.108C270.828 122.287 271.297 122.571 271.714 122.959C272.131 123.347 272.461 123.854 272.705 124.478C272.949 125.098 273.075 125.853 273.083 126.744L273.089 127.422L265.284 127.49L265.272 126.058L271.204 126.006C271.199 125.503 271.093 125.059 270.885 124.673C270.677 124.283 270.387 123.976 270.014 123.754C269.646 123.531 269.214 123.422 268.72 123.426C268.183 123.431 267.716 123.567 267.317 123.835C266.923 124.098 266.619 124.442 266.406 124.865C266.196 125.285 266.094 125.74 266.098 126.23L266.108 127.348C266.114 128.005 266.233 128.562 266.468 129.02C266.706 129.478 267.035 129.827 267.455 130.066C267.874 130.301 268.363 130.416 268.922 130.411C269.284 130.408 269.614 130.354 269.911 130.249C270.208 130.14 270.465 129.98 270.68 129.769C270.896 129.559 271.06 129.299 271.172 128.992L272.984 129.302C272.844 129.836 272.588 130.305 272.216 130.708C271.849 131.108 271.385 131.421 270.825 131.647C270.268 131.87 269.632 131.984 268.916 131.99ZM283.279 121.848L279.805 131.697L277.759 131.715L274.107 121.928L276.159 121.91L278.711 129.444L278.813 129.443L281.227 121.866L283.279 121.848ZM289.06 131.814C288.093 131.823 287.258 131.623 286.555 131.216C285.857 130.805 285.315 130.223 284.929 129.472C284.548 128.717 284.352 127.83 284.344 126.812C284.335 125.806 284.515 124.918 284.883 124.148C285.255 123.378 285.779 122.774 286.452 122.338C287.13 121.902 287.925 121.68 288.837 121.672C289.391 121.667 289.929 121.754 290.45 121.933C290.972 122.111 291.441 122.395 291.858 122.783C292.274 123.172 292.605 123.678 292.849 124.302C293.093 124.922 293.219 125.678 293.227 126.568L293.233 127.246L285.428 127.314L285.416 125.882L291.347 125.83C291.343 125.328 291.237 124.883 291.029 124.497C290.821 124.107 290.531 123.801 290.158 123.578C289.789 123.355 289.358 123.246 288.864 123.25C288.327 123.255 287.859 123.391 287.461 123.659C287.067 123.922 286.763 124.266 286.55 124.69C286.34 125.109 286.238 125.564 286.242 126.054L286.252 127.172C286.257 127.829 286.377 128.386 286.611 128.844C286.85 129.302 287.179 129.651 287.599 129.89C288.018 130.125 288.507 130.24 289.065 130.235C289.428 130.232 289.757 130.178 290.055 130.073C290.352 129.964 290.609 129.804 290.824 129.594C291.04 129.383 291.203 129.124 291.316 128.816L293.128 129.126C292.987 129.66 292.731 130.129 292.36 130.533C291.993 130.932 291.529 131.245 290.968 131.472C290.412 131.694 289.776 131.808 289.06 131.814ZM295.391 131.561L295.305 121.743L297.152 121.727L297.166 123.287L297.268 123.286C297.443 122.756 297.754 122.338 298.203 122.031C298.657 121.72 299.171 121.562 299.746 121.557C299.866 121.556 300.006 121.559 300.168 121.566C300.334 121.574 300.465 121.583 300.558 121.595L300.574 123.423C300.497 123.402 300.361 123.38 300.165 123.356C299.968 123.328 299.772 123.315 299.576 123.317C299.125 123.321 298.723 123.42 298.371 123.615C298.023 123.805 297.748 124.07 297.547 124.408C297.345 124.742 297.246 125.123 297.25 125.549L297.302 131.544L295.391 131.561ZM303.838 135.169C303.552 135.172 303.292 135.151 303.057 135.106C302.823 135.065 302.648 135.02 302.532 134.97L302.979 133.4C303.329 133.49 303.64 133.528 303.913 133.513C304.185 133.498 304.425 133.393 304.632 133.2C304.844 133.006 305.029 132.691 305.187 132.255L305.418 131.601L301.739 121.687L303.784 121.669L306.337 129.266L306.439 129.266L308.859 121.625L310.911 121.607L306.962 132.77C306.779 133.283 306.544 133.718 306.257 134.074C305.971 134.435 305.628 134.706 305.229 134.889C304.83 135.071 304.366 135.165 303.838 135.169ZM43.5698 147.668L43.6841 160.759L41.7729 160.775L41.6587 147.685L43.5698 147.668ZM50.4883 160.897C49.521 160.906 48.6861 160.706 47.9837 160.299C47.2855 159.888 46.7434 159.306 46.3576 158.555C45.976 157.8 45.7808 156.913 45.7719 155.895C45.7631 154.889 45.9429 154.001 46.3111 153.231C46.6837 152.461 47.2069 151.857 47.8806 151.421C48.5587 150.985 49.3536 150.763 50.2655 150.755C50.8195 150.75 51.3572 150.837 51.8787 151.016C52.4001 151.194 52.8692 151.478 53.286 151.866C53.7028 152.255 54.0332 152.761 54.2773 153.385C54.5213 154.005 54.6473 154.761 54.655 155.651L54.6609 156.329L46.8565 156.397L46.8441 154.965L52.7756 154.913C52.7713 154.411 52.6651 153.966 52.4572 153.58C52.2492 153.19 51.9589 152.884 51.5862 152.661C51.2178 152.438 50.7864 152.329 50.2921 152.333C49.7552 152.338 49.2876 152.474 48.8894 152.742C48.4953 153.005 48.1915 153.349 47.9779 153.773C47.7684 154.192 47.6659 154.647 47.6702 155.137L47.6799 156.255C47.6856 156.912 47.8056 157.469 48.0397 157.927C48.2781 158.385 48.6071 158.734 49.0268 158.973C49.4465 159.208 49.9355 159.323 50.4937 159.318C50.8559 159.315 51.1857 159.261 51.4831 159.156C51.7804 159.047 52.0369 158.887 52.2524 158.677C52.4679 158.466 52.6318 158.207 52.7442 157.899L54.5559 158.209C54.4157 158.743 54.1598 159.212 53.7883 159.616C53.421 160.015 52.9571 160.328 52.3966 160.555C51.8403 160.777 51.2042 160.891 50.4883 160.897ZM64.8511 150.755L61.3766 160.604L59.3312 160.622L55.6789 150.835L57.7307 150.817L60.283 158.351L60.3853 158.35L62.7994 150.773L64.8511 150.755ZM70.632 160.722C69.6648 160.73 68.8299 160.531 68.1274 160.123C67.4292 159.712 66.8872 159.131 66.5014 158.38C66.1198 157.624 65.9245 156.738 65.9156 155.719C65.9069 154.714 66.0866 153.826 66.4549 153.055C66.8275 152.285 67.3506 151.682 68.0244 151.245C68.7024 150.809 69.4974 150.587 70.4093 150.579C70.9633 150.574 71.501 150.661 72.0224 150.84C72.5439 151.018 73.013 151.302 73.4298 151.69C73.8465 152.079 74.1769 152.585 74.421 153.21C74.6651 153.83 74.791 154.585 74.7988 155.475L74.8047 156.153L67.0003 156.221L66.9878 154.789L72.9194 154.738C72.915 154.235 72.8089 153.79 72.6009 153.404C72.393 153.014 72.1027 152.708 71.73 152.485C71.3615 152.262 70.9302 152.153 70.4359 152.158C69.8989 152.162 69.4314 152.298 69.0331 152.566C68.6391 152.83 68.3353 153.173 68.1216 153.597C67.9122 154.016 67.8096 154.471 67.8139 154.961L67.8237 156.08C67.8294 156.736 67.9493 157.293 68.1835 157.751C68.4218 158.21 68.7509 158.558 69.1706 158.797C69.5903 159.032 70.0792 159.147 70.6374 159.143C70.9996 159.139 71.3294 159.085 71.6268 158.981C71.9242 158.871 72.1806 158.712 72.3961 158.501C72.6116 158.29 72.7756 158.031 72.8879 157.723L74.6997 158.033C74.5594 158.567 74.3036 159.036 73.9321 159.44C73.5648 159.839 73.1009 160.152 72.5404 160.379C71.984 160.601 71.3479 160.715 70.632 160.722ZM78.7599 147.361L78.8741 160.451L76.963 160.468L76.8488 147.378L78.7599 147.361ZM86.2087 160.387L86.1231 150.57L88.0342 150.553L88.1199 160.371L86.2087 160.387ZM87.075 149.046C86.7426 149.049 86.4562 148.941 86.2156 148.721C85.9793 148.498 85.8597 148.23 85.857 147.919C85.8543 147.604 85.9691 147.334 86.2015 147.111C86.4382 146.883 86.7227 146.767 87.0551 146.765C87.3875 146.762 87.6718 146.872 87.9082 147.096C88.1487 147.315 88.2704 147.583 88.2731 147.898C88.2758 148.209 88.1589 148.479 87.9222 148.707C87.6898 148.93 87.4074 149.043 87.075 149.046ZM92.5513 154.502L92.6021 160.332L90.691 160.348L90.6053 150.531L92.4398 150.515L92.4537 152.112L92.5751 152.111C92.7965 151.59 93.1465 151.169 93.6253 150.849C94.1083 150.53 94.7184 150.367 95.4556 150.36C96.1246 150.355 96.7117 150.49 97.217 150.767C97.7222 151.039 98.1157 151.449 98.3975 151.997C98.6793 152.544 98.8237 153.222 98.8308 154.032L98.8853 160.277L96.9741 160.294L96.9216 154.279C96.9154 153.567 96.7252 153.013 96.351 152.615C95.9767 152.214 95.4658 152.016 94.8181 152.022C94.3749 152.025 93.9816 152.125 93.6381 152.319C93.2989 152.514 93.0307 152.798 92.8337 153.17C92.6409 153.538 92.5467 153.982 92.5513 154.502ZM107.452 163.884C107.167 163.887 106.906 163.865 106.672 163.821C106.437 163.78 106.262 163.735 106.146 163.684L106.593 162.114C106.943 162.205 107.254 162.243 107.527 162.228C107.8 162.213 108.04 162.108 108.247 161.915C108.458 161.721 108.643 161.406 108.801 160.97L109.032 160.316L105.353 150.402L107.398 150.384L109.951 157.981L110.053 157.98L112.473 150.34L114.525 150.322L110.576 161.485C110.393 161.998 110.158 162.433 109.872 162.789C109.585 163.149 109.242 163.421 108.843 163.603C108.444 163.786 107.98 163.879 107.452 163.884ZM120.21 160.289C119.29 160.297 118.485 160.093 117.795 159.677C117.105 159.261 116.567 158.676 116.181 157.921C115.796 157.165 115.598 156.281 115.589 155.267C115.58 154.248 115.762 153.356 116.135 152.59C116.507 151.824 117.035 151.227 117.717 150.799C118.4 150.371 119.201 150.153 120.122 150.145C121.042 150.137 121.847 150.341 122.537 150.757C123.227 151.173 123.764 151.76 124.15 152.52C124.536 153.279 124.734 154.168 124.742 155.187C124.751 156.201 124.569 157.089 124.197 157.851C123.824 158.612 123.297 159.207 122.614 159.635C121.932 160.063 121.13 160.281 120.21 160.289ZM120.202 158.685C120.799 158.679 121.292 158.517 121.681 158.199C122.07 157.88 122.357 157.458 122.54 156.932C122.727 156.406 122.818 155.828 122.812 155.197C122.807 154.571 122.706 153.996 122.509 153.474C122.317 152.947 122.024 152.526 121.629 152.209C121.234 151.893 120.738 151.738 120.142 151.743C119.541 151.748 119.044 151.912 118.65 152.235C118.261 152.558 117.973 152.985 117.786 153.515C117.603 154.041 117.514 154.617 117.52 155.243C117.525 155.874 117.624 156.451 117.816 156.973C118.012 157.495 118.308 157.913 118.703 158.225C119.102 158.536 119.602 158.69 120.202 158.685ZM133.102 155.906L133.052 150.16L134.969 150.143L135.055 159.961L133.176 159.978L133.161 158.277L133.059 158.278C132.837 158.804 132.479 159.244 131.983 159.598C131.492 159.948 130.878 160.125 130.141 160.132C129.51 160.137 128.951 160.004 128.462 159.731C127.978 159.454 127.596 159.042 127.314 158.495C127.036 157.947 126.894 157.269 126.887 156.459L126.832 150.214L128.744 150.198L128.796 156.212C128.802 156.881 128.992 157.412 129.366 157.806C129.74 158.199 130.224 158.393 130.816 158.387C131.174 158.384 131.529 158.292 131.881 158.11C132.237 157.927 132.531 157.654 132.762 157.29C132.998 156.926 133.111 156.465 133.102 155.906ZM137.623 159.939L137.537 150.121L139.384 150.105L139.398 151.664L139.5 151.664C139.675 151.134 139.986 150.715 140.435 150.409C140.889 150.098 141.403 149.94 141.978 149.935C142.097 149.934 142.238 149.937 142.4 149.944C142.566 149.951 142.696 149.961 142.79 149.973L142.806 151.801C142.729 151.78 142.593 151.758 142.397 151.734C142.2 151.706 142.004 151.693 141.808 151.695C141.356 151.699 140.955 151.798 140.603 151.993C140.255 152.183 139.98 152.448 139.778 152.786C139.577 153.12 139.478 153.5 139.482 153.927L139.534 159.922L137.623 159.939ZM153.431 159.999C152.511 160.007 151.706 159.803 151.016 159.387C150.326 158.971 149.789 158.386 149.403 157.631C149.017 156.875 148.82 155.991 148.811 154.977C148.802 153.958 148.984 153.066 149.356 152.3C149.729 151.534 150.256 150.937 150.939 150.509C151.621 150.081 152.423 149.863 153.343 149.855C154.263 149.847 155.068 150.051 155.758 150.467C156.448 150.883 156.986 151.47 157.372 152.23C157.758 152.989 157.955 153.878 157.964 154.897C157.973 155.911 157.791 156.799 157.418 157.561C157.046 158.323 156.518 158.917 155.836 159.345C155.153 159.773 154.352 159.991 153.431 159.999ZM153.424 158.395C154.02 158.389 154.513 158.227 154.903 157.909C155.292 157.59 155.578 157.168 155.761 156.642C155.948 156.116 156.039 155.538 156.033 154.907C156.028 154.281 155.927 153.706 155.731 153.184C155.539 152.657 155.245 152.236 154.85 151.92C154.456 151.603 153.96 151.448 153.363 151.453C152.762 151.458 152.265 151.622 151.872 151.946C151.483 152.269 151.194 152.695 151.007 153.225C150.824 153.751 150.736 154.327 150.741 154.953C150.747 155.584 150.845 156.161 151.037 156.683C151.234 157.206 151.529 157.623 151.924 157.935C152.323 158.247 152.823 158.4 153.424 158.395ZM160.14 159.742L160.054 149.924L161.901 149.908L161.915 151.468L162.017 151.467C162.191 150.937 162.503 150.519 162.952 150.212C163.405 149.902 163.92 149.744 164.495 149.739C164.614 149.738 164.755 149.741 164.917 149.748C165.083 149.755 165.213 149.764 165.307 149.776L165.323 151.604C165.246 151.584 165.11 151.562 164.913 151.538C164.717 151.51 164.521 151.496 164.325 151.498C163.873 151.502 163.471 151.601 163.119 151.796C162.772 151.987 162.497 152.251 162.295 152.59C162.094 152.924 161.995 153.304 161.998 153.73L162.051 159.726L160.14 159.742ZM170.846 163.535C170.066 163.542 169.394 163.446 168.83 163.246C168.27 163.046 167.812 162.78 167.455 162.446C167.098 162.113 166.831 161.746 166.653 161.347L168.29 160.656C168.406 160.842 168.561 161.039 168.755 161.246C168.953 161.457 169.219 161.636 169.552 161.782C169.89 161.929 170.323 161.999 170.852 161.995C171.576 161.988 172.173 161.806 172.643 161.449C173.113 161.095 173.345 160.535 173.338 159.768L173.321 157.837L173.2 157.838C173.087 158.048 172.923 158.282 172.707 158.54C172.497 158.797 172.205 159.021 171.831 159.212C171.458 159.403 170.971 159.501 170.37 159.506C169.594 159.513 168.894 159.338 168.269 158.981C167.648 158.62 167.153 158.085 166.784 157.377C166.42 156.664 166.234 155.786 166.224 154.742C166.215 153.698 166.384 152.801 166.732 152.052C167.083 151.304 167.568 150.728 168.187 150.327C168.805 149.921 169.509 149.714 170.297 149.707C170.907 149.702 171.4 149.8 171.776 150.001C172.153 150.198 172.447 150.43 172.658 150.697C172.874 150.963 173.04 151.198 173.157 151.402L173.297 151.401L173.283 149.809L175.156 149.793L175.244 159.828C175.251 160.672 175.061 161.366 174.674 161.91C174.286 162.455 173.759 162.86 173.093 163.126C172.43 163.392 171.681 163.528 170.846 163.535ZM170.778 157.917C171.328 157.912 171.791 157.78 172.168 157.521C172.549 157.258 172.836 156.885 173.028 156.402C173.224 155.914 173.319 155.332 173.313 154.654C173.307 153.994 173.204 153.413 173.004 152.912C172.803 152.411 172.512 152.021 172.13 151.743C171.749 151.461 171.279 151.322 170.72 151.327C170.145 151.332 169.667 151.486 169.286 151.787C168.905 152.085 168.619 152.488 168.427 152.996C168.24 153.505 168.149 154.073 168.155 154.699C168.16 155.343 168.263 155.906 168.463 156.39C168.664 156.874 168.957 157.251 169.343 157.521C169.733 157.79 170.211 157.922 170.778 157.917ZM180.664 159.781C180.042 159.786 179.478 159.676 178.973 159.45C178.469 159.22 178.067 158.885 177.769 158.444C177.476 158.004 177.326 157.462 177.32 156.818C177.316 156.264 177.418 155.807 177.628 155.447C177.838 155.088 178.123 154.802 178.484 154.59C178.844 154.378 179.247 154.217 179.694 154.106C180.14 153.996 180.596 153.911 181.06 153.851C181.647 153.778 182.124 153.719 182.49 153.673C182.856 153.623 183.122 153.546 183.287 153.442C183.452 153.338 183.534 153.171 183.532 152.941L183.531 152.897C183.527 152.338 183.365 151.907 183.047 151.603C182.733 151.299 182.268 151.15 181.65 151.155C181.006 151.161 180.5 151.308 180.132 151.597C179.768 151.881 179.517 152.196 179.38 152.543L177.58 152.149C177.788 151.551 178.095 151.067 178.501 150.697C178.911 150.322 179.384 150.05 179.919 149.879C180.454 149.704 181.018 149.614 181.611 149.609C182.003 149.605 182.419 149.648 182.858 149.738C183.302 149.824 183.717 149.986 184.103 150.226C184.493 150.465 184.813 150.81 185.064 151.26C185.315 151.705 185.444 152.285 185.45 153.001L185.507 159.521L183.641 159.537L183.629 158.195L183.552 158.196C183.431 158.444 183.247 158.688 183.002 158.929C182.757 159.17 182.442 159.371 182.055 159.532C181.669 159.693 181.205 159.776 180.664 159.781ZM181.066 158.243C181.594 158.238 182.045 158.13 182.418 157.918C182.796 157.706 183.081 157.43 183.274 157.092C183.471 156.75 183.568 156.384 183.565 155.997L183.554 154.731C183.486 154.8 183.355 154.865 183.159 154.926C182.968 154.983 182.749 155.034 182.502 155.079C182.255 155.119 182.015 155.158 181.781 155.194C181.547 155.226 181.351 155.253 181.193 155.276C180.823 155.326 180.485 155.408 180.179 155.521C179.878 155.635 179.636 155.796 179.455 156.007C179.278 156.213 179.19 156.486 179.193 156.827C179.198 157.3 179.375 157.657 179.727 157.897C180.078 158.132 180.525 158.248 181.066 158.243ZM189.913 153.653L189.964 159.482L188.053 159.499L187.967 149.681L189.801 149.665L189.815 151.263L189.937 151.262C190.158 150.74 190.508 150.319 190.987 150C191.47 149.68 192.08 149.517 192.817 149.511C193.486 149.505 194.073 149.64 194.579 149.917C195.084 150.19 195.477 150.6 195.759 151.147C196.041 151.694 196.185 152.373 196.192 153.182L196.247 159.427L194.336 159.444L194.283 153.429C194.277 152.718 194.087 152.163 193.713 151.766C193.338 151.364 192.827 151.166 192.18 151.172C191.736 151.176 191.343 151.275 191 151.47C190.66 151.665 190.392 151.948 190.195 152.321C190.002 152.689 189.908 153.133 189.913 153.653ZM198.81 159.405L198.724 149.587L200.635 149.57L200.721 159.388L198.81 159.405ZM199.676 148.064C199.344 148.067 199.057 147.958 198.817 147.739C198.58 147.515 198.461 147.248 198.458 146.937C198.455 146.621 198.57 146.352 198.803 146.128C199.039 145.9 199.324 145.785 199.656 145.782C199.989 145.779 200.273 145.889 200.509 146.113C200.75 146.333 200.872 146.6 200.874 146.915C200.877 147.227 200.76 147.496 200.523 147.724C200.291 147.948 200.009 148.061 199.676 148.064ZM203.088 159.367L203.076 158.057L208.335 151.255L208.334 151.165L203.189 151.21L203.175 149.548L210.704 149.482L210.716 150.876L205.661 157.594L205.662 157.683L210.954 157.637L210.969 159.299L203.088 159.367ZM216.082 159.471C215.46 159.477 214.897 159.367 214.392 159.141C213.887 158.911 213.486 158.576 213.188 158.135C212.894 157.694 212.745 157.152 212.739 156.509C212.734 155.955 212.837 155.498 213.047 155.138C213.257 154.779 213.542 154.493 213.902 154.281C214.263 154.069 214.666 153.908 215.112 153.797C215.559 153.687 216.014 153.602 216.478 153.542C217.066 153.469 217.542 153.409 217.908 153.364C218.275 153.314 218.54 153.237 218.706 153.133C218.871 153.029 218.952 152.862 218.95 152.632L218.95 152.587C218.945 152.029 218.784 151.598 218.466 151.294C218.152 150.99 217.686 150.841 217.068 150.846C216.425 150.852 215.919 150.999 215.551 151.288C215.187 151.572 214.936 151.887 214.798 152.234L212.999 151.84C213.207 151.242 213.513 150.758 213.919 150.388C214.329 150.013 214.802 149.741 215.338 149.57C215.873 149.395 216.437 149.305 217.029 149.299C217.421 149.296 217.837 149.339 218.277 149.429C218.721 149.515 219.136 149.677 219.521 149.917C219.911 150.156 220.232 150.501 220.483 150.95C220.734 151.396 220.862 151.976 220.869 152.692L220.926 159.212L219.059 159.228L219.047 157.886L218.971 157.886C218.849 158.135 218.666 158.379 218.421 158.62C218.176 158.861 217.86 159.062 217.474 159.223C217.087 159.384 216.624 159.467 216.082 159.471ZM216.485 157.934C217.013 157.929 217.464 157.821 217.837 157.609C218.214 157.397 218.5 157.121 218.693 156.783C218.89 156.44 218.987 156.075 218.983 155.687L218.972 154.422C218.905 154.491 218.773 154.556 218.578 154.617C218.387 154.674 218.168 154.725 217.921 154.77C217.674 154.81 217.434 154.849 217.199 154.885C216.965 154.917 216.77 154.944 216.612 154.967C216.242 155.017 215.904 155.099 215.598 155.212C215.296 155.325 215.055 155.487 214.873 155.698C214.696 155.904 214.609 156.177 214.612 156.518C214.616 156.991 214.794 157.348 215.146 157.587C215.497 157.823 215.943 157.938 216.485 157.934ZM227.968 149.332L227.982 150.866L222.619 150.913L222.606 149.379L227.968 149.332ZM224.023 147.014L225.934 146.997L226.015 156.284C226.019 156.655 226.076 156.934 226.189 157.12C226.301 157.303 226.445 157.427 226.62 157.494C226.8 157.556 226.994 157.586 227.203 157.585C227.356 157.583 227.49 157.571 227.605 157.549C227.72 157.527 227.81 157.509 227.873 157.496L228.232 159.071C228.122 159.115 227.965 159.159 227.76 159.203C227.556 159.252 227.301 159.28 226.994 159.287C226.491 159.3 226.022 159.214 225.586 159.031C225.149 158.847 224.795 158.56 224.523 158.17C224.251 157.781 224.113 157.29 224.108 156.697L224.023 147.014ZM230.168 159.131L230.082 149.313L231.994 149.297L232.079 159.114L230.168 159.131ZM231.034 147.79C230.702 147.793 230.416 147.685 230.175 147.465C229.939 147.241 229.819 146.974 229.816 146.663C229.814 146.348 229.928 146.078 230.161 145.854C230.398 145.627 230.682 145.511 231.014 145.508C231.347 145.505 231.631 145.616 231.868 145.84C232.108 146.059 232.23 146.326 232.232 146.642C232.235 146.953 232.118 147.222 231.882 147.45C231.649 147.674 231.367 147.787 231.034 147.79ZM238.788 159.254C237.867 159.262 237.062 159.058 236.372 158.642C235.683 158.226 235.145 157.641 234.759 156.886C234.373 156.131 234.176 155.246 234.167 154.232C234.158 153.213 234.34 152.321 234.712 151.555C235.085 150.789 235.612 150.192 236.295 149.764C236.977 149.336 237.779 149.118 238.699 149.11C239.619 149.102 240.425 149.306 241.114 149.722C241.804 150.138 242.342 150.726 242.728 151.485C243.114 152.244 243.311 153.133 243.32 154.152C243.329 155.166 243.147 156.054 242.774 156.816C242.402 157.578 241.874 158.172 241.192 158.6C240.509 159.028 239.708 159.246 238.788 159.254ZM238.78 157.65C239.377 157.644 239.869 157.483 240.259 157.164C240.648 156.845 240.934 156.423 241.117 155.897C241.304 155.371 241.395 154.793 241.39 154.162C241.384 153.536 241.283 152.961 241.087 152.439C240.895 151.912 240.601 151.491 240.206 151.175C239.812 150.858 239.316 150.703 238.719 150.708C238.119 150.713 237.621 150.878 237.228 151.201C236.839 151.524 236.55 151.95 236.363 152.48C236.18 153.006 236.092 153.582 236.097 154.208C236.103 154.839 236.201 155.416 236.393 155.938C236.59 156.461 236.885 156.878 237.28 157.19C237.679 157.502 238.179 157.655 238.78 157.65ZM247.356 153.151L247.407 158.981L245.496 158.997L245.41 149.18L247.244 149.164L247.258 150.762L247.38 150.76C247.601 150.239 247.951 149.818 248.43 149.498C248.913 149.179 249.523 149.016 250.26 149.009C250.929 149.004 251.516 149.139 252.022 149.416C252.527 149.689 252.92 150.098 253.202 150.646C253.484 151.193 253.628 151.871 253.635 152.681L253.69 158.926L251.779 158.943L251.726 152.928C251.72 152.216 251.53 151.662 251.156 151.264C250.781 150.863 250.27 150.665 249.623 150.671C249.18 150.674 248.786 150.774 248.443 150.969C248.104 151.163 247.835 151.447 247.638 151.819C247.446 152.188 247.351 152.632 247.356 153.151Z" fill="#5C3D84"/>
<g filter="url(#filter0_f_15_78)">
<rect x="21.2263" y="181.082" width="330" height="10" transform="rotate(2.5 21.2263 181.082)" fill="black" fill-opacity="0.1"/>
</g>
<g filter="url(#filter1_f_15_78)">
<rect x="20.7247" y="187.96" width="330" height="10" transform="rotate(-0.5 20.7247 187.96)" fill="black" fill-opacity="0.1"/>
</g>
<rect x="10.5504" y="168.048" width="350" height="30" transform="rotate(-0.5 10.5504 168.048)" fill="#E0C8FF"/>
<defs>
<filter id="filter0_f_15_78" x="10.7901" y="171.082" width="350.122" height="44.3849" filterUnits="userSpaceOnUse" color-interpolation-filters="sRGB">
<feFlood flood-opacity="0" result="BackgroundImageFix"/>
<feBlend mode="normal" in="SourceGraphic" in2="BackgroundImageFix" result="shape"/>
<feGaussianBlur stdDeviation="5" result="effect1_foregroundBlur_15_78"/>
</filter>
<filter id="filter1_f_15_78" x="0.72467" y="165.08" width="370.075" height="52.8794" filterUnits="userSpaceOnUse" color-interpolation-filters="sRGB">
<feFlood flood-opacity="0" result="BackgroundImageFix"/>
<feBlend mode="normal" in="SourceGraphic" in2="BackgroundImageFix" result="shape"/>
<feGaussianBlur stdDeviation="10" result="effect1_foregroundBlur_15_78"/>
</filter>
</defs>
</svg>
