<svg width="308" height="248" viewBox="0 0 308 248" fill="none" xmlns="http://www.w3.org/2000/svg">
<rect width="283" height="192" transform="translate(14.0324) rotate(0.5)" fill="#FFF6C8"/>
<path d="M56.3569 41.8631L53.5573 41.8387C53.5093 41.476 53.4078 41.1534 53.2525 40.8708C53.0974 40.5839 52.8971 40.3393 52.6517 40.1368C52.4063 39.9344 52.1221 39.7785 51.7992 39.6691C51.4805 39.5598 51.1337 39.5035 50.7587 39.5003C50.0812 39.4943 49.4895 39.6575 48.9838 39.9898C48.4781 40.3177 48.0839 40.8001 47.8014 41.4369C47.5189 42.0694 47.3736 42.8395 47.3657 43.7471C47.3576 44.6803 47.4892 45.4656 47.7607 46.1029C48.0363 46.7403 48.4242 47.2231 48.9242 47.5513C49.4242 47.8796 50.0044 48.0466 50.6649 48.0523C51.0356 48.0556 51.3791 48.0095 51.6953 47.9143C52.0157 47.8191 52.3003 47.6788 52.5491 47.4935C52.7979 47.3039 53.0045 47.0734 53.1688 46.8021C53.3374 46.5308 53.4552 46.2208 53.5221 45.8719L56.3216 45.9091C56.2439 46.5093 56.0578 47.0873 55.7631 47.643C55.4728 48.1944 55.0828 48.6875 54.5932 49.1222C54.1079 49.5526 53.5296 49.8927 52.8584 50.1426C52.1915 50.3882 51.4383 50.5073 50.5988 50.5C49.4312 50.4898 48.3895 50.2165 47.4737 49.6801C46.5622 49.1437 45.8445 48.3725 45.3206 47.3665C44.8009 46.3605 44.5473 45.1458 44.5597 43.7226C44.5722 42.2951 44.8512 41.083 45.3969 40.0863C45.9425 39.0896 46.6778 38.3332 47.6028 37.8171C48.5279 37.2968 49.5656 37.0416 50.7162 37.0516C51.4747 37.0583 52.1768 37.1709 52.8227 37.3896C53.4728 37.6084 54.0475 37.9245 54.5467 38.338C55.046 38.7472 55.4507 39.2472 55.7609 39.838C56.0754 40.4288 56.2741 41.1038 56.3569 41.8631ZM62.6504 50.618C61.6576 50.6093 60.8008 50.3909 60.0801 49.9627C59.3636 49.5303 58.8127 48.9331 58.4273 48.1712C58.0419 47.405 57.8536 46.5191 57.8624 45.5135C57.8713 44.4993 58.075 43.6147 58.4737 42.8596C58.8724 42.1003 59.4336 41.5128 60.1574 41.0973C60.8856 40.6775 61.746 40.4719 62.7389 40.4806C63.7318 40.4892 64.5864 40.7098 65.3028 41.1422C66.0236 41.5703 66.5766 42.1675 66.962 42.9337C67.3474 43.6956 67.5357 44.5836 67.5268 45.5978C67.518 46.6035 67.3143 47.4859 66.9156 48.2453C66.517 49.0004 65.9536 49.5878 65.2255 50.0076C64.5016 50.4232 63.6433 50.6266 62.6504 50.618ZM62.6816 48.5088C63.1333 48.5127 63.5115 48.3882 63.8163 48.1351C64.1211 47.8778 64.3522 47.5261 64.5095 47.0801C64.6711 46.634 64.7544 46.1255 64.7593 45.5545C64.7643 44.9835 64.6899 44.4736 64.5362 44.0248C64.3867 43.576 64.1618 43.2203 63.8615 42.9578C63.5612 42.6952 63.1852 42.5619 62.7336 42.558C62.2776 42.554 61.893 42.6806 61.5796 42.9379C61.2706 43.1951 61.0352 43.5468 60.8737 43.9928C60.7164 44.4389 60.6352 44.9475 60.6302 45.5185C60.6252 46.0895 60.6975 46.5993 60.847 47.0481C61.0008 47.4969 61.2299 47.8526 61.5345 48.1152C61.8433 48.3736 62.2257 48.5048 62.6816 48.5088ZM72.8712 50.6752C72.1255 50.6687 71.4518 50.471 70.85 50.0822C70.2526 49.6892 69.7803 49.1162 69.4332 48.3631C69.0903 47.6059 68.9237 46.6796 68.9332 45.5845C68.9431 44.4596 69.1323 43.5258 69.501 42.7833C69.8698 42.0364 70.3562 41.4803 70.9602 41.1148C71.5686 40.7451 72.2329 40.5634 72.953 40.5697C73.5027 40.5745 73.96 40.6722 74.3248 40.8629C74.6939 41.0494 74.9902 41.2821 75.2136 41.561C75.4413 41.8358 75.6137 42.1058 75.7307 42.371L75.8138 42.3717L75.8568 37.45L78.5733 37.4737L78.459 50.5641L75.7745 50.5407L75.7882 48.9683L75.6731 48.9673C75.5429 49.2389 75.3595 49.5079 75.1228 49.7743C74.8904 50.0365 74.588 50.2534 74.2158 50.4248C73.8478 50.5963 73.3996 50.6798 72.8712 50.6752ZM73.753 48.5159C74.1919 48.5197 74.5637 48.4036 74.8683 48.1677C75.1772 47.9274 75.4146 47.5907 75.5803 47.1575C75.7503 46.7243 75.8378 46.2158 75.8429 45.632C75.848 45.0482 75.7714 44.5405 75.6133 44.1087C75.4551 43.6769 75.2236 43.3425 74.9189 43.1054C74.6141 42.8684 74.2423 42.7479 73.8034 42.7441C73.356 42.7402 72.9778 42.8583 72.6689 43.0986C72.3599 43.3388 72.1248 43.6734 71.9633 44.1024C71.8019 44.5314 71.7187 45.0293 71.7138 45.596C71.7088 46.167 71.7832 46.6726 71.9371 47.1129C72.0952 47.549 72.3245 47.8919 72.6248 48.1417C72.9295 48.3873 73.3056 48.512 73.753 48.5159ZM85.1704 50.8145C84.1604 50.8057 83.2929 50.5935 82.5679 50.1781C81.8471 49.7584 81.2939 49.1698 80.9085 48.4121C80.5231 47.6502 80.3349 46.7515 80.3439 45.7161C80.3527 44.7062 80.5565 43.8215 80.9552 43.0622C81.3539 42.3029 81.9109 41.7132 82.6262 41.2933C83.3458 40.8735 84.1871 40.6677 85.1502 40.6761C85.7979 40.6818 86.3999 40.7914 86.9563 41.0051C87.517 41.2146 88.0043 41.5278 88.4183 41.9448C88.8366 42.3618 89.1602 42.8845 89.3891 43.5129C89.618 44.1371 89.7288 44.8668 89.7215 45.702L89.715 46.4499L81.4248 46.3775L81.4396 44.6901L87.1666 44.74C87.17 44.348 87.0878 44 86.92 43.696C86.7522 43.3919 86.5178 43.1534 86.2167 42.9803C85.92 42.803 85.5735 42.7126 85.1772 42.7091C84.7638 42.7055 84.3965 42.7982 84.0753 42.9872C83.7583 43.1719 83.5089 43.4233 83.3272 43.7413C83.1455 44.0551 83.0508 44.4058 83.0431 44.7936L83.0291 46.3979C83.0249 46.8837 83.1107 47.3042 83.2866 47.6594C83.4667 48.0147 83.7222 48.2897 84.0529 48.4843C84.3836 48.679 84.7769 48.7783 85.2328 48.7823C85.5354 48.7849 85.8127 48.7447 86.0649 48.6617C86.317 48.5787 86.5333 48.4527 86.7138 48.2838C86.8943 48.1149 87.0324 47.9073 87.1283 47.661L89.6453 47.8492C89.5121 48.4531 89.2455 48.9792 88.8452 49.4275C88.4493 49.8715 87.9392 50.2165 87.3148 50.4624C86.6948 50.7042 85.98 50.8215 85.1704 50.8145ZM95.621 50.7139L95.7067 40.8961L98.4296 40.9199L98.3439 50.7377L95.621 50.7139ZM97.0856 39.6425C96.6808 39.6389 96.3347 39.5017 96.0472 39.2307C95.7641 38.9555 95.6242 38.6283 95.6275 38.249C95.6308 37.874 95.7764 37.5535 96.0642 37.2876C96.3563 37.0174 96.7048 36.8841 97.1096 36.8876C97.5144 36.8911 97.8584 37.0305 98.1415 37.3057C98.429 37.5767 98.571 37.8997 98.5678 38.2747C98.5644 38.6539 98.4167 38.9786 98.1246 39.2488C97.8367 39.5148 97.4904 39.646 97.0856 39.6425ZM108.755 43.8098L106.261 43.9414C106.22 43.728 106.13 43.5355 105.991 43.3638C105.852 43.1879 105.668 43.0477 105.439 42.9435C105.214 42.835 104.944 42.7793 104.628 42.7766C104.206 42.7729 103.85 42.8593 103.559 43.0357C103.267 43.2079 103.12 43.441 103.118 43.735C103.116 43.9694 103.208 44.1684 103.394 44.3319C103.58 44.4955 103.9 44.6283 104.356 44.7302L106.129 45.1037C107.082 45.308 107.791 45.6296 108.256 46.0683C108.721 46.507 108.95 47.0801 108.944 47.7875C108.939 48.4309 108.744 48.9938 108.36 49.4763C107.981 49.9588 107.462 50.3336 106.804 50.6006C106.149 50.8633 105.396 50.991 104.544 50.9835C103.244 50.9722 102.211 50.6926 101.445 50.1447C100.682 49.5926 100.239 48.8472 100.115 47.9086L102.795 47.7913C102.872 48.1883 103.066 48.4926 103.375 48.7041C103.684 48.9113 104.082 49.0171 104.567 49.0213C105.045 49.0255 105.429 48.9372 105.72 48.7565C106.016 48.5716 106.167 48.3321 106.174 48.0381C106.172 47.791 106.069 47.5876 105.866 47.4282C105.663 47.2645 105.349 47.1382 104.923 47.0492L103.226 46.6956C102.269 46.4955 101.558 46.1569 101.094 45.6798C100.633 45.2028 100.406 44.5978 100.413 43.8648C100.418 43.2342 100.593 42.6924 100.938 42.2394C101.287 41.7865 101.774 41.4391 102.398 41.1974C103.027 40.9557 103.761 40.8385 104.6 40.8459C105.84 40.8567 106.814 41.1273 107.521 41.6576C108.232 42.188 108.644 42.9054 108.755 43.8098ZM117.105 50.9014L114.14 50.8755L118.773 37.8245L122.34 37.8557L126.738 50.9855L123.772 50.9596L120.581 40.8319L120.479 40.831L117.105 50.9014ZM116.965 45.7544L123.97 45.8155L123.952 47.976L116.946 47.9148L116.965 45.7544ZM128.262 50.9988L128.348 41.181L130.988 41.204L130.973 42.917L131.075 42.9179C131.259 42.3101 131.564 41.8525 131.988 41.5451C132.413 41.2335 132.9 41.0801 133.45 41.0849C133.586 41.086 133.733 41.0958 133.891 41.1143C134.048 41.1327 134.187 41.1573 134.306 41.1882L134.285 43.6043C134.157 43.5648 133.98 43.5292 133.755 43.4974C133.529 43.4656 133.323 43.4489 133.135 43.4473C132.735 43.4438 132.376 43.528 132.059 43.6999C131.747 43.8677 131.497 44.1042 131.311 44.4094C131.13 44.7146 131.037 45.0675 131.034 45.4681L130.985 51.0225L128.262 50.9988ZM141.427 41.2951L141.409 43.3405L135.497 43.2889L135.515 41.2435L141.427 41.2951ZM136.878 38.903L139.601 38.9268L139.521 48.0799C139.518 48.3313 139.555 48.5276 139.631 48.6689C139.706 48.8059 139.812 48.9027 139.948 48.9593C140.088 49.016 140.249 49.0451 140.433 49.0467C140.561 49.0478 140.688 49.0382 140.817 49.018C140.945 48.9936 141.043 48.9753 141.111 48.9631L141.522 50.993C141.385 51.0344 141.193 51.0818 140.945 51.135C140.697 51.1925 140.397 51.2261 140.043 51.2358C139.386 51.2557 138.812 51.1633 138.319 50.9587C137.831 50.7541 137.452 50.4397 137.183 50.0155C136.914 49.5913 136.785 49.0574 136.795 48.414L136.878 38.903ZM44.5619 104.27L44.6761 91.18L49.47 91.2218C50.3989 91.2299 51.1667 91.39 51.7734 91.7022C52.3801 92.01 52.8325 92.4252 53.1305 92.9477C53.4285 93.466 53.5747 94.0489 53.5691 94.6966C53.5643 95.2421 53.4601 95.7014 53.2566 96.0746C53.0531 96.4436 52.782 96.7396 52.4434 96.9625C52.1091 97.1811 51.7412 97.3399 51.3398 97.4386L51.3387 97.5665C51.7731 97.5916 52.1959 97.7359 52.607 97.9994C53.0223 98.2588 53.3643 98.6261 53.6329 99.1015C53.9015 99.5768 54.0328 100.153 54.0269 100.831C54.0211 101.5 53.8582 102.099 53.5382 102.629C53.2225 103.155 52.7373 103.57 52.0827 103.876C51.428 104.177 50.5936 104.323 49.5794 104.314L44.5619 104.27ZM46.5517 102.594L49.4025 102.619C50.3485 102.627 51.0276 102.45 51.4399 102.087C51.8521 101.724 52.0607 101.268 52.0655 100.718C52.0691 100.304 51.968 99.9243 51.7622 99.5774C51.5564 99.2304 51.2605 98.9529 50.8745 98.745C50.4928 98.5371 50.0378 98.4309 49.5094 98.4263L46.5883 98.4008L46.5517 102.594ZM46.6018 96.8603L49.248 96.8834C49.6911 96.8873 50.0903 96.8056 50.4455 96.6382C50.8049 96.4709 51.0903 96.2347 51.3018 95.9297C51.5176 95.6205 51.6273 95.255 51.631 94.8331C51.6357 94.292 51.4501 93.8365 51.074 93.4667C50.698 93.0969 50.1179 92.9086 49.3339 92.9018L46.6365 92.8782L46.6018 96.8603ZM62.4401 100.355L62.4903 94.6083L64.4078 94.625L64.3221 104.443L62.4429 104.426L62.4578 102.726L62.3555 102.725C62.1251 103.247 61.7591 103.681 61.2575 104.026C60.7602 104.367 60.1429 104.534 59.4057 104.528C58.7751 104.522 58.2181 104.379 57.7347 104.098C57.2556 103.812 56.88 103.393 56.6078 102.841C56.3399 102.289 56.2095 101.608 56.2165 100.799L56.271 94.554L58.1822 94.5707L58.1297 100.585C58.1239 101.254 58.3046 101.789 58.6718 102.188C59.0391 102.588 59.5189 102.79 60.1112 102.795C60.4691 102.798 60.8257 102.712 61.181 102.536C61.5405 102.36 61.839 102.092 62.0765 101.732C62.3183 101.372 62.4395 100.913 62.4401 100.355ZM71.5586 94.6874L71.5453 96.2215L66.1825 96.1747L66.1959 94.6406L71.5586 94.6874ZM67.6546 92.301L69.5657 92.3177L69.4847 101.605C69.4815 101.976 69.5344 102.255 69.6436 102.444C69.7528 102.628 69.8944 102.755 70.0685 102.825C70.247 102.89 70.4406 102.924 70.6494 102.926C70.8028 102.927 70.9371 102.917 71.0523 102.897C71.1676 102.877 71.2572 102.861 71.3212 102.848L71.6526 104.43C71.5414 104.472 71.3834 104.513 71.1785 104.554C70.9735 104.599 70.7176 104.622 70.4108 104.624C69.9079 104.628 69.44 104.534 69.007 104.343C68.5739 104.152 68.2249 103.859 67.9599 103.465C67.6949 103.07 67.5649 102.577 67.5701 101.985L67.6546 92.301ZM81.2058 104.808C80.5836 104.802 80.0222 104.682 79.5214 104.448C79.0206 104.209 78.6251 103.867 78.335 103.421C78.0491 102.975 77.9089 102.431 77.9145 101.787C77.9194 101.233 78.0299 100.778 78.2461 100.422C78.4622 100.066 78.7524 99.7852 79.1164 99.5796C79.4804 99.3739 79.8866 99.2198 80.3349 99.1172C80.7833 99.0145 81.24 98.9375 81.7049 98.8862C82.2936 98.8232 82.7713 98.7719 83.1381 98.7325C83.505 98.6888 83.772 98.6166 83.9391 98.5158C84.1061 98.415 84.1907 98.2495 84.1927 98.0194L84.1931 97.9746C84.1979 97.4164 84.0441 96.9825 83.7314 96.673C83.423 96.3635 82.9599 96.206 82.342 96.2006C81.6986 96.195 81.1902 96.3333 80.817 96.6156C80.4481 96.8936 80.1918 97.2046 80.0482 97.5485L78.2557 97.1238C78.4739 96.5291 78.7892 96.0503 79.2015 95.6874C79.6181 95.3203 80.0955 95.056 80.6339 94.8945C81.1723 94.7287 81.7376 94.6484 82.3299 94.6536C82.722 94.657 83.137 94.7075 83.5751 94.8051C84.0175 94.8984 84.4294 95.0682 84.8108 95.3145C85.1964 95.5607 85.5109 95.9108 85.7541 96.3646C85.9973 96.8142 86.1158 97.3969 86.1096 98.1128L86.0527 104.632L84.1863 104.616L84.198 103.274L84.1213 103.273C83.9955 103.519 83.8081 103.761 83.5588 103.997C83.3096 104.234 82.9904 104.429 82.6013 104.583C82.2121 104.737 81.7469 104.812 81.2058 104.808ZM81.6346 103.277C82.163 103.282 82.6156 103.181 82.9924 102.976C83.3735 102.77 83.6635 102.5 83.8625 102.165C84.0657 101.826 84.169 101.462 84.1724 101.075L84.1835 99.8091C84.1147 99.8767 83.982 99.9395 83.7855 99.9974C83.5933 100.051 83.3734 100.098 83.1259 100.139C82.8784 100.175 82.6373 100.209 82.4026 100.241C82.168 100.269 81.9718 100.293 81.8139 100.313C81.4428 100.356 81.1033 100.432 80.7956 100.54C80.492 100.648 80.2478 100.806 80.0627 101.013C79.882 101.216 79.7901 101.488 79.7871 101.829C79.783 102.302 79.9546 102.662 80.3019 102.907C80.6492 103.149 81.0935 103.272 81.6346 103.277ZM90.6236 91.5809L90.5093 104.671L88.5982 104.655L88.7124 91.5643L90.6236 91.5809ZM100.502 97.3371L98.7673 97.6288C98.6968 97.4066 98.5836 97.1947 98.4277 96.993C98.276 96.7914 98.0687 96.6255 97.8056 96.4954C97.5425 96.3652 97.2128 96.2984 96.8165 96.295C96.2753 96.2902 95.8226 96.4077 95.4583 96.6475C95.094 96.8829 94.9102 97.1903 94.9069 97.5695C94.904 97.8977 95.0232 98.1629 95.2643 98.3653C95.5054 98.5677 95.896 98.7352 96.4361 98.8677L97.9926 99.2393C98.8941 99.456 99.5646 99.7836 100.004 100.222C100.443 100.661 100.66 101.227 100.654 101.922C100.649 102.51 100.474 103.032 100.129 103.49C99.7882 103.943 99.3143 104.296 98.7069 104.551C98.1038 104.806 97.406 104.93 96.6134 104.923C95.514 104.913 94.6191 104.671 93.9286 104.196C93.2381 103.717 92.8179 103.042 92.6678 102.172L94.5175 101.907C94.6283 102.389 94.8616 102.755 95.2174 103.006C95.5732 103.252 96.0388 103.377 96.614 103.382C97.2404 103.388 97.7423 103.262 98.1195 103.005C98.4968 102.745 98.6871 102.424 98.6904 102.045C98.6931 101.738 98.5803 101.48 98.352 101.269C98.128 101.058 97.7821 100.897 97.3143 100.787L95.6556 100.408C94.7413 100.191 94.0666 99.8528 93.6317 99.393C93.201 98.9333 92.9887 98.354 92.9948 97.6551C92.9999 97.0756 93.1663 96.5699 93.4939 96.1381C93.8215 95.7063 94.2719 95.3715 94.845 95.1335C95.4182 94.8914 96.0734 94.7735 96.8106 94.7799C97.8716 94.7892 98.7048 95.0266 99.3101 95.4921C99.9155 95.9534 100.313 96.5684 100.502 97.3371ZM106.864 105.012C105.944 105.004 105.142 104.786 104.46 104.358C103.778 103.931 103.25 103.336 102.878 102.574C102.505 101.812 102.323 100.924 102.332 99.91C102.341 98.8916 102.538 98.0026 102.924 97.2432C103.31 96.4837 103.848 95.8961 104.538 95.4802C105.227 95.0643 106.032 94.8604 106.953 94.8685C107.873 94.8765 108.675 95.0944 109.357 95.5223C110.039 95.9501 110.567 96.5471 110.939 97.3131C111.312 98.0792 111.494 98.9714 111.485 99.9899C111.476 101.004 111.279 101.889 110.893 102.644C110.507 103.399 109.969 103.985 109.279 104.4C108.59 104.816 107.785 105.02 106.864 105.012ZM106.885 103.408C107.481 103.413 107.977 103.26 108.372 102.948C108.766 102.636 109.06 102.219 109.252 101.696C109.448 101.174 109.549 100.597 109.555 99.9666C109.56 99.3402 109.469 98.7641 109.282 98.2383C109.099 97.7083 108.813 97.2818 108.424 96.9588C108.035 96.6358 107.542 96.4717 106.945 96.4665C106.344 96.4612 105.844 96.6167 105.445 96.9328C105.051 97.249 104.755 97.6704 104.559 98.1971C104.366 98.7196 104.268 99.2941 104.262 99.9205C104.257 100.551 104.345 101.129 104.528 101.655C104.716 102.181 105.004 102.603 105.393 102.922C105.787 103.241 106.284 103.403 106.885 103.408ZM120.301 99.1016L120.25 104.931L118.339 104.914L118.425 95.0964L120.259 95.1124L120.245 96.7104L120.367 96.7114C120.597 96.1935 120.955 95.779 121.439 95.4679C121.927 95.1568 122.54 95.0045 123.277 95.0109C123.946 95.0168 124.531 95.1625 125.031 95.4481C125.532 95.7295 125.918 96.1462 126.19 96.6983C126.463 97.2504 126.595 97.9313 126.588 98.7409L126.534 104.986L124.622 104.969L124.675 98.9544C124.681 98.2427 124.501 97.685 124.133 97.2813C123.766 96.8732 123.259 96.6664 122.611 96.6607C122.168 96.6568 121.773 96.7493 121.426 96.938C121.083 97.1268 120.81 97.4057 120.607 97.7746C120.408 98.1394 120.306 98.5817 120.301 99.1016ZM133.326 105.243C132.359 105.235 131.528 105.021 130.833 104.601C130.142 104.178 129.61 103.587 129.237 102.83C128.869 102.068 128.689 101.178 128.698 100.159C128.707 99.1536 128.902 98.2689 129.284 97.5052C129.67 96.7415 130.203 96.1474 130.884 95.7229C131.57 95.2985 132.369 95.0903 133.281 95.0982C133.835 95.103 134.371 95.1993 134.889 95.3871C135.407 95.5749 135.871 95.8666 136.281 96.2622C136.691 96.6579 137.013 97.1699 137.246 97.7984C137.479 98.4226 137.592 99.18 137.584 100.071L137.578 100.748L129.774 100.68L129.786 99.2483L135.718 99.3C135.722 98.7972 135.624 98.351 135.423 97.9615C135.221 97.5677 134.937 97.2562 134.568 97.0271C134.203 96.7981 133.774 96.6814 133.28 96.6771C132.743 96.6724 132.273 96.8004 131.87 97.0611C131.471 97.3176 131.162 97.6558 130.941 98.0758C130.724 98.4915 130.613 98.9444 130.609 99.4344L130.599 100.553C130.594 101.209 130.704 101.768 130.93 102.231C131.16 102.693 131.483 103.047 131.899 103.294C132.314 103.536 132.801 103.66 133.359 103.665C133.721 103.668 134.052 103.619 134.351 103.52C134.651 103.416 134.91 103.26 135.129 103.054C135.348 102.847 135.516 102.59 135.634 102.285L137.44 102.626C137.291 103.158 137.027 103.622 136.648 104.019C136.274 104.412 135.805 104.717 135.24 104.934C134.68 105.146 134.042 105.249 133.326 105.243ZM143.89 105.335C142.923 105.327 142.092 105.113 141.397 104.694C140.706 104.27 140.174 103.679 139.801 102.922C139.433 102.16 139.253 101.27 139.262 100.251C139.271 99.2458 139.466 98.3611 139.848 97.5974C140.234 96.8337 140.767 96.2396 141.448 95.8151C142.134 95.3907 142.933 95.1824 143.845 95.1904C144.399 95.1952 144.935 95.2915 145.453 95.4793C145.971 95.6671 146.435 95.9588 146.845 96.3544C147.255 96.7501 147.577 97.2621 147.81 97.8906C148.043 98.5148 148.156 99.2722 148.148 100.163L148.142 100.84L140.338 100.772L140.35 99.3405L146.282 99.3922C146.286 98.8894 146.188 98.4432 145.987 98.0537C145.786 97.6599 145.501 97.3484 145.132 97.1193C144.767 96.8903 144.338 96.7736 143.844 96.7693C143.307 96.7646 142.837 96.8926 142.434 97.1533C142.035 97.4098 141.726 97.748 141.505 98.168C141.288 98.5837 141.177 99.0366 141.173 99.5266L141.163 100.645C141.158 101.301 141.268 101.861 141.494 102.323C141.724 102.785 142.047 103.14 142.463 103.386C142.878 103.628 143.365 103.752 143.923 103.757C144.285 103.76 144.616 103.712 144.915 103.612C145.215 103.508 145.474 103.353 145.693 103.146C145.912 102.939 146.08 102.683 146.198 102.377L148.004 102.718C147.855 103.25 147.591 103.714 147.212 104.111C146.838 104.505 146.369 104.809 145.804 105.026C145.244 105.239 144.606 105.342 143.89 105.335ZM153.898 105.416C153.106 105.409 152.4 105.201 151.782 104.791C151.167 104.376 150.687 103.79 150.339 103.033C149.997 102.271 149.83 101.36 149.839 100.299C149.848 99.238 150.033 98.3319 150.393 97.5807C150.758 96.8296 151.253 96.2565 151.879 95.8614C152.504 95.4663 153.211 95.2721 154 95.279C154.609 95.2843 155.098 95.3909 155.467 95.5987C155.84 95.8022 156.128 96.0391 156.33 96.3093C156.537 96.5796 156.697 96.8175 156.81 97.0231L156.925 97.0241L156.967 92.1599L158.878 92.1766L158.764 105.267L156.898 105.251L156.911 103.723L156.751 103.722C156.634 103.929 156.466 104.167 156.247 104.433C156.031 104.7 155.735 104.932 155.358 105.129C154.982 105.326 154.495 105.422 153.898 105.416ZM154.334 103.79C154.884 103.795 155.35 103.654 155.732 103.368C156.118 103.077 156.411 102.673 156.612 102.154C156.816 101.636 156.922 101.032 156.928 100.342C156.934 99.6599 156.841 99.0625 156.649 98.5494C156.458 98.0364 156.174 97.6354 155.797 97.3466C155.42 97.0578 154.953 96.911 154.395 96.9061C153.819 96.9011 153.339 97.0461 152.952 97.341C152.566 97.6359 152.273 98.0403 152.073 98.5542C151.876 99.0682 151.775 99.649 151.77 100.297C151.764 100.953 151.857 101.544 152.048 102.07C152.24 102.596 152.526 103.014 152.907 103.324C153.292 103.63 153.768 103.785 154.334 103.79ZM168.914 97.9341L167.179 98.2258C167.108 98.0036 166.995 97.7917 166.839 97.59C166.687 97.3884 166.48 97.2225 166.217 97.0924C165.954 96.9622 165.624 96.8954 165.228 96.892C164.687 96.8873 164.234 97.0048 163.87 97.2445C163.505 97.48 163.322 97.7873 163.318 98.1666C163.315 98.4947 163.435 98.7599 163.676 98.9623C163.917 99.1647 164.307 99.3322 164.848 99.4648L166.404 99.8363C167.306 100.053 167.976 100.381 168.415 100.819C168.855 101.258 169.071 101.824 169.065 102.519C169.06 103.107 168.885 103.629 168.54 104.087C168.2 104.54 167.726 104.893 167.118 105.148C166.515 105.403 165.817 105.527 165.025 105.52C163.925 105.51 163.031 105.268 162.34 104.793C161.65 104.314 161.229 103.639 161.079 102.769L162.929 102.504C163.04 102.986 163.273 103.352 163.629 103.603C163.985 103.849 164.45 103.974 165.025 103.979C165.652 103.985 166.154 103.859 166.531 103.602C166.908 103.342 167.099 103.021 167.102 102.642C167.105 102.335 166.992 102.077 166.763 101.866C166.539 101.655 166.194 101.494 165.726 101.384L164.067 101.005C163.153 100.788 162.478 100.45 162.043 99.99C161.612 99.5303 161.4 98.951 161.406 98.2522C161.411 97.6726 161.578 97.167 161.905 96.7351C162.233 96.3033 162.683 95.9685 163.257 95.7306C163.83 95.4884 164.485 95.3705 165.222 95.377C166.283 95.3862 167.116 95.6236 167.722 96.0891C168.327 96.5504 168.724 97.1654 168.914 97.9341ZM180.574 95.6388L180.561 97.1728L175.198 97.126L175.211 95.592L180.574 95.6388ZM176.67 93.2524L178.581 93.269L178.5 102.556C178.497 102.927 178.55 103.207 178.659 103.395C178.768 103.579 178.91 103.706 179.084 103.776C179.262 103.841 179.456 103.875 179.665 103.877C179.818 103.878 179.952 103.869 180.068 103.848C180.183 103.828 180.273 103.812 180.337 103.8L180.668 105.381C180.557 105.423 180.399 105.464 180.194 105.505C179.989 105.55 179.733 105.574 179.426 105.575C178.923 105.579 178.455 105.486 178.022 105.294C177.589 105.103 177.24 104.81 176.975 104.416C176.71 104.022 176.58 103.528 176.585 102.936L176.67 93.2524ZM186.631 105.708C185.71 105.7 184.909 105.482 184.227 105.055C183.544 104.627 183.017 104.032 182.644 103.27C182.271 102.508 182.09 101.62 182.098 100.606C182.107 99.5877 182.305 98.6987 182.691 97.9393C183.076 97.1799 183.614 96.5922 184.304 96.1763C184.994 95.7605 185.799 95.5565 186.719 95.5646C187.64 95.5726 188.441 95.7905 189.123 96.2184C189.806 96.6462 190.333 97.2432 190.706 98.0092C191.078 98.7753 191.26 99.6676 191.251 100.686C191.243 101.7 191.045 102.585 190.659 103.34C190.273 104.095 189.736 104.681 189.046 105.097C188.356 105.512 187.551 105.716 186.631 105.708ZM186.651 104.104C187.248 104.109 187.743 103.956 188.138 103.644C188.533 103.332 188.826 102.915 189.018 102.392C189.215 101.87 189.316 101.293 189.321 100.663C189.327 100.036 189.236 99.4603 189.049 98.9345C188.866 98.4044 188.58 97.9779 188.19 97.6549C187.801 97.3319 187.308 97.1678 186.712 97.1626C186.111 97.1573 185.611 97.3128 185.212 97.6289C184.817 97.9451 184.521 98.3665 184.325 98.8932C184.133 99.4157 184.034 99.9902 184.029 100.617C184.023 101.247 184.112 101.825 184.295 102.351C184.482 102.877 184.77 103.299 185.16 103.618C185.553 103.937 186.05 104.099 186.651 104.104ZM202.335 105.845C201.368 105.837 200.537 105.623 199.842 105.204C199.151 104.78 198.619 104.189 198.246 103.432C197.878 102.67 197.698 101.78 197.707 100.762C197.716 99.7559 197.911 98.8712 198.293 98.1074C198.679 97.3437 199.212 96.7496 199.894 96.3252C200.579 95.9007 201.378 95.6925 202.29 95.7004C202.844 95.7053 203.38 95.8016 203.898 95.9894C204.416 96.1771 204.88 96.4688 205.29 96.8645C205.7 97.2601 206.022 97.7722 206.255 98.4006C206.488 99.0249 206.601 99.7823 206.593 100.673L206.587 101.35L198.783 101.282L198.795 99.8505L204.727 99.9023C204.731 99.3995 204.633 98.9533 204.432 98.5637C204.231 98.1699 203.946 97.8584 203.577 97.6294C203.212 97.4003 202.783 97.2836 202.289 97.2793C201.752 97.2746 201.282 97.4027 200.879 97.6634C200.48 97.9198 200.171 98.258 199.95 98.678C199.733 99.0937 199.622 99.5466 199.618 100.037L199.608 101.155C199.603 101.811 199.713 102.371 199.939 102.833C200.169 103.295 200.492 103.65 200.908 103.896C201.323 104.138 201.81 104.262 202.368 104.267C202.731 104.27 203.061 104.222 203.36 104.122C203.66 104.018 203.919 103.863 204.138 103.656C204.357 103.449 204.526 103.193 204.643 102.887L206.449 103.229C206.3 103.76 206.036 104.224 205.657 104.622C205.283 105.015 204.814 105.319 204.249 105.536C203.689 105.749 203.051 105.852 202.335 105.845ZM216.873 95.9556L213.227 105.742L211.182 105.724L207.701 95.8755L209.753 95.8934L212.173 103.47L212.275 103.471L214.821 95.9377L216.873 95.9556ZM222.383 106.02C221.463 106.012 220.661 105.794 219.979 105.367C219.297 104.939 218.769 104.344 218.397 103.582C218.024 102.82 217.842 101.932 217.851 100.918C217.86 99.8997 218.057 99.0108 218.443 98.2513C218.829 97.4919 219.367 96.9042 220.057 96.4883C220.746 96.0725 221.551 95.8685 222.472 95.8766C223.392 95.8846 224.194 96.1025 224.876 96.5304C225.558 96.9582 226.086 97.5552 226.458 98.3213C226.831 99.0873 227.013 99.9796 227.004 100.998C226.995 102.012 226.798 102.897 226.412 103.652C226.026 104.407 225.488 104.993 224.798 105.409C224.109 105.824 223.304 106.028 222.383 106.02ZM222.404 104.416C223 104.421 223.496 104.268 223.891 103.956C224.285 103.644 224.579 103.227 224.771 102.704C224.967 102.182 225.068 101.605 225.074 100.975C225.079 100.348 224.988 99.7723 224.801 99.2465C224.618 98.7164 224.332 98.2899 223.943 97.9669C223.554 97.6439 223.061 97.4798 222.464 97.4746C221.863 97.4693 221.363 97.6248 220.964 97.9409C220.57 98.2571 220.274 98.6785 220.078 99.2052C219.886 99.7277 219.787 100.302 219.781 100.929C219.776 101.559 219.864 102.137 220.047 102.663C220.235 103.189 220.523 103.611 220.912 103.93C221.306 104.249 221.803 104.411 222.404 104.416ZM231.12 92.807L231.006 105.897L229.095 105.881L229.209 92.7904L231.12 92.807ZM242.062 96.1754L238.416 105.962L236.37 105.944L232.889 96.0953L234.941 96.1132L237.362 103.69L237.464 103.691L240.01 96.1575L242.062 96.1754ZM247.668 106.241C246.7 106.233 245.869 106.019 245.174 105.599C244.483 105.176 243.951 104.585 243.578 103.827C243.21 103.066 243.03 102.176 243.039 101.157C243.048 100.151 243.243 99.2668 243.625 98.503C244.011 97.7393 244.544 97.1452 245.226 96.7208C245.911 96.2963 246.71 96.0881 247.622 96.0961C248.176 96.1009 248.712 96.1972 249.23 96.385C249.749 96.5727 250.213 96.8644 250.623 97.2601C251.032 97.6557 251.354 98.1678 251.587 98.7962C251.82 99.4205 251.933 100.178 251.925 101.068L251.919 101.746L244.115 101.678L244.127 100.246L250.059 100.298C250.063 99.7951 249.965 99.3489 249.764 98.9593C249.563 98.5655 249.278 98.2541 248.909 98.025C248.545 97.7959 248.115 97.6793 247.621 97.6749C247.084 97.6703 246.614 97.7983 246.211 98.059C245.813 98.3154 245.503 98.6537 245.282 99.0736C245.065 99.4894 244.955 99.9422 244.95 100.432L244.941 101.551C244.935 102.207 245.045 102.766 245.271 103.229C245.502 103.691 245.825 104.045 246.24 104.292C246.656 104.534 247.142 104.658 247.701 104.662C248.063 104.666 248.393 104.617 248.693 104.518C248.992 104.414 249.251 104.258 249.47 104.051C249.689 103.845 249.858 103.588 249.976 103.282L251.782 103.624C251.632 104.156 251.368 104.62 250.99 105.017C250.615 105.41 250.146 105.715 249.582 105.932C249.022 106.144 248.384 106.247 247.668 106.241ZM44.1729 131.268L44.2585 121.45L46.1697 121.467L46.084 131.285L44.1729 131.268ZM45.2369 119.944C44.9045 119.941 44.62 119.828 44.3833 119.604C44.1509 119.376 44.0361 119.107 44.0388 118.795C44.0415 118.48 44.1611 118.213 44.3974 117.993C44.638 117.769 44.9245 117.659 45.2568 117.662C45.5892 117.665 45.8716 117.78 46.104 118.008C46.3407 118.232 46.4576 118.501 46.4549 118.817C46.4522 119.128 46.3305 119.395 46.0899 119.619C45.8536 119.838 45.5693 119.947 45.2369 119.944ZM50.6171 125.494L50.5663 131.324L48.6551 131.307L48.7408 121.489L50.5752 121.505L50.5613 123.103L50.6827 123.104C50.9131 122.586 51.2704 122.172 51.7547 121.861C52.2432 121.55 52.8561 121.397 53.5933 121.404C54.2623 121.41 54.847 121.555 55.3473 121.841C55.8477 122.122 56.234 122.539 56.5062 123.091C56.7784 123.643 56.911 124.324 56.9039 125.134L56.8494 131.379L54.9382 131.362L54.9907 125.347C54.9969 124.636 54.8164 124.078 54.4492 123.674C54.082 123.266 53.5746 123.059 52.9269 123.054C52.4837 123.05 52.0887 123.142 51.7419 123.331C51.3993 123.52 51.1263 123.799 50.9228 124.168C50.7235 124.532 50.6217 124.975 50.6171 125.494ZM68.8446 121.665L68.8312 123.199L63.4685 123.152L63.4819 121.618L68.8446 121.665ZM64.9406 119.278L66.8517 119.295L66.7707 128.582C66.7674 128.953 66.8204 129.233 66.9295 129.421C67.0387 129.605 67.1804 129.732 67.3545 129.802C67.5329 129.867 67.7265 129.901 67.9353 129.903C68.0887 129.904 68.223 129.895 68.3383 129.874C68.4535 129.854 68.5432 129.838 68.6072 129.826L68.9386 131.407C68.8274 131.449 68.6694 131.49 68.4645 131.531C68.2595 131.576 68.0036 131.6 67.6968 131.601C67.1939 131.605 66.7259 131.512 66.2929 131.32C65.8599 131.129 65.5109 130.836 65.2459 130.442C64.9808 130.048 64.8509 129.554 64.8561 128.962L64.9406 119.278ZM70.873 131.501L70.9587 121.683L72.8698 121.7L72.7842 131.518L70.873 131.501ZM71.9371 120.177C71.6047 120.174 71.3202 120.061 71.0835 119.837C70.8511 119.609 70.7362 119.34 70.739 119.028C70.7417 118.713 70.8612 118.446 71.0975 118.226C71.3381 118.002 71.6246 117.892 71.957 117.895C72.2894 117.898 72.5717 118.013 72.8041 118.241C73.0408 118.465 73.1578 118.734 73.1551 119.05C73.1523 119.361 73.0307 119.628 72.7901 119.852C72.5538 120.071 72.2694 120.18 71.9371 120.177ZM75.3553 131.54L75.4409 121.722L77.2754 121.738L77.2614 123.336L77.3829 123.337C77.5921 122.798 77.9303 122.379 78.3974 122.081C78.8646 121.778 79.422 121.629 80.0697 121.635C80.7259 121.641 81.2743 121.799 81.7148 122.109C82.1595 122.42 82.4861 122.845 82.6945 123.384L82.7967 123.385C83.0357 122.863 83.4122 122.448 83.9262 122.142C84.4403 121.831 85.0511 121.678 85.7584 121.685C86.649 121.692 87.3731 121.978 87.9307 122.541C88.4926 123.104 88.7686 123.948 88.7588 125.073L88.7013 131.657L86.7902 131.64L86.8461 125.235C86.8519 124.571 86.675 124.087 86.3154 123.786C85.9558 123.485 85.5246 123.332 85.0218 123.327C84.3996 123.322 83.9143 123.509 83.5658 123.89C83.2173 124.266 83.0405 124.753 83.0353 125.349L82.9807 131.607L81.0759 131.59L81.1329 125.064C81.1375 124.531 80.9751 124.102 80.6455 123.775C80.316 123.448 79.8849 123.282 79.3522 123.278C78.99 123.275 78.6547 123.368 78.3462 123.557C78.042 123.742 77.7947 124.001 77.6043 124.336C77.4181 124.672 77.3231 125.061 77.3192 125.504L77.2664 131.557L75.3553 131.54ZM95.4925 131.914C94.5252 131.906 93.6939 131.692 92.9987 131.272C92.3078 130.849 91.776 130.258 91.4033 129.5C91.035 128.739 90.8552 127.849 90.8641 126.83C90.8729 125.824 91.0681 124.94 91.4498 124.176C91.8357 123.412 92.3693 122.818 93.0506 122.394C93.7362 121.969 94.5349 121.761 95.4468 121.769C96.0008 121.774 96.5369 121.87 97.0551 122.058C97.5734 122.246 98.0375 122.537 98.4474 122.933C98.8573 123.329 99.1789 123.841 99.412 124.469C99.6452 125.093 99.7579 125.851 99.7502 126.741L99.7442 127.419L91.9399 127.351L91.9524 125.919L97.8839 125.971C97.8883 125.468 97.7899 125.022 97.5888 124.632C97.3877 124.239 97.1027 123.927 96.734 123.698C96.3695 123.469 95.9401 123.352 95.4458 123.348C94.9089 123.343 94.439 123.471 94.0361 123.732C93.6376 123.988 93.3278 124.327 93.1068 124.747C92.8901 125.162 92.7796 125.615 92.7753 126.105L92.7656 127.224C92.7598 127.88 92.87 128.439 93.0961 128.902C93.3265 129.364 93.6494 129.718 94.0649 129.965C94.4804 130.207 94.9672 130.331 95.5255 130.335C95.8877 130.339 96.2183 130.29 96.5175 130.191C96.8167 130.087 97.0759 129.931 97.2951 129.724C97.5142 129.518 97.6826 129.261 97.8004 128.955L99.6064 129.297C99.4569 129.829 99.1929 130.293 98.8144 130.69C98.4402 131.083 97.9709 131.388 97.4065 131.605C96.8464 131.817 96.2084 131.92 95.4925 131.914ZM104.329 130.003L104.227 130.699C104.159 131.21 104.045 131.742 103.887 132.294C103.733 132.851 103.573 133.367 103.407 133.843C103.245 134.319 103.112 134.697 103.007 134.978L101.652 134.966C101.71 134.702 101.79 134.345 101.891 133.894C101.993 133.447 102.094 132.948 102.192 132.394C102.291 131.841 102.366 131.277 102.418 130.702L102.488 129.987L104.329 130.003ZM116.233 122.078L116.22 123.612L110.857 123.566L110.871 122.032L116.233 122.078ZM112.329 119.692L114.241 119.709L114.159 128.996C114.156 129.367 114.209 129.646 114.318 129.835C114.428 130.019 114.569 130.146 114.743 130.215C114.922 130.281 115.115 130.315 115.324 130.316C115.478 130.318 115.612 130.308 115.727 130.288C115.842 130.268 115.932 130.251 115.996 130.239L116.327 131.821C116.216 131.863 116.058 131.904 115.853 131.945C115.648 131.99 115.392 132.013 115.086 132.015C114.583 132.019 114.115 131.925 113.682 131.734C113.249 131.543 112.9 131.25 112.635 130.855C112.37 130.461 112.24 129.968 112.245 129.375L112.329 119.692ZM120.435 126.104L120.384 131.933L118.473 131.916L118.587 118.826L120.473 118.842L120.43 123.713L120.552 123.714C120.786 123.188 121.141 122.771 121.617 122.464C122.093 122.157 122.712 122.007 123.475 122.014C124.148 122.02 124.735 122.163 125.235 122.445C125.74 122.726 126.128 123.143 126.401 123.695C126.677 124.243 126.812 124.926 126.805 125.744L126.75 131.989L124.839 131.972L124.891 125.957C124.898 125.237 124.717 124.677 124.35 124.278C123.983 123.874 123.469 123.669 122.808 123.663C122.357 123.66 121.951 123.752 121.591 123.94C121.236 124.129 120.955 124.408 120.747 124.777C120.543 125.142 120.439 125.584 120.435 126.104ZM132.156 132.253C131.534 132.248 130.972 132.128 130.471 131.893C129.971 131.655 129.575 131.312 129.285 130.867C128.999 130.421 128.859 129.876 128.864 129.233C128.869 128.679 128.98 128.224 129.196 127.868C129.412 127.512 129.702 127.231 130.066 127.025C130.43 126.82 130.837 126.665 131.285 126.563C131.733 126.46 132.19 126.383 132.655 126.332C133.243 126.269 133.721 126.218 134.088 126.178C134.455 126.134 134.722 126.062 134.889 125.961C135.056 125.861 135.141 125.695 135.143 125.465L135.143 125.42C135.148 124.862 134.994 124.428 134.681 124.119C134.373 123.809 133.91 123.652 133.292 123.646C132.648 123.641 132.14 123.779 131.767 124.061C131.398 124.339 131.142 124.65 130.998 124.994L129.206 124.569C129.424 123.975 129.739 123.496 130.151 123.133C130.568 122.766 131.045 122.502 131.584 122.34C132.122 122.174 132.688 122.094 133.28 122.099C133.672 122.103 134.087 122.153 134.525 122.251C134.967 122.344 135.379 122.514 135.761 122.76C136.146 123.006 136.461 123.356 136.704 123.81C136.947 124.26 137.066 124.843 137.059 125.558L137.003 132.078L135.136 132.062L135.148 130.72L135.071 130.719C134.945 130.965 134.758 131.206 134.509 131.443C134.26 131.679 133.94 131.875 133.551 132.029C133.162 132.183 132.697 132.258 132.156 132.253ZM132.585 130.723C133.113 130.727 133.566 130.627 133.942 130.421C134.323 130.216 134.613 129.946 134.812 129.611C135.016 129.272 135.119 128.908 135.122 128.52L135.133 127.255C135.065 127.322 134.932 127.385 134.735 127.443C134.543 127.497 134.323 127.544 134.076 127.584C133.828 127.621 133.587 127.655 133.353 127.687C133.118 127.715 132.922 127.738 132.764 127.758C132.393 127.802 132.053 127.878 131.745 127.986C131.442 128.094 131.198 128.252 131.013 128.459C130.832 128.662 130.74 128.934 130.737 129.275C130.733 129.748 130.905 130.107 131.252 130.353C131.599 130.595 132.043 130.718 132.585 130.723ZM144.217 122.323L144.203 123.857L138.841 123.81L138.854 122.276L144.217 122.323ZM140.313 119.936L142.224 119.953L142.143 129.24C142.14 129.611 142.193 129.89 142.302 130.079C142.411 130.263 142.553 130.39 142.727 130.46C142.905 130.525 143.099 130.559 143.307 130.561C143.461 130.562 143.595 130.552 143.71 130.532C143.826 130.512 143.915 130.496 143.979 130.483L144.311 132.065C144.2 132.107 144.041 132.148 143.837 132.189C143.632 132.234 143.376 132.257 143.069 132.259C142.566 132.263 142.098 132.169 141.665 131.978C141.232 131.787 140.883 131.494 140.618 131.1C140.353 130.705 140.223 130.212 140.228 129.62L140.313 119.936ZM148.494 119.087L148.484 120.314C148.48 120.676 148.409 121.057 148.269 121.457C148.133 121.852 147.943 122.231 147.697 122.596C147.45 122.96 147.162 123.273 146.832 123.534L145.892 122.849C146.146 122.484 146.367 122.096 146.554 121.685C146.745 121.273 146.843 120.818 146.847 120.319L146.858 119.073L148.494 119.087ZM156.409 124.826L154.674 125.118C154.604 124.896 154.49 124.684 154.334 124.482C154.183 124.28 153.975 124.114 153.712 123.984C153.449 123.854 153.12 123.787 152.723 123.784C152.182 123.779 151.729 123.897 151.365 124.136C151.001 124.372 150.817 124.679 150.814 125.058C150.811 125.387 150.93 125.652 151.171 125.854C151.412 126.057 151.803 126.224 152.343 126.357L153.899 126.728C154.801 126.945 155.471 127.272 155.911 127.711C156.35 128.15 156.567 128.716 156.561 129.411C156.556 129.999 156.381 130.521 156.036 130.979C155.695 131.432 155.221 131.785 154.614 132.04C154.011 132.295 153.313 132.419 152.52 132.412C151.421 132.402 150.526 132.16 149.835 131.685C149.145 131.206 148.725 130.531 148.575 129.661L150.424 129.395C150.535 129.878 150.768 130.244 151.124 130.495C151.48 130.741 151.946 130.866 152.521 130.871C153.147 130.877 153.649 130.751 154.026 130.494C154.404 130.233 154.594 129.913 154.597 129.534C154.6 129.227 154.487 128.969 154.259 128.758C154.035 128.547 153.689 128.386 153.221 128.276L151.562 127.897C150.648 127.68 149.973 127.342 149.538 126.882C149.108 126.422 148.896 125.843 148.902 125.144C148.907 124.565 149.073 124.059 149.401 123.627C149.728 123.195 150.179 122.86 150.752 122.622C151.325 122.38 151.98 122.262 152.717 122.269C153.778 122.278 154.612 122.516 155.217 122.981C155.822 123.442 156.22 124.057 156.409 124.826ZM165.529 132.327L162.726 122.484L164.701 122.501L166.562 129.728L166.658 129.729L168.651 122.536L170.626 122.553L172.481 129.748L172.577 129.749L174.551 122.587L176.526 122.604L173.557 132.397L171.608 132.38L169.675 125.274L169.528 125.273L167.472 132.344L165.529 132.327ZM180.216 126.625L180.165 132.455L178.254 132.438L178.368 119.348L180.254 119.364L180.211 124.235L180.332 124.236C180.567 123.709 180.922 123.293 181.398 122.986C181.874 122.679 182.493 122.529 183.256 122.535C183.929 122.541 184.516 122.685 185.016 122.966C185.521 123.248 185.909 123.664 186.182 124.217C186.458 124.764 186.593 125.447 186.586 126.266L186.531 132.51L184.62 132.494L184.672 126.479C184.679 125.759 184.498 125.199 184.131 124.799C183.764 124.396 183.25 124.191 182.589 124.185C182.138 124.181 181.732 124.274 181.372 124.462C181.017 124.651 180.735 124.93 180.528 125.299C180.324 125.663 180.22 126.106 180.216 126.625ZM193.311 132.768C192.344 132.759 191.512 132.545 190.817 132.126C190.126 131.702 189.595 131.112 189.222 130.354C188.853 129.592 188.674 128.702 188.683 127.684C188.691 126.678 188.887 125.793 189.268 125.03C189.654 124.266 190.188 123.672 190.869 123.247C191.555 122.823 192.353 122.615 193.265 122.623C193.819 122.628 194.355 122.724 194.874 122.912C195.392 123.099 195.856 123.391 196.266 123.787C196.676 124.182 196.997 124.694 197.231 125.323C197.464 125.947 197.576 126.705 197.569 127.595L197.563 128.273L189.758 128.205L189.771 126.773L195.702 126.825C195.707 126.322 195.608 125.876 195.407 125.486C195.206 125.092 194.921 124.781 194.553 124.552C194.188 124.323 193.759 124.206 193.264 124.202C192.727 124.197 192.258 124.325 191.855 124.586C191.456 124.842 191.146 125.18 190.925 125.6C190.709 126.016 190.598 126.469 190.594 126.959L190.584 128.078C190.578 128.734 190.689 129.293 190.915 129.755C191.145 130.217 191.468 130.572 191.883 130.818C192.299 131.061 192.786 131.184 193.344 131.189C193.706 131.192 194.037 131.144 194.336 131.044C194.635 130.94 194.894 130.785 195.114 130.578C195.333 130.371 195.501 130.115 195.619 129.809L197.425 130.151C197.275 130.682 197.011 131.147 196.633 131.544C196.259 131.937 195.789 132.242 195.225 132.458C194.665 132.671 194.027 132.774 193.311 132.768ZM199.645 132.625L199.731 122.807L201.578 122.823L201.565 124.383L201.667 124.384C201.851 123.857 202.17 123.444 202.624 123.145C203.083 122.843 203.599 122.694 204.175 122.699C204.294 122.7 204.435 122.705 204.596 122.715C204.763 122.725 204.892 122.737 204.986 122.751L204.97 124.579C204.894 124.557 204.757 124.532 204.562 124.505C204.366 124.473 204.17 124.457 203.974 124.455C203.522 124.451 203.119 124.543 202.763 124.732C202.412 124.916 202.133 125.176 201.926 125.511C201.718 125.841 201.613 126.22 201.609 126.646L201.557 132.641L199.645 132.625ZM210.431 132.917C209.464 132.909 208.633 132.695 207.938 132.275C207.247 131.852 206.715 131.261 206.342 130.503C205.974 129.742 205.794 128.852 205.803 127.833C205.812 126.828 206.007 125.943 206.389 125.179C206.775 124.415 207.308 123.821 207.99 123.397C208.675 122.972 209.474 122.764 210.386 122.772C210.94 122.777 211.476 122.873 211.994 123.061C212.512 123.249 212.976 123.541 213.386 123.936C213.796 124.332 214.118 124.844 214.351 125.472C214.584 126.097 214.697 126.854 214.689 127.745L214.683 128.422L206.879 128.354L206.891 126.922L212.823 126.974C212.827 126.471 212.729 126.025 212.528 125.635C212.327 125.242 212.042 124.93 211.673 124.701C211.308 124.472 210.879 124.355 210.385 124.351C209.848 124.346 209.378 124.474 208.975 124.735C208.577 124.992 208.267 125.33 208.046 125.75C207.829 126.165 207.719 126.618 207.714 127.108L207.705 128.227C207.699 128.883 207.809 129.442 208.035 129.905C208.265 130.367 208.588 130.721 209.004 130.968C209.419 131.21 209.906 131.334 210.464 131.338C210.827 131.342 211.157 131.293 211.456 131.194C211.756 131.09 212.015 130.934 212.234 130.727C212.453 130.521 212.622 130.264 212.739 129.958L214.545 130.3C214.396 130.832 214.132 131.296 213.753 131.693C213.379 132.086 212.91 132.391 212.345 132.608C211.785 132.82 211.147 132.923 210.431 132.917ZM225.612 136.738C224.832 136.731 224.162 136.623 223.601 136.414C223.045 136.204 222.591 135.93 222.24 135.59C221.89 135.25 221.629 134.879 221.457 134.477L223.106 133.814C223.219 134.002 223.371 134.202 223.561 134.412C223.755 134.627 224.018 134.811 224.349 134.963C224.684 135.115 225.116 135.193 225.644 135.198C226.369 135.204 226.969 135.032 227.445 134.683C227.921 134.338 228.163 133.781 228.169 133.014L228.186 131.084L228.065 131.083C227.948 131.291 227.78 131.522 227.56 131.775C227.345 132.029 227.049 132.248 226.672 132.432C226.295 132.617 225.807 132.706 225.206 132.701C224.43 132.694 223.733 132.507 223.114 132.139C222.499 131.767 222.014 131.224 221.658 130.509C221.306 129.79 221.135 128.909 221.144 127.865C221.153 126.821 221.338 125.927 221.698 125.185C222.063 124.442 222.558 123.876 223.183 123.485C223.809 123.09 224.516 122.895 225.304 122.902C225.914 122.908 226.405 123.014 226.778 123.222C227.151 123.426 227.441 123.662 227.648 123.933C227.858 124.203 228.02 124.441 228.134 124.647L228.274 124.648L228.288 123.056L230.161 123.073L230.073 133.108C230.066 133.951 229.864 134.642 229.467 135.18C229.07 135.718 228.536 136.114 227.865 136.368C227.198 136.622 226.447 136.745 225.612 136.738ZM225.642 131.119C226.191 131.124 226.657 131 227.038 130.748C227.424 130.491 227.717 130.123 227.917 129.643C228.122 129.159 228.227 128.579 228.233 127.901C228.239 127.241 228.146 126.658 227.954 126.154C227.763 125.649 227.478 125.254 227.102 124.97C226.725 124.681 226.257 124.534 225.699 124.529C225.124 124.524 224.643 124.669 224.257 124.964C223.871 125.255 223.578 125.653 223.377 126.158C223.181 126.664 223.08 127.23 223.075 127.856C223.069 128.5 223.162 129.065 223.354 129.552C223.546 130.04 223.832 130.422 224.213 130.698C224.599 130.974 225.075 131.114 225.642 131.119ZM236.772 133.147C235.852 133.139 235.05 132.921 234.368 132.493C233.686 132.065 233.158 131.47 232.785 130.709C232.413 129.947 232.231 129.059 232.24 128.045C232.249 127.026 232.446 126.137 232.832 125.378C233.218 124.618 233.756 124.031 234.445 123.615C235.135 123.199 235.94 122.995 236.861 123.003C237.781 123.011 238.582 123.229 239.265 123.657C239.947 124.085 240.475 124.682 240.847 125.448C241.22 126.214 241.402 127.106 241.393 128.125C241.384 129.139 241.187 130.023 240.801 130.779C240.415 131.534 239.877 132.119 239.187 132.535C238.498 132.951 237.693 133.155 236.772 133.147ZM236.792 131.543C237.389 131.548 237.885 131.395 238.28 131.083C238.674 130.771 238.968 130.354 239.16 129.831C239.356 129.309 239.457 128.732 239.463 128.101C239.468 127.475 239.377 126.899 239.19 126.373C239.007 125.843 238.721 125.417 238.332 125.094C237.943 124.77 237.45 124.606 236.853 124.601C236.252 124.596 235.752 124.751 235.353 125.068C234.958 125.384 234.663 125.805 234.466 126.332C234.274 126.854 234.176 127.429 234.17 128.055C234.165 128.686 234.253 129.264 234.436 129.79C234.623 130.316 234.912 130.738 235.301 131.057C235.694 131.375 236.192 131.537 236.792 131.543ZM247.617 133.242C246.697 133.234 245.896 133.016 245.213 132.588C244.531 132.16 244.003 131.565 243.631 130.803C243.258 130.042 243.076 129.154 243.085 128.139C243.094 127.121 243.291 126.232 243.677 125.473C244.063 124.713 244.601 124.125 245.291 123.71C245.98 123.294 246.785 123.09 247.706 123.098C248.626 123.106 249.428 123.324 250.11 123.752C250.792 124.179 251.32 124.776 251.693 125.542C252.065 126.309 252.247 127.201 252.238 128.219C252.229 129.233 252.032 130.118 251.646 130.873C251.26 131.628 250.722 132.214 250.033 132.63C249.343 133.046 248.538 133.25 247.617 133.242ZM247.638 131.637C248.234 131.643 248.73 131.489 249.125 131.177C249.52 130.865 249.813 130.448 250.005 129.926C250.201 129.403 250.302 128.827 250.308 128.196C250.313 127.57 250.222 126.994 250.035 126.468C249.852 125.938 249.566 125.511 249.177 125.188C248.788 124.865 248.295 124.701 247.698 124.696C247.098 124.691 246.598 124.846 246.198 125.162C245.804 125.478 245.508 125.9 245.312 126.426C245.12 126.949 245.021 127.523 245.015 128.15C245.01 128.78 245.099 129.359 245.282 129.884C245.469 130.41 245.757 130.833 246.146 131.151C246.54 131.47 247.037 131.632 247.638 131.637ZM258.003 133.326C257.21 133.319 256.504 133.11 255.886 132.7C255.271 132.286 254.791 131.7 254.444 130.942C254.101 130.181 253.934 129.27 253.943 128.209C253.953 127.148 254.137 126.241 254.498 125.49C254.862 124.739 255.357 124.166 255.983 123.771C256.608 123.376 257.315 123.182 258.104 123.189C258.713 123.194 259.202 123.3 259.571 123.508C259.944 123.712 260.232 123.949 260.434 124.219C260.641 124.489 260.801 124.727 260.914 124.933L261.029 124.934L261.071 120.069L262.983 120.086L262.868 133.177L261.002 133.16L261.015 131.633L260.855 131.631C260.739 131.839 260.57 132.076 260.351 132.343C260.135 132.609 259.839 132.841 259.462 133.038C259.086 133.235 258.599 133.331 258.003 133.326ZM258.439 131.7C258.988 131.704 259.454 131.564 259.836 131.277C260.222 130.986 260.515 130.582 260.716 130.064C260.921 129.546 261.026 128.942 261.032 128.251C261.038 127.569 260.945 126.972 260.754 126.459C260.562 125.946 260.278 125.545 259.901 125.256C259.524 124.967 259.057 124.821 258.499 124.816C257.923 124.811 257.443 124.956 257.057 125.251C256.671 125.545 256.377 125.95 256.177 126.464C255.98 126.978 255.879 127.559 255.874 128.206C255.868 128.862 255.961 129.453 256.152 129.979C256.344 130.505 256.63 130.923 257.011 131.233C257.396 131.539 257.872 131.695 258.439 131.7ZM47.6109 158.491C46.8183 158.484 46.1127 158.275 45.4941 157.865C44.8798 157.451 44.3991 156.865 44.052 156.107C43.7092 155.346 43.5424 154.435 43.5517 153.374C43.5609 152.312 43.7457 151.406 44.1059 150.655C44.4705 149.904 44.9655 149.331 45.5912 148.936C46.2168 148.541 46.9238 148.347 47.7121 148.354C48.3215 148.359 48.8106 148.465 49.1795 148.673C49.5528 148.877 49.8405 149.114 50.0427 149.384C50.2491 149.654 50.409 149.892 50.5223 150.098L50.6373 150.099L50.6798 145.234L52.5909 145.251L52.4767 158.342L50.6103 158.325L50.6236 156.798L50.4638 156.796C50.3469 157.004 50.1787 157.241 49.959 157.508C49.7436 157.774 49.4475 158.006 49.0708 158.203C48.6941 158.4 48.2074 158.496 47.6109 158.491ZM48.0469 156.865C48.5966 156.869 49.0624 156.729 49.4441 156.442C49.8302 156.151 50.1235 155.747 50.3241 155.229C50.5289 154.711 50.6343 154.107 50.6403 153.416C50.6463 152.734 50.5535 152.137 50.3619 151.624C50.1704 151.111 49.8862 150.71 49.5095 150.421C49.1327 150.132 48.6652 149.985 48.107 149.981C47.5318 149.976 47.0511 150.121 46.665 150.415C46.2788 150.71 45.9855 151.115 45.785 151.629C45.5888 152.143 45.4878 152.723 45.4822 153.371C45.4764 154.027 45.5693 154.618 45.7607 155.144C45.9522 155.67 46.2383 156.088 46.6191 156.398C47.0043 156.704 47.4802 156.86 48.0469 156.865ZM59.434 158.6C58.4667 158.592 57.6355 158.378 56.9402 157.959C56.2493 157.535 55.7175 156.944 55.3449 156.187C54.9765 155.425 54.7967 154.535 54.8056 153.516C54.8144 152.511 55.0096 151.626 55.3913 150.862C55.7773 150.099 56.3109 149.505 56.9922 149.08C57.6777 148.656 58.4764 148.447 59.3883 148.455C59.9423 148.46 60.4784 148.557 60.9967 148.744C61.5149 148.932 61.979 149.224 62.3889 149.619C62.7989 150.015 63.1204 150.527 63.3536 151.156C63.5868 151.78 63.6995 152.537 63.6917 153.428L63.6858 154.105L55.8814 154.037L55.8939 152.605L61.8255 152.657C61.8299 152.154 61.7315 151.708 61.5303 151.319C61.3292 150.925 61.0443 150.613 60.6755 150.384C60.311 150.155 59.8816 150.039 59.3873 150.034C58.8504 150.03 58.3805 150.158 57.9777 150.418C57.5791 150.675 57.2693 151.013 57.0483 151.433C56.8316 151.849 56.7211 152.302 56.7169 152.792L56.7071 153.91C56.7014 154.566 56.8116 155.126 57.0376 155.588C57.268 156.05 57.5909 156.405 58.0064 156.651C58.4219 156.893 58.9088 157.017 59.467 157.022C59.8292 157.025 60.1599 156.977 60.4591 156.877C60.7583 156.773 61.0174 156.618 61.2366 156.411C61.4557 156.204 61.6242 155.948 61.7419 155.642L63.5479 155.983C63.3984 156.515 63.1344 156.979 62.7559 157.376C62.3817 157.77 61.9124 158.074 61.348 158.291C60.7879 158.504 60.1499 158.607 59.434 158.6ZM73.9717 148.711L70.3258 158.497L68.2804 158.479L64.7995 148.63L66.8512 148.648L69.2717 156.225L69.374 156.226L71.9199 148.693L73.9717 148.711ZM79.5778 158.776C78.6105 158.768 77.7792 158.554 77.084 158.134C76.3931 157.711 75.8613 157.12 75.4886 156.363C75.1203 155.601 74.9405 154.711 74.9494 153.692C74.9582 152.687 75.1534 151.802 75.5351 151.038C75.921 150.274 76.4546 149.68 77.1359 149.256C77.8215 148.831 78.6202 148.623 79.5321 148.631C80.086 148.636 80.6222 148.732 81.1404 148.92C81.6587 149.108 82.1228 149.4 82.5327 149.795C82.9426 150.191 83.2642 150.703 83.4973 151.331C83.7305 151.956 83.8432 152.713 83.8355 153.604L83.8295 154.281L76.0252 154.213L76.0376 152.781L81.9692 152.833C81.9736 152.33 81.8752 151.884 81.6741 151.494C81.473 151.101 81.188 150.789 80.8193 150.56C80.4548 150.331 80.0254 150.214 79.5311 150.21C78.9942 150.205 78.5243 150.333 78.1214 150.594C77.7229 150.851 77.4131 151.189 77.1921 151.609C76.9754 152.025 76.8649 152.477 76.8606 152.967L76.8509 154.086C76.8451 154.742 76.9553 155.301 77.1814 155.764C77.4118 156.226 77.7347 156.58 78.1502 156.827C78.5657 157.069 79.0525 157.193 79.6107 157.198C79.973 157.201 80.3036 157.152 80.6028 157.053C80.902 156.949 81.1612 156.793 81.3804 156.587C81.5995 156.38 81.7679 156.123 81.8857 155.818L83.6917 156.159C83.5422 156.691 83.2782 157.155 82.8997 157.552C82.5255 157.945 82.0562 158.25 81.4918 158.467C80.9317 158.679 80.2937 158.782 79.5778 158.776ZM87.9376 145.56L87.8234 158.65L85.9122 158.633L86.0264 145.543L87.9376 145.56ZM94.5282 158.907C93.6078 158.899 92.8064 158.681 92.124 158.253C91.4417 157.825 90.9142 157.23 90.5415 156.468C90.1689 155.707 89.987 154.819 89.9959 153.804C90.0048 152.786 90.2022 151.897 90.5881 151.138C90.974 150.378 91.5118 149.79 92.2015 149.375C92.8912 148.959 93.6963 148.755 94.6167 148.763C95.5372 148.771 96.3386 148.989 97.0209 149.417C97.7033 149.845 98.2308 150.441 98.6034 151.208C98.976 151.974 99.1578 152.866 99.1489 153.884C99.1401 154.898 98.9427 155.783 98.5569 156.538C98.171 157.293 97.6332 157.879 96.9435 158.295C96.2537 158.711 95.4486 158.915 94.5282 158.907ZM94.5486 157.302C95.1452 157.308 95.6409 157.154 96.0356 156.842C96.4304 156.53 96.7238 156.113 96.9159 155.591C97.1122 155.068 97.2132 154.492 97.2187 153.861C97.2241 153.235 97.1333 152.659 96.9461 152.133C96.7632 151.603 96.4771 151.176 96.0879 150.853C95.6987 150.53 95.2058 150.366 94.6092 150.361C94.0084 150.356 93.5084 150.511 93.1093 150.827C92.7145 151.143 92.4189 151.565 92.2225 152.092C92.0305 152.614 91.9317 153.188 91.9262 153.815C91.9207 154.446 92.0095 155.024 92.1924 155.549C92.3796 156.075 92.6678 156.498 93.0571 156.816C93.4506 157.135 93.9478 157.297 94.5486 157.302ZM101.208 162.449L101.325 148.949L103.192 148.966L103.178 150.557L103.338 150.558C103.45 150.355 103.612 150.12 103.823 149.853C104.034 149.587 104.326 149.355 104.699 149.158C105.071 148.956 105.562 148.858 106.172 148.864C106.964 148.871 107.67 149.077 108.288 149.483C108.907 149.889 109.39 150.471 109.737 151.228C110.088 151.985 110.259 152.895 110.25 153.956C110.241 155.017 110.056 155.925 109.696 156.68C109.336 157.431 108.845 158.009 108.223 158.412C107.602 158.812 106.895 159.008 106.102 159.001C105.506 158.996 105.019 158.892 104.641 158.688C104.268 158.485 103.976 158.248 103.765 157.977C103.554 157.707 103.393 157.467 103.279 157.257L103.164 157.256L103.119 162.465L101.208 162.449ZM103.155 153.874C103.149 154.565 103.244 155.171 103.44 155.692C103.636 156.214 103.922 156.623 104.299 156.921C104.675 157.214 105.139 157.363 105.688 157.368C106.259 157.373 106.738 157.225 107.124 156.926C107.51 156.623 107.804 156.21 108.004 155.687C108.209 155.165 108.314 154.576 108.32 153.92C108.326 153.272 108.233 152.689 108.041 152.172C107.854 151.655 107.568 151.245 107.183 150.944C106.802 150.642 106.324 150.489 105.748 150.484C105.194 150.479 104.724 150.617 104.338 150.9C103.957 151.182 103.665 151.578 103.465 152.087C103.265 152.597 103.161 153.193 103.155 153.874ZM112.349 158.864L112.434 149.046L114.269 149.062L114.255 150.66L114.376 150.661C114.586 150.122 114.924 149.703 115.391 149.404C115.858 149.102 116.415 148.953 117.063 148.959C117.719 148.964 118.268 149.123 118.708 149.433C119.153 149.744 119.48 150.169 119.688 150.708L119.79 150.708C120.029 150.186 120.406 149.772 120.92 149.465C121.434 149.155 122.044 149.002 122.752 149.008C123.642 149.016 124.367 149.302 124.924 149.865C125.486 150.428 125.762 151.272 125.752 152.397L125.695 158.98L123.784 158.964L123.84 152.559C123.845 151.894 123.668 151.411 123.309 151.11C122.949 150.808 122.518 150.656 122.015 150.651C121.393 150.646 120.908 150.833 120.559 151.214C120.211 151.59 120.034 152.076 120.029 152.673L119.974 158.931L118.069 158.914L118.126 152.388C118.131 151.855 117.969 151.426 117.639 151.099C117.309 150.772 116.878 150.606 116.346 150.602C115.983 150.599 115.648 150.691 115.34 150.881C115.035 151.065 114.788 151.325 114.598 151.66C114.412 151.995 114.317 152.384 114.313 152.828L114.26 158.881L112.349 158.864ZM132.486 159.238C131.519 159.229 130.687 159.016 129.992 158.596C129.301 158.172 128.769 157.582 128.397 156.824C128.028 156.063 127.849 155.172 127.858 154.154C127.866 153.148 128.062 152.264 128.443 151.5C128.829 150.736 129.363 150.142 130.044 149.718C130.73 149.293 131.528 149.085 132.44 149.093C132.994 149.098 133.53 149.194 134.049 149.382C134.567 149.57 135.031 149.861 135.441 150.257C135.851 150.653 136.172 151.165 136.405 151.793C136.639 152.417 136.751 153.175 136.744 154.065L136.738 154.743L128.933 154.675L128.946 153.243L134.877 153.295C134.882 152.792 134.783 152.346 134.582 151.956C134.381 151.562 134.096 151.251 133.727 151.022C133.363 150.793 132.934 150.676 132.439 150.672C131.902 150.667 131.432 150.795 131.03 151.056C130.631 151.312 130.321 151.651 130.1 152.07C129.884 152.486 129.773 152.939 129.769 153.429L129.759 154.548C129.753 155.204 129.863 155.763 130.09 156.225C130.32 156.688 130.643 157.042 131.058 157.289C131.474 157.531 131.961 157.654 132.519 157.659C132.881 157.662 133.212 157.614 133.511 157.515C133.81 157.411 134.069 157.255 134.288 157.048C134.508 156.841 134.676 156.585 134.794 156.279L136.6 156.621C136.45 157.152 136.186 157.617 135.808 158.014C135.434 158.407 134.964 158.712 134.4 158.929C133.84 159.141 133.202 159.244 132.486 159.238ZM140.782 153.282L140.731 159.112L138.82 159.095L138.906 149.277L140.74 149.293L140.727 150.891L140.848 150.892C141.078 150.374 141.436 149.96 141.92 149.649C142.408 149.338 143.021 149.185 143.759 149.192C144.428 149.198 145.012 149.343 145.513 149.629C146.013 149.91 146.399 150.327 146.671 150.879C146.944 151.431 147.076 152.112 147.069 152.922L147.015 159.167L145.103 159.15L145.156 153.135C145.162 152.424 144.982 151.866 144.614 151.462C144.247 151.054 143.74 150.847 143.092 150.841C142.649 150.838 142.254 150.93 141.907 151.119C141.565 151.308 141.291 151.586 141.088 151.955C140.889 152.32 140.787 152.763 140.782 153.282ZM154.246 149.411L154.233 150.945L148.87 150.898L148.884 149.364L154.246 149.411ZM150.342 147.025L152.253 147.041L152.172 156.329C152.169 156.699 152.222 156.979 152.331 157.167C152.44 157.352 152.582 157.479 152.756 157.548C152.935 157.614 153.128 157.647 153.337 157.649C153.49 157.651 153.625 157.641 153.74 157.621C153.855 157.6 153.945 157.584 154.009 157.572L154.34 159.154C154.229 159.195 154.071 159.237 153.866 159.277C153.661 159.323 153.405 159.346 153.099 159.347C152.596 159.352 152.128 159.258 151.695 159.067C151.262 158.875 150.913 158.583 150.648 158.188C150.383 157.794 150.253 157.301 150.258 156.708L150.342 147.025ZM161.006 162.971L161.124 149.471L162.99 149.487L162.976 151.079L163.136 151.08C163.249 150.877 163.411 150.642 163.622 150.375C163.833 150.108 164.125 149.877 164.497 149.68C164.87 149.478 165.361 149.38 165.97 149.386C166.763 149.392 167.468 149.599 168.087 150.005C168.705 150.411 169.188 150.993 169.535 151.75C169.887 152.507 170.058 153.416 170.049 154.477C170.039 155.538 169.855 156.447 169.494 157.202C169.134 157.953 168.643 158.531 168.022 158.934C167.4 159.334 166.693 159.53 165.901 159.523C165.304 159.518 164.817 159.414 164.44 159.21C164.066 159.006 163.774 158.769 163.564 158.499C163.353 158.229 163.191 157.989 163.078 157.779L162.963 157.778L162.917 162.987L161.006 162.971ZM162.954 154.396C162.948 155.087 163.043 155.693 163.238 156.214C163.434 156.736 163.72 157.145 164.097 157.443C164.474 157.736 164.937 157.885 165.487 157.889C166.058 157.894 166.536 157.747 166.922 157.448C167.309 157.145 167.602 156.732 167.803 156.209C168.007 155.687 168.113 155.098 168.118 154.441C168.124 153.794 168.031 153.211 167.84 152.694C167.652 152.177 167.366 151.767 166.981 151.465C166.6 151.164 166.122 151.011 165.547 151.005C164.993 151.001 164.523 151.139 164.137 151.421C163.755 151.704 163.464 152.1 163.264 152.609C163.063 153.119 162.96 153.715 162.954 154.396ZM172.147 159.386L172.233 149.568L174.08 149.584L174.066 151.144L174.169 151.145C174.352 150.618 174.671 150.205 175.126 149.907C175.584 149.604 176.101 149.455 176.676 149.46C176.796 149.461 176.936 149.466 177.098 149.476C177.264 149.486 177.394 149.498 177.488 149.512L177.472 151.34C177.395 151.318 177.259 151.293 177.063 151.266C176.868 151.234 176.672 151.218 176.476 151.216C176.024 151.212 175.621 151.304 175.265 151.493C174.914 151.677 174.635 151.937 174.427 152.272C174.22 152.603 174.114 152.981 174.111 153.407L174.058 159.403L172.147 159.386ZM181.822 159.688C181.2 159.682 180.639 159.562 180.138 159.328C179.637 159.089 179.242 158.747 178.952 158.301C178.666 157.855 178.526 157.311 178.531 156.667C178.536 156.113 178.647 155.658 178.863 155.302C179.079 154.946 179.369 154.665 179.733 154.46C180.097 154.254 180.503 154.1 180.952 153.997C181.4 153.895 181.857 153.818 182.322 153.766C182.91 153.703 183.388 153.652 183.755 153.613C184.122 153.569 184.389 153.497 184.556 153.396C184.723 153.295 184.807 153.13 184.809 152.9L184.81 152.855C184.815 152.297 184.661 151.863 184.348 151.553C184.04 151.244 183.577 151.086 182.959 151.081C182.315 151.075 181.807 151.213 181.434 151.496C181.065 151.774 180.809 152.085 180.665 152.429L178.872 152.004C179.091 151.409 179.406 150.93 179.818 150.568C180.235 150.2 180.712 149.936 181.251 149.775C181.789 149.609 182.354 149.529 182.947 149.534C183.339 149.537 183.754 149.588 184.192 149.685C184.634 149.779 185.046 149.948 185.427 150.195C185.813 150.441 186.128 150.791 186.371 151.245C186.614 151.694 186.733 152.277 186.726 152.993L186.669 159.513L184.803 159.496L184.815 158.154L184.738 158.153C184.612 158.399 184.425 158.641 184.176 158.877C183.926 159.114 183.607 159.309 183.218 159.463C182.829 159.618 182.364 159.692 181.822 159.688ZM182.251 158.157C182.78 158.162 183.232 158.061 183.609 157.856C183.99 157.65 184.28 157.38 184.479 157.045C184.682 156.706 184.786 156.343 184.789 155.955L184.8 154.689C184.731 154.757 184.599 154.82 184.402 154.878C184.21 154.931 183.99 154.978 183.743 155.019C183.495 155.055 183.254 155.089 183.019 155.121C182.785 155.149 182.588 155.173 182.431 155.193C182.059 155.236 181.72 155.312 181.412 155.42C181.109 155.529 180.864 155.686 180.679 155.893C180.499 156.096 180.407 156.368 180.404 156.709C180.4 157.182 180.571 157.542 180.919 157.788C181.266 158.029 181.71 158.152 182.251 158.157ZM193.349 159.769C192.398 159.761 191.582 159.538 190.9 159.102C190.222 158.661 189.703 158.058 189.343 157.292C188.983 156.526 188.808 155.651 188.816 154.667C188.825 153.67 189.02 152.791 189.402 152.032C189.784 151.268 190.317 150.674 191.003 150.25C191.688 149.825 192.493 149.617 193.418 149.625C194.164 149.632 194.827 149.776 195.409 150.058C195.99 150.336 196.458 150.723 196.811 151.221C197.169 151.718 197.379 152.298 197.442 152.959L195.582 152.942C195.483 152.481 195.252 152.083 194.889 151.747C194.53 151.412 194.045 151.241 193.436 151.236C192.903 151.231 192.435 151.368 192.032 151.646C191.634 151.919 191.321 152.313 191.095 152.827C190.869 153.336 190.753 153.94 190.747 154.639C190.741 155.355 190.844 155.974 191.057 156.495C191.27 157.017 191.573 157.422 191.967 157.711C192.365 158 192.834 158.147 193.376 158.152C193.738 158.155 194.066 158.092 194.362 157.962C194.661 157.829 194.912 157.637 195.115 157.387C195.321 157.138 195.467 156.836 195.551 156.483L197.411 156.5C197.337 157.134 197.125 157.699 196.776 158.194C196.426 158.69 195.961 159.078 195.379 159.358C194.801 159.639 194.124 159.776 193.349 159.769ZM204.096 149.846L204.083 151.38L198.72 151.333L198.733 149.799L204.096 149.846ZM200.192 147.46L202.103 147.476L202.022 156.764C202.019 157.134 202.072 157.414 202.181 157.602C202.29 157.787 202.432 157.914 202.606 157.983C202.784 158.049 202.978 158.082 203.187 158.084C203.34 158.086 203.474 158.076 203.59 158.056C203.705 158.035 203.795 158.019 203.859 158.007L204.19 159.589C204.079 159.63 203.921 159.672 203.716 159.712C203.511 159.758 203.255 159.781 202.948 159.782C202.445 159.787 201.977 159.693 201.544 159.502C201.111 159.31 200.762 159.018 200.497 158.623C200.232 158.229 200.102 157.736 200.107 157.143L200.192 147.46ZM206.124 159.682L206.21 149.865L208.121 149.881L208.036 159.699L206.124 159.682ZM207.188 148.358C206.856 148.355 206.572 148.242 206.335 148.018C206.102 147.79 205.988 147.521 205.99 147.21C205.993 146.895 206.113 146.627 206.349 146.408C206.59 146.184 206.876 146.073 207.208 146.076C207.541 146.079 207.823 146.195 208.056 146.422C208.292 146.646 208.409 146.916 208.406 147.231C208.404 147.542 208.282 147.809 208.041 148.033C207.805 148.253 207.521 148.361 207.188 148.358ZM214.74 159.956C213.79 159.947 212.974 159.725 212.292 159.289C211.614 158.848 211.095 158.245 210.735 157.479C210.375 156.713 210.199 155.838 210.208 154.853C210.217 153.856 210.412 152.978 210.794 152.219C211.175 151.455 211.709 150.861 212.394 150.436C213.08 150.012 213.885 149.804 214.81 149.812C215.555 149.818 216.219 149.963 216.8 150.245C217.382 150.522 217.849 150.91 218.203 151.407C218.561 151.905 218.771 152.484 218.833 153.145L216.973 153.129C216.875 152.668 216.644 152.27 216.281 151.934C215.921 151.599 215.437 151.428 214.828 151.423C214.295 151.418 213.827 151.555 213.424 151.832C213.025 152.106 212.713 152.5 212.487 153.013C212.261 153.523 212.145 154.127 212.139 154.826C212.133 155.541 212.236 156.16 212.449 156.682C212.661 157.204 212.965 157.609 213.358 157.898C213.757 158.187 214.226 158.334 214.767 158.339C215.13 158.342 215.458 158.279 215.753 158.149C216.053 158.015 216.304 157.824 216.506 157.574C216.713 157.324 216.858 157.023 216.942 156.67L218.802 156.686C218.729 157.321 218.517 157.886 218.168 158.381C217.818 158.877 217.352 159.265 216.77 159.545C216.193 159.826 215.516 159.962 214.74 159.956ZM225.049 160.046C224.082 160.037 223.25 159.823 222.555 159.404C221.864 158.98 221.332 158.39 220.96 157.632C220.591 156.87 220.412 155.98 220.42 154.962C220.429 153.956 220.624 153.071 221.006 152.308C221.392 151.544 221.926 150.95 222.607 150.525C223.292 150.101 224.091 149.893 225.003 149.901C225.557 149.906 226.093 150.002 226.611 150.19C227.13 150.377 227.594 150.669 228.004 151.065C228.414 151.46 228.735 151.972 228.968 152.601C229.202 153.225 229.314 153.983 229.306 154.873L229.301 155.551L221.496 155.483L221.509 154.051L227.44 154.103C227.445 153.6 227.346 153.154 227.145 152.764C226.944 152.37 226.659 152.059 226.29 151.83C225.926 151.601 225.496 151.484 225.002 151.48C224.465 151.475 223.995 151.603 223.592 151.864C223.194 152.12 222.884 152.458 222.663 152.878C222.446 153.294 222.336 153.747 222.332 154.237L222.322 155.356C222.316 156.012 222.426 156.571 222.652 157.033C222.883 157.495 223.206 157.85 223.621 158.096C224.037 158.339 224.524 158.462 225.082 158.467C225.444 158.47 225.775 158.422 226.074 158.322C226.373 158.218 226.632 158.063 226.851 157.856C227.071 157.649 227.239 157.393 227.357 157.087L229.163 157.429C229.013 157.96 228.749 158.424 228.371 158.822C227.997 159.215 227.527 159.52 226.963 159.736C226.403 159.949 225.765 160.052 225.049 160.046ZM238.805 152.546L237.07 152.838C237 152.616 236.886 152.404 236.73 152.202C236.579 152 236.371 151.835 236.108 151.704C235.845 151.574 235.516 151.507 235.119 151.504C234.578 151.499 234.125 151.617 233.761 151.856C233.397 152.092 233.213 152.399 233.21 152.779C233.207 153.107 233.326 153.372 233.567 153.574C233.808 153.777 234.199 153.944 234.739 154.077L236.295 154.448C237.197 154.665 237.867 154.993 238.307 155.431C238.746 155.87 238.963 156.436 238.957 157.131C238.952 157.719 238.777 158.241 238.432 158.699C238.091 159.152 237.617 159.505 237.01 159.76C236.407 160.015 235.709 160.139 234.916 160.132C233.817 160.122 232.922 159.88 232.231 159.405C231.541 158.926 231.121 158.251 230.971 157.381L232.82 157.116C232.931 157.598 233.164 157.964 233.52 158.215C233.876 158.461 234.342 158.586 234.917 158.591C235.543 158.597 236.045 158.471 236.422 158.214C236.8 157.954 236.99 157.633 236.993 157.254C236.996 156.947 236.883 156.689 236.655 156.478C236.431 156.267 236.085 156.106 235.617 155.996L233.958 155.617C233.044 155.4 232.369 155.062 231.934 154.602C231.504 154.142 231.292 153.563 231.298 152.864C231.303 152.285 231.469 151.779 231.797 151.347C232.124 150.915 232.575 150.58 233.148 150.343C233.721 150.1 234.376 149.983 235.113 149.989C236.174 149.998 237.008 150.236 237.613 150.701C238.218 151.162 238.616 151.777 238.805 152.546ZM47.8354 185.5C46.8851 185.492 46.0689 185.27 45.3866 184.833C44.7086 184.393 44.1897 183.789 43.8299 183.023C43.4701 182.257 43.2944 181.382 43.303 180.398C43.3117 179.401 43.5069 178.523 43.8886 177.763C44.2702 176.999 44.8038 176.405 45.4894 175.981C46.1749 175.556 46.9801 175.348 47.9047 175.356C48.6504 175.363 49.314 175.507 49.8954 175.789C50.4768 176.067 50.9443 176.455 51.2979 176.952C51.6558 177.449 51.8659 178.029 51.9284 178.69L50.0683 178.674C49.9701 178.212 49.7392 177.814 49.3756 177.479C49.0163 177.143 48.532 176.973 47.9226 176.967C47.39 176.963 46.9222 177.099 46.5192 177.377C46.1204 177.65 45.8081 178.044 45.582 178.558C45.3559 179.067 45.2399 179.671 45.2338 180.37C45.2275 181.086 45.3308 181.705 45.5436 182.227C45.7563 182.748 46.0596 183.154 46.4534 183.443C46.8515 183.732 47.3211 183.878 47.8623 183.883C48.2245 183.886 48.5532 183.823 48.8484 183.694C49.1478 183.56 49.3988 183.368 49.6013 183.118C49.808 182.869 49.9534 182.568 50.0374 182.215L51.8975 182.231C51.8237 182.865 51.6121 183.43 51.2626 183.926C50.9131 184.421 50.4473 184.809 49.8653 185.09C49.2876 185.37 48.6109 185.507 47.8354 185.5ZM58.0479 185.589C57.1275 185.581 56.3261 185.363 55.6437 184.935C54.9613 184.508 54.4338 183.913 54.0612 183.151C53.6886 182.389 53.5067 181.501 53.5155 180.487C53.5244 179.469 53.7218 178.58 54.1077 177.82C54.4936 177.061 55.0314 176.473 55.7212 176.057C56.4109 175.641 57.216 175.437 58.1364 175.446C59.0568 175.454 59.8582 175.671 60.5406 176.099C61.223 176.527 61.7505 177.124 62.123 177.89C62.4956 178.656 62.6775 179.549 62.6686 180.567C62.6598 181.581 62.4624 182.466 62.0765 183.221C61.6907 183.976 61.1529 184.562 60.4631 184.978C59.7734 185.393 58.9683 185.597 58.0479 185.589ZM58.0683 183.985C58.6649 183.99 59.1605 183.837 59.5553 183.525C59.9501 183.213 60.2435 182.796 60.4356 182.273C60.6319 181.751 60.7328 181.174 60.7383 180.544C60.7438 179.917 60.6529 179.341 60.4658 178.815C60.2829 178.285 59.9968 177.859 59.6076 177.536C59.2183 177.213 58.7254 177.049 58.1289 177.044C57.528 177.038 57.0281 177.194 56.629 177.51C56.2342 177.826 55.9386 178.247 55.7422 178.774C55.5502 179.297 55.4514 179.871 55.4459 180.498C55.4404 181.128 55.5291 181.706 55.712 182.232C55.8992 182.758 56.1875 183.18 56.5767 183.499C56.9703 183.818 57.4675 183.98 58.0683 183.985ZM64.7594 185.45L64.8451 175.632L66.6795 175.648L66.6656 177.246L66.787 177.247C66.9963 176.708 67.3345 176.289 67.8016 175.99C68.2687 175.687 68.8262 175.539 69.4739 175.544C70.1301 175.55 70.6785 175.708 71.1189 176.019C71.5637 176.33 71.8903 176.755 72.0986 177.293L72.2009 177.294C72.4398 176.772 72.8163 176.358 73.3304 176.051C73.8445 175.74 74.4552 175.588 75.1626 175.594C76.0532 175.602 76.7773 175.887 77.3349 176.45C77.8967 177.014 78.1728 177.858 78.163 178.983L78.1055 185.566L76.1943 185.55L76.2502 179.145C76.256 178.48 76.0791 177.997 75.7195 177.696C75.3599 177.394 74.9287 177.241 74.4259 177.237C73.8038 177.231 73.3185 177.419 72.97 177.799C72.6215 178.176 72.4447 178.662 72.4394 179.259L72.3848 185.516L70.4801 185.5L70.537 178.974C70.5417 178.441 70.3792 178.011 70.0497 177.685C69.7201 177.358 69.289 177.192 68.7564 177.187C68.3942 177.184 68.0588 177.277 67.7504 177.466C67.4462 177.651 67.1989 177.911 67.0084 178.246C66.8223 178.581 66.7273 178.97 66.7234 179.413L66.6706 185.466L64.7594 185.45ZM84.8967 185.824C83.9294 185.815 83.0981 185.601 82.4029 185.182C81.7119 184.758 81.1801 184.168 80.8075 183.41C80.4391 182.648 80.2594 181.758 80.2683 180.74C80.277 179.734 80.4723 178.849 80.8539 178.086C81.2399 177.322 81.7735 176.728 82.4548 176.303C83.1403 175.879 83.9391 175.671 84.851 175.679C85.4049 175.683 85.941 175.78 86.4593 175.968C86.9776 176.155 87.4416 176.447 87.8516 176.843C88.2615 177.238 88.583 177.75 88.8162 178.379C89.0494 179.003 89.1621 179.76 89.1543 180.651L89.1484 181.329L81.344 181.26L81.3565 179.829L87.2881 179.88C87.2925 179.378 87.1941 178.931 86.9929 178.542C86.7918 178.148 86.5069 177.837 86.1381 177.608C85.7737 177.379 85.3443 177.262 84.85 177.258C84.313 177.253 83.8432 177.381 83.4403 177.642C83.0417 177.898 82.732 178.236 82.511 178.656C82.2943 179.072 82.1838 179.525 82.1795 180.015L82.1697 181.133C82.164 181.79 82.2742 182.349 82.5003 182.811C82.7306 183.273 83.0535 183.628 83.469 183.874C83.8845 184.117 84.3714 184.24 84.9296 184.245C85.2918 184.248 85.6225 184.2 85.9217 184.1C86.2209 183.996 86.4801 183.841 86.6992 183.634C86.9184 183.427 87.0868 183.171 87.2045 182.865L89.0106 183.207C88.861 183.738 88.597 184.202 88.2185 184.6C87.8444 184.993 87.3751 185.298 86.8106 185.514C86.2505 185.727 85.6125 185.83 84.8967 185.824ZM95.9946 185.722L96.0802 175.904L97.9914 175.921L97.9057 185.739L95.9946 185.722ZM97.0586 174.398C96.7262 174.395 96.4417 174.282 96.205 174.058C95.9726 173.83 95.8578 173.561 95.8605 173.25C95.8632 172.934 95.9828 172.667 96.2191 172.447C96.4597 172.224 96.7462 172.113 97.0785 172.116C97.4109 172.119 97.6933 172.234 97.9257 172.462C98.1624 172.686 98.2793 172.956 98.2766 173.271C98.2739 173.582 98.1522 173.849 97.9116 174.073C97.6753 174.293 97.391 174.401 97.0586 174.398ZM102.439 179.949L102.388 185.778L100.477 185.761L100.562 175.944L102.397 175.96L102.383 177.558L102.504 177.559C102.735 177.041 103.092 176.626 103.576 176.315C104.065 176.004 104.678 175.852 105.415 175.858C106.084 175.864 106.669 176.01 107.169 176.295C107.669 176.577 108.056 176.993 108.328 177.546C108.6 178.098 108.733 178.779 108.726 179.588L108.671 185.833L106.76 185.816L106.812 179.802C106.819 179.09 106.638 178.532 106.271 178.128C105.904 177.72 105.396 177.514 104.749 177.508C104.305 177.504 103.91 177.596 103.564 177.785C103.221 177.974 102.948 178.253 102.744 178.622C102.545 178.987 102.443 179.429 102.439 179.949ZM115.903 176.077L115.889 177.612L110.527 177.565L110.54 176.031L115.903 176.077ZM111.999 173.691L113.91 173.708L113.829 182.995C113.826 183.366 113.879 183.645 113.988 183.834C114.097 184.018 114.239 184.145 114.413 184.215C114.591 184.28 114.785 184.314 114.994 184.316C115.147 184.317 115.281 184.307 115.396 184.287C115.512 184.267 115.601 184.251 115.665 184.238L115.997 185.82C115.886 185.862 115.728 185.903 115.523 185.944C115.318 185.989 115.062 186.012 114.755 186.014C114.252 186.018 113.784 185.924 113.351 185.733C112.918 185.542 112.569 185.249 112.304 184.855C112.039 184.46 111.909 183.967 111.914 183.375L111.999 173.691ZM121.96 186.147C121.039 186.139 120.238 185.921 119.555 185.493C118.873 185.065 118.345 184.471 117.973 183.709C117.6 182.947 117.418 182.059 117.427 181.045C117.436 180.026 117.633 179.137 118.019 178.378C118.405 177.619 118.943 177.031 119.633 176.615C120.323 176.199 121.128 175.995 122.048 176.003C122.968 176.011 123.77 176.229 124.452 176.657C125.135 177.085 125.662 177.682 126.035 178.448C126.407 179.214 126.589 180.106 126.58 181.125C126.571 182.139 126.374 183.024 125.988 183.779C125.602 184.534 125.064 185.119 124.375 185.535C123.685 185.951 122.88 186.155 121.96 186.147ZM121.98 184.543C122.576 184.548 123.072 184.395 123.467 184.083C123.862 183.771 124.155 183.354 124.347 182.831C124.544 182.309 124.644 181.732 124.65 181.101C124.655 180.475 124.565 179.899 124.377 179.373C124.195 178.843 123.908 178.417 123.519 178.094C123.13 177.771 122.637 177.606 122.04 177.601C121.44 177.596 120.94 177.751 120.541 178.068C120.146 178.384 119.85 178.805 119.654 179.332C119.462 179.854 119.363 180.429 119.358 181.055C119.352 181.686 119.441 182.264 119.624 182.79C119.811 183.316 120.099 183.738 120.488 184.057C120.882 184.376 121.379 184.538 121.98 184.543ZM133.402 189.731L133.52 176.231L135.387 176.248L135.373 177.839L135.533 177.84C135.645 177.637 135.807 177.402 136.018 177.135C136.229 176.869 136.521 176.637 136.894 176.44C137.266 176.238 137.757 176.14 138.366 176.146C139.159 176.153 139.865 176.359 140.483 176.765C141.102 177.171 141.585 177.753 141.932 178.51C142.283 179.267 142.454 180.177 142.445 181.238C142.436 182.299 142.251 183.207 141.891 183.962C141.53 184.713 141.039 185.291 140.418 185.694C139.797 186.094 139.09 186.29 138.297 186.283C137.7 186.278 137.213 186.174 136.836 185.97C136.463 185.767 136.171 185.53 135.96 185.259C135.749 184.989 135.587 184.749 135.474 184.539L135.359 184.538L135.314 189.747L133.402 189.731ZM135.35 181.156C135.344 181.847 135.439 182.453 135.635 182.974C135.83 183.496 136.117 183.905 136.493 184.203C136.87 184.496 137.333 184.645 137.883 184.65C138.454 184.655 138.933 184.507 139.319 184.208C139.705 183.905 139.998 183.492 140.199 182.969C140.404 182.447 140.509 181.858 140.515 181.202C140.52 180.554 140.427 179.971 140.236 179.454C140.049 178.937 139.762 178.527 139.377 178.226C138.996 177.924 138.518 177.771 137.943 177.766C137.389 177.761 136.919 177.899 136.533 178.182C136.151 178.464 135.86 178.86 135.66 179.369C135.459 179.879 135.356 180.475 135.35 181.156ZM146.569 173.072L146.455 186.163L144.543 186.146L144.658 173.056L146.569 173.072ZM151.881 186.427C151.259 186.422 150.697 186.302 150.197 186.067C149.696 185.829 149.3 185.486 149.01 185.041C148.724 184.595 148.584 184.05 148.59 183.407C148.595 182.853 148.705 182.398 148.921 182.042C149.137 181.686 149.428 181.405 149.792 181.199C150.156 180.994 150.562 180.84 151.01 180.737C151.458 180.634 151.915 180.557 152.38 180.506C152.969 180.443 153.446 180.392 153.813 180.352C154.18 180.309 154.447 180.236 154.614 180.136C154.781 180.035 154.866 179.869 154.868 179.639L154.868 179.594C154.873 179.036 154.719 178.602 154.407 178.293C154.098 177.983 153.635 177.826 153.017 177.82C152.374 177.815 151.865 177.953 151.492 178.235C151.123 178.513 150.867 178.824 150.723 179.168L148.931 178.744C149.149 178.149 149.464 177.67 149.877 177.307C150.293 176.94 150.771 176.676 151.309 176.514C151.847 176.349 152.413 176.268 153.005 176.273C153.397 176.277 153.812 176.327 154.25 176.425C154.693 176.518 155.105 176.688 155.486 176.934C155.872 177.181 156.186 177.531 156.429 177.984C156.672 178.434 156.791 179.017 156.785 179.733L156.728 186.252L154.861 186.236L154.873 184.894L154.796 184.893C154.671 185.139 154.483 185.38 154.234 185.617C153.985 185.853 153.666 186.049 153.276 186.203C152.887 186.357 152.422 186.432 151.881 186.427ZM152.31 184.897C152.838 184.902 153.291 184.801 153.668 184.596C154.049 184.39 154.339 184.12 154.538 183.785C154.741 183.446 154.844 183.082 154.848 182.695L154.859 181.429C154.79 181.497 154.657 181.559 154.461 181.617C154.268 181.671 154.049 181.718 153.801 181.759C153.554 181.795 153.312 181.829 153.078 181.861C152.843 181.889 152.647 181.913 152.489 181.932C152.118 181.976 151.779 182.052 151.471 182.16C151.167 182.268 150.923 182.426 150.738 182.633C150.557 182.836 150.465 183.108 150.462 183.449C150.458 183.922 150.63 184.281 150.977 184.527C151.324 184.769 151.769 184.892 152.31 184.897ZM160.098 189.964C159.812 189.961 159.553 189.935 159.319 189.887C159.085 189.842 158.91 189.794 158.796 189.741L159.27 188.179C159.618 188.276 159.929 188.319 160.202 188.309C160.475 188.299 160.716 188.198 160.927 188.008C161.141 187.819 161.332 187.507 161.497 187.074L161.74 186.424L158.234 176.447L160.279 176.465L162.699 184.105L162.802 184.106L165.355 176.509L167.406 176.527L163.263 187.62C163.071 188.129 162.829 188.56 162.536 188.911C162.243 189.266 161.896 189.532 161.494 189.707C161.091 189.883 160.626 189.968 160.098 189.964ZM169.76 186.487C169.41 186.484 169.111 186.358 168.862 186.109C168.612 185.855 168.489 185.552 168.492 185.198C168.496 184.849 168.624 184.551 168.877 184.306C169.131 184.057 169.433 183.934 169.782 183.937C170.131 183.94 170.431 184.069 170.68 184.322C170.929 184.571 171.052 184.871 171.049 185.22C171.047 185.455 170.986 185.669 170.865 185.864C170.748 186.055 170.593 186.207 170.4 186.32C170.208 186.434 169.994 186.49 169.76 186.487Z" fill="#84793F"/>
<g filter="url(#filter0_f_18_61)">
<rect width="267.022" height="9.99526" transform="matrix(0.998433 -0.0559688 0.0336171 0.999435 20.1831 225.46)" fill="black" fill-opacity="0.1"/>
</g>
<g filter="url(#filter1_f_18_61)">
<rect x="20.2445" y="215.062" width="266.828" height="10" transform="rotate(0.5 20.2445 215.062)" fill="black" fill-opacity="0.1"/>
</g>
<rect x="12.3569" y="191.993" width="283" height="30" transform="rotate(0.5 12.3569 191.993)" fill="#FFF6C8"/>
<defs>
<filter id="filter0_f_18_61" x="10.1831" y="200.515" width="286.939" height="44.9345" filterUnits="userSpaceOnUse" color-interpolation-filters="sRGB">
<feFlood flood-opacity="0" result="BackgroundImageFix"/>
<feBlend mode="normal" in="SourceGraphic" in2="BackgroundImageFix" result="shape"/>
<feGaussianBlur stdDeviation="5" result="effect1_foregroundBlur_18_61"/>
</filter>
<filter id="filter1_f_18_61" x="0.157234" y="195.062" width="306.906" height="52.3281" filterUnits="userSpaceOnUse" color-interpolation-filters="sRGB">
<feFlood flood-opacity="0" result="BackgroundImageFix"/>
<feBlend mode="normal" in="SourceGraphic" in2="BackgroundImageFix" result="shape"/>
<feGaussianBlur stdDeviation="10" result="effect1_foregroundBlur_18_61"/>
</filter>
</defs>
</svg>
