<svg width="371" height="221" viewBox="0 0 371 221" fill="none" xmlns="http://www.w3.org/2000/svg">
<rect width="350" height="165" transform="translate(11.9159) rotate(0.5)" fill="#C8FFF2"/>
<path d="M54.2404 41.8631L51.4408 41.8387C51.3928 41.476 51.2912 41.1534 51.136 40.8708C50.9808 40.5839 50.7805 40.3393 50.5351 40.1368C50.2897 39.9344 50.0056 39.7785 49.6827 39.6691C49.364 39.5598 49.0172 39.5035 48.6422 39.5003C47.9647 39.4943 47.373 39.6575 46.8673 39.9898C46.3615 40.3177 45.9674 40.8001 45.6848 41.4369C45.4023 42.0694 45.2571 42.8395 45.2492 43.7471C45.241 44.6803 45.3727 45.4656 45.6441 46.1029C45.9198 46.7403 46.3077 47.2231 46.8077 47.5513C47.3077 47.8796 47.8879 48.0466 48.5484 48.0523C48.9191 48.0556 49.2626 48.0095 49.5787 47.9143C49.8992 47.8191 50.1838 47.6788 50.4326 47.4935C50.6814 47.3039 50.888 47.0734 51.0523 46.8021C51.2209 46.5308 51.3386 46.2208 51.4056 45.8719L54.2051 45.9091C54.1274 46.5093 53.9412 47.0873 53.6466 47.643C53.3563 48.1944 52.9663 48.6875 52.4767 49.1222C51.9914 49.5526 51.4131 49.8927 50.7419 50.1426C50.0749 50.3882 49.3217 50.5073 48.4823 50.5C47.3147 50.4898 46.273 50.2165 45.3572 49.6801C44.4457 49.1437 43.7279 48.3725 43.204 47.3665C42.6844 46.3605 42.4308 45.1458 42.4432 43.7226C42.4556 42.2951 42.7347 41.083 43.2803 40.0863C43.826 39.0896 44.5613 38.3332 45.4863 37.8171C46.4113 37.2968 47.4491 37.0416 48.5996 37.0516C49.3581 37.0583 50.0603 37.1709 50.7061 37.3896C51.3562 37.6084 51.9309 37.9245 52.4302 38.338C52.9295 38.7472 53.3342 39.2472 53.6444 39.838C53.9589 40.4288 54.1575 41.1038 54.2404 41.8631ZM60.5339 50.618C59.541 50.6093 58.6843 50.3909 57.9635 49.9627C57.2471 49.5303 56.6962 48.9331 56.3108 48.1712C55.9254 47.405 55.7371 46.5191 55.7459 45.5135C55.7547 44.4993 55.9585 43.6147 56.3571 42.8596C56.7558 42.1003 57.3171 41.5128 58.0409 41.0973C58.769 40.6775 59.6295 40.4719 60.6224 40.4806C61.6152 40.4892 62.4699 40.7098 63.1863 41.1422C63.907 41.5703 64.4601 42.1675 64.8454 42.9337C65.2309 43.6956 65.4191 44.5836 65.4103 45.5978C65.4015 46.6035 65.1978 47.4859 64.7991 48.2453C64.4004 49.0004 63.8371 49.5878 63.1089 50.0076C62.3851 50.4232 61.5268 50.6266 60.5339 50.618ZM60.5651 48.5088C61.0168 48.5127 61.395 48.3882 61.6998 48.1351C62.0046 47.8778 62.2357 47.5261 62.393 47.0801C62.5545 46.634 62.6378 46.1255 62.6428 45.5545C62.6478 44.9835 62.5734 44.4736 62.4196 44.0248C62.2701 43.576 62.0453 43.2203 61.745 42.9578C61.4447 42.6952 61.0687 42.5619 60.617 42.558C60.1611 42.554 59.7764 42.6806 59.4631 42.9379C59.154 43.1951 58.9187 43.5468 58.7571 43.9928C58.5998 44.4389 58.5187 44.9475 58.5137 45.5185C58.5087 46.0895 58.581 46.5993 58.7305 47.0481C58.8842 47.4969 59.1134 47.8526 59.4179 48.1152C59.7268 48.3736 60.1091 48.5048 60.5651 48.5088ZM69.9108 44.8317L69.8612 50.5076L67.1383 50.4838L67.224 40.666L69.8191 40.6887L69.8039 42.4208L69.919 42.4218C70.1413 41.8527 70.5096 41.4042 71.0238 41.0763C71.5381 40.7441 72.1596 40.5812 72.8882 40.5876C73.57 40.5935 74.1632 40.7479 74.6676 41.0506C75.1721 41.3533 75.5626 41.7829 75.839 42.3393C76.1154 42.8914 76.2503 43.5489 76.2437 44.3116L76.1891 50.5628L73.4662 50.539L73.5165 44.7736C73.526 44.1728 73.3767 43.7028 73.0686 43.3634C72.7605 43.0198 72.3337 42.8456 71.7883 42.8409C71.4218 42.8377 71.0973 42.9137 70.8147 43.0689C70.5363 43.2241 70.317 43.4523 70.1567 43.7535C70.0007 44.0505 69.9187 44.4098 69.9108 44.8317ZM83.6429 40.8093L83.6251 42.8547L77.7127 42.8031L77.7305 40.7577L83.6429 40.8093ZM79.0933 38.4172L81.8162 38.441L81.7363 47.5941C81.7342 47.8455 81.7708 48.0418 81.8463 48.1831C81.9218 48.3201 82.0275 48.4169 82.1633 48.4735C82.3035 48.5301 82.4652 48.5593 82.6484 48.5609C82.7762 48.562 82.9042 48.5524 83.0322 48.5322C83.1602 48.5078 83.2584 48.4895 83.3267 48.4773L83.7373 50.5072C83.6006 50.5486 83.4084 50.596 83.1607 50.6492C82.9131 50.7067 82.6123 50.7403 82.2585 50.75C81.6021 50.7698 81.0276 50.6775 80.535 50.4729C80.0468 50.2683 79.6681 49.9539 79.3991 49.5297C79.13 49.1055 79.0004 48.5716 79.0103 47.9282L79.0933 38.4172ZM85.331 50.6426L85.4167 40.8248L88.1396 40.8485L88.0539 50.6663L85.331 50.6426ZM86.7955 39.5711C86.3907 39.5676 86.0446 39.4303 85.7572 39.1594C85.4741 38.8842 85.3342 38.5569 85.3375 38.1777C85.3408 37.8027 85.4863 37.4822 85.7742 37.2163C86.0663 36.9461 86.4148 36.8127 86.8196 36.8163C87.2244 36.8198 87.5684 36.9592 87.8515 37.2344C88.1389 37.5054 88.281 37.8284 88.2777 38.2033C88.2744 38.5826 88.1267 38.9073 87.8345 39.1775C87.5467 39.4435 87.2004 39.5747 86.7955 39.5711ZM93.0075 45.0332L92.958 50.7091L90.2351 50.6854L90.3208 40.8676L92.9158 40.8902L92.9007 42.6224L93.0158 42.6234C93.2381 42.0543 93.6064 41.6058 94.1206 41.2779C94.6349 40.9457 95.2564 40.7828 95.985 40.7892C96.6668 40.7951 97.2599 40.9494 97.7644 41.2521C98.2689 41.5549 98.6593 41.9844 98.9358 42.5408C99.2122 43.093 99.3471 43.7504 99.3404 44.5132L99.2859 50.7644L96.563 50.7406L96.6133 44.9752C96.6228 44.3744 96.4735 43.9043 96.1653 43.565C95.8573 43.2214 95.4305 43.0472 94.8851 43.0424C94.5186 43.0392 94.1941 43.1152 93.9114 43.2704C93.6331 43.4257 93.4138 43.6539 93.2535 43.9551C93.0974 44.252 93.0155 44.6114 93.0075 45.0332ZM107.764 46.6578L107.814 41.0202L110.536 41.044L110.451 50.8618L107.837 50.839L107.852 49.0557L107.75 49.0548C107.523 49.6281 107.151 50.0872 106.632 50.4322C106.118 50.7771 105.492 50.9464 104.755 50.9399C104.098 50.9342 103.522 50.78 103.026 50.4774C102.53 50.1748 102.144 49.7474 101.868 49.1952C101.595 48.6431 101.461 47.9835 101.463 47.2165L101.518 40.9653L104.241 40.989L104.19 46.7545C104.189 47.334 104.341 47.7935 104.645 48.1328C104.949 48.4721 105.358 48.644 105.874 48.6485C106.202 48.6513 106.51 48.5795 106.796 48.4328C107.083 48.2819 107.315 48.0581 107.493 47.7613C107.674 47.4646 107.765 47.0967 107.764 46.6578ZM117.063 51.1113C116.07 51.1026 115.213 50.8842 114.493 50.456C113.776 50.0236 113.225 49.4264 112.84 48.6645C112.454 47.8983 112.266 47.0124 112.275 46.0068C112.284 44.9926 112.488 44.108 112.886 43.3529C113.285 42.5936 113.846 42.0062 114.57 41.5906C115.298 41.1708 116.159 40.9652 117.151 40.9739C118.144 40.9825 118.999 41.2031 119.715 41.6355C120.436 42.0637 120.989 42.6608 121.375 43.427C121.76 44.1889 121.948 45.077 121.939 46.0911C121.931 47.0968 121.727 47.9793 121.328 48.7386C120.93 49.4937 120.366 50.0811 119.638 50.5009C118.914 50.9165 118.056 51.1199 117.063 51.1113ZM117.094 49.0021C117.546 49.006 117.924 48.8815 118.229 48.6285C118.534 48.3712 118.765 48.0195 118.922 47.5734C119.084 47.1273 119.167 46.6188 119.172 46.0478C119.177 45.4768 119.102 44.9669 118.949 44.5181C118.799 44.0693 118.574 43.7137 118.274 43.4511C117.974 43.1885 117.598 43.0553 117.146 43.0513C116.69 43.0473 116.306 43.174 115.992 43.4312C115.683 43.6884 115.448 44.0401 115.286 44.4861C115.129 44.9322 115.048 45.4408 115.043 46.0118C115.038 46.5828 115.11 47.0927 115.26 47.5414C115.413 47.9902 115.642 48.3459 115.947 48.6085C116.256 48.8669 116.638 48.9981 117.094 49.0021ZM130 46.8518L130.049 41.2143L132.772 41.238L132.686 51.0558L130.072 51.033L130.088 49.2497L129.985 49.2488C129.759 49.8222 129.386 50.2813 128.867 50.6262C128.353 50.9712 127.727 51.1404 126.99 51.134C126.334 51.1283 125.758 50.9741 125.262 50.6714C124.766 50.3688 124.38 49.9414 124.103 49.3893C123.831 48.8372 123.696 48.1776 123.699 47.4105L123.753 41.1593L126.476 41.1831L126.426 46.9485C126.425 47.5281 126.576 47.9875 126.88 48.3268C127.184 48.6661 127.594 48.838 128.109 48.8425C128.438 48.8454 128.745 48.7735 129.032 48.6268C129.319 48.4759 129.551 48.2521 129.728 47.9553C129.91 47.6586 130 47.2908 130 46.8518ZM143.094 44.1279L140.6 44.2596C140.559 44.0462 140.469 43.8536 140.33 43.6819C140.191 43.506 140.007 43.3659 139.778 43.2616C139.553 43.1531 139.283 43.0975 138.967 43.0947C138.546 43.0911 138.189 43.1774 137.898 43.3539C137.606 43.5261 137.459 43.7592 137.457 44.0532C137.455 44.2875 137.547 44.4865 137.733 44.6501C137.919 44.8136 138.24 44.9464 138.695 45.0484L140.468 45.4218C141.421 45.6262 142.13 45.9477 142.595 46.3865C143.06 46.8252 143.289 47.3982 143.283 48.1056C143.278 48.749 143.083 49.312 142.7 49.7945C142.32 50.277 141.801 50.6517 141.143 50.9187C140.489 51.1815 139.735 51.3091 138.883 51.3017C137.583 51.2904 136.55 51.0107 135.784 50.4628C135.021 49.9107 134.578 49.1653 134.454 48.2267L137.134 48.1095C137.211 48.5065 137.405 48.8107 137.714 49.0222C138.023 49.2295 138.421 49.3352 138.907 49.3395C139.384 49.3436 139.768 49.2554 140.059 49.0747C140.355 48.8897 140.506 48.6503 140.513 48.3563C140.511 48.1091 140.408 47.9058 140.205 47.7463C140.002 47.5826 139.688 47.4563 139.263 47.3674L137.565 47.0138C136.608 46.8136 135.897 46.475 135.433 45.9979C134.972 45.5209 134.745 44.9159 134.752 44.183C134.757 43.5523 134.932 43.0105 135.277 42.5575C135.627 42.1046 136.113 41.7573 136.738 41.5156C137.366 41.2739 138.1 41.1567 138.94 41.164C140.18 41.1748 141.153 41.4454 141.86 41.9758C142.571 42.5061 142.983 43.2235 143.094 44.1279ZM153.829 51.2404L149.188 51.1999L149.303 38.1094L153.981 38.1503C155.298 38.1618 156.429 38.4337 157.375 38.9661C158.321 39.4943 159.045 40.2485 159.548 41.2288C160.055 42.2091 160.302 43.3789 160.291 44.7383C160.279 46.1018 160.011 47.2714 159.486 48.247C158.967 49.2226 158.225 49.9683 157.262 50.4841C156.303 50.9999 155.158 51.252 153.829 51.2404ZM151.977 48.8527L153.734 48.868C154.553 48.8751 155.242 48.7363 155.803 48.4514C156.368 48.1623 156.794 47.7121 157.08 47.101C157.371 46.4856 157.521 45.69 157.529 44.7142C157.538 43.7469 157.402 42.9552 157.122 42.3391C156.846 41.723 156.43 41.2676 155.874 40.973C155.319 40.6784 154.632 40.5275 153.814 40.5204L152.049 40.505L151.977 48.8527ZM166.705 51.5445C165.695 51.5357 164.828 51.3236 164.102 50.9081C163.382 50.4885 162.829 49.8998 162.443 49.1422C162.058 48.3802 161.869 47.4815 161.878 46.4461C161.887 45.4362 162.091 44.5515 162.49 43.7922C162.888 43.0329 163.445 42.4433 164.161 42.0233C164.88 41.6035 165.722 41.3977 166.685 41.4061C167.332 41.4118 167.934 41.5215 168.491 41.7351C169.052 41.9446 169.539 42.2578 169.953 42.6748C170.371 43.0918 170.695 43.6145 170.924 44.243C171.153 44.8671 171.263 45.5968 171.256 46.432L171.25 47.1799L162.959 47.1075L162.974 45.4201L168.701 45.4701C168.705 45.078 168.622 44.73 168.455 44.426C168.287 44.1219 168.052 43.8834 167.751 43.7103C167.455 43.533 167.108 43.4426 166.712 43.4391C166.298 43.4355 165.931 43.5282 165.61 43.7172C165.293 43.9019 165.044 44.1533 164.862 44.4713C164.68 44.7851 164.585 45.1358 164.578 45.5236L164.564 47.1279C164.559 47.6137 164.645 48.0342 164.821 48.3894C165.001 48.7447 165.257 49.0197 165.587 49.2143C165.918 49.409 166.311 49.5083 166.767 49.5123C167.07 49.5149 167.347 49.4747 167.599 49.3917C167.852 49.3087 168.068 49.1827 168.248 49.0138C168.429 48.8449 168.567 48.6373 168.663 48.391L171.18 48.5792C171.047 49.1831 170.78 49.7092 170.38 50.1575C169.984 50.6015 169.474 50.9465 168.849 51.1925C168.229 51.4342 167.515 51.5516 166.705 51.5445ZM175.827 38.3409L175.713 51.4313L172.99 51.4076L173.104 38.3172L175.827 38.3409ZM177.894 51.4504L177.98 41.6326L180.702 41.6563L180.617 51.4741L177.894 51.4504ZM179.358 40.3789C178.954 40.3754 178.607 40.2381 178.32 39.9671C178.037 39.6919 177.897 39.3647 177.9 38.9855C177.904 38.6105 178.049 38.29 178.337 38.024C178.629 37.7538 178.978 37.6205 179.382 37.6241C179.787 37.6276 180.131 37.767 180.414 38.0422C180.702 38.3131 180.844 38.6361 180.841 39.0111C180.837 39.3904 180.69 39.7151 180.397 39.9853C180.11 40.2512 179.763 40.3825 179.358 40.3789ZM192.037 41.7552L188.519 51.5431L185.451 51.5163L182.104 41.6686L184.98 41.6937L186.958 48.736L187.06 48.7369L189.154 41.7301L192.037 41.7552ZM197.501 51.8132C196.491 51.8044 195.623 51.5923 194.898 51.1769C194.177 50.7572 193.624 50.1686 193.239 49.4109C192.853 48.649 192.665 47.7503 192.674 46.7148C192.683 45.7049 192.887 44.8203 193.285 44.061C193.684 43.3016 194.241 42.712 194.956 42.2921C195.676 41.8722 196.517 41.6665 197.48 41.6749C198.128 41.6805 198.73 41.7902 199.287 42.0039C199.847 42.2133 200.335 42.5265 200.749 42.9435C201.167 43.3605 201.49 43.8833 201.719 44.5117C201.948 45.1359 202.059 45.8656 202.052 46.7008L202.045 47.4486L193.755 47.3763L193.77 45.6888L199.497 45.7388C199.5 45.3468 199.418 44.9987 199.25 44.6947C199.083 44.3907 198.848 44.1521 198.547 43.979C198.25 43.8017 197.904 43.7113 197.507 43.7079C197.094 43.7043 196.727 43.797 196.406 43.9859C196.089 44.1707 195.839 44.422 195.657 44.7401C195.476 45.0538 195.381 45.4046 195.373 45.7923L195.359 47.3967C195.355 47.8824 195.441 48.3029 195.617 48.6582C195.797 49.0135 196.052 49.2884 196.383 49.4831C196.714 49.6777 197.107 49.7771 197.563 49.781C197.866 49.7837 198.143 49.7435 198.395 49.6605C198.647 49.5774 198.864 49.4515 199.044 49.2826C199.225 49.1137 199.363 48.9061 199.459 48.6598L201.976 48.8479C201.842 49.4519 201.576 49.978 201.176 50.4262C200.78 50.8702 200.269 51.2152 199.645 51.4612C199.025 51.703 198.31 51.8203 197.501 51.8132ZM203.785 51.6763L203.871 41.8585L206.511 41.8815L206.496 43.5946L206.598 43.5954C206.783 42.9877 207.087 42.5301 207.512 42.2227C207.936 41.911 208.423 41.7576 208.973 41.7624C209.109 41.7636 209.256 41.7734 209.414 41.7918C209.571 41.8102 209.71 41.8349 209.829 41.8658L209.808 44.2819C209.68 44.2424 209.504 44.2068 209.278 44.175C209.052 44.1432 208.846 44.1264 208.658 44.1248C208.258 44.1213 207.899 44.2055 207.582 44.3775C207.27 44.5452 207.02 44.7817 206.835 45.0869C206.653 45.3922 206.56 45.7451 206.557 46.1456L206.508 51.7001L203.785 51.6763ZM213.098 55.4395C212.753 55.4365 212.429 55.406 212.127 55.348C211.829 55.2942 211.583 55.226 211.388 55.1434L212.019 53.1161C212.338 53.2169 212.625 53.2727 212.88 53.2834C213.14 53.2942 213.365 53.2365 213.553 53.1103C213.746 52.9842 213.903 52.7682 214.025 52.4624L214.189 52.0484L210.755 41.9186L213.619 41.9436L215.588 49.1713L215.691 49.1722L217.805 41.9801L220.688 42.0053L216.777 52.8508C216.589 53.3776 216.336 53.8356 216.017 54.2249C215.703 54.6185 215.306 54.9197 214.827 55.1286C214.348 55.3418 213.771 55.4454 213.098 55.4395ZM42.4453 104.27L42.5596 91.18L44.5347 91.1972L44.4801 97.4484L44.6399 97.4498L50.185 91.2465L52.6714 91.2682L47.3404 97.1154L52.5764 104.359L50.1986 104.338L46.0183 98.4526L44.4559 100.216L44.4204 104.288L42.4453 104.27ZM57.7536 104.602C56.7863 104.594 55.955 104.38 55.2598 103.96C54.5689 103.537 54.0371 102.946 53.6644 102.189C53.296 101.427 53.1163 100.537 53.1252 99.5182C53.134 98.5126 53.3292 97.6279 53.7109 96.8641C54.0968 96.1004 54.6304 95.5064 55.3117 95.0819C55.9973 94.6575 56.796 94.4492 57.7079 94.4572C58.2618 94.462 58.7979 94.5583 59.3162 94.7461C59.8345 94.9338 60.2986 95.2255 60.7085 95.6212C61.1184 96.0168 61.4399 96.5289 61.6731 97.1574C61.9063 97.7816 62.019 98.539 62.0112 99.4296L62.0053 100.107L54.2009 100.039L54.2134 98.6072L60.145 98.659C60.1494 98.1562 60.051 97.71 59.8499 97.3204C59.6488 96.9266 59.3638 96.6152 58.9951 96.3861C58.6306 96.157 58.2012 96.0404 57.7069 96.0361C57.17 96.0314 56.7001 96.1594 56.2972 96.4201C55.8987 96.6766 55.5889 97.0148 55.3679 97.4347C55.1512 97.8505 55.0407 98.3034 55.0364 98.7934L55.0266 99.912C55.0209 100.568 55.1311 101.127 55.3572 101.59C55.5875 102.052 55.9105 102.406 56.3259 102.653C56.7414 102.895 57.2283 103.019 57.7865 103.024C58.1487 103.027 58.4794 102.978 58.7786 102.879C59.0778 102.775 59.337 102.619 59.5561 102.413C59.7753 102.206 59.9437 101.949 60.0614 101.643L61.8675 101.985C61.718 102.517 61.4539 102.981 61.0755 103.378C60.7013 103.771 60.232 104.076 59.6676 104.293C59.1075 104.505 58.4695 104.608 57.7536 104.602ZM68.3176 104.694C67.3503 104.686 66.5191 104.472 65.8238 104.053C65.1329 103.629 64.6011 103.038 64.2285 102.281C63.8601 101.519 63.6803 100.629 63.6892 99.6104C63.698 98.6048 63.8932 97.7201 64.2749 96.9563C64.6609 96.1926 65.1945 95.5985 65.8758 95.1741C66.5613 94.7496 67.36 94.5414 68.2719 94.5494C68.8259 94.5542 69.362 94.6505 69.8803 94.8383C70.3985 95.026 70.8626 95.3177 71.2725 95.7134C71.6825 96.109 72.004 96.6211 72.2371 97.2496C72.4703 97.8738 72.5831 98.6312 72.5753 99.5218L72.5694 100.199L64.765 100.131L64.7775 98.6994L70.7091 98.7512C70.7135 98.2484 70.6151 97.8022 70.4139 97.4126C70.2128 97.0188 69.9279 96.7074 69.5591 96.4783C69.1946 96.2492 68.7652 96.1326 68.2709 96.1282C67.734 96.1236 67.2641 96.2516 66.8613 96.5123C66.4627 96.7687 66.1529 97.107 65.9319 97.5269C65.7152 97.9427 65.6047 98.3956 65.6005 98.8856L65.5907 100.004C65.585 100.66 65.6952 101.22 65.9212 101.682C66.1516 102.144 66.4745 102.498 66.89 102.745C67.3055 102.987 67.7924 103.111 68.3506 103.116C68.7128 103.119 69.0435 103.071 69.3427 102.971C69.6419 102.867 69.901 102.712 70.1202 102.505C70.3393 102.298 70.5078 102.041 70.6255 101.736L72.4315 102.077C72.282 102.609 72.018 103.073 71.6395 103.47C71.2653 103.863 70.796 104.168 70.2316 104.385C69.6715 104.597 69.0335 104.701 68.3176 104.694ZM74.6199 108.233L74.7377 94.7336L76.6041 94.7499L76.5902 96.3415L76.75 96.3429C76.8626 96.1393 77.0245 95.9042 77.2356 95.6376C77.4467 95.3709 77.7386 95.1391 78.111 94.9421C78.4835 94.7408 78.9745 94.6428 79.5838 94.6481C80.3764 94.655 81.082 94.8614 81.7007 95.2674C82.3193 95.6734 82.8022 96.2551 83.1493 97.0124C83.5006 97.7697 83.6717 98.6789 83.6624 99.74C83.6531 100.801 83.4684 101.709 83.1081 102.465C82.7478 103.216 82.257 103.793 81.6355 104.197C81.0141 104.596 80.3071 104.793 79.5145 104.786C78.918 104.78 78.4309 104.676 78.0534 104.472C77.6802 104.269 77.3882 104.032 77.1775 103.762C76.9668 103.491 76.8048 103.251 76.6916 103.041L76.5765 103.04L76.5311 108.25L74.6199 108.233ZM76.5677 99.6589C76.5616 100.349 76.6565 100.955 76.8522 101.477C77.048 101.998 77.3342 102.408 77.7109 102.705C78.0876 102.998 78.5508 103.147 79.1005 103.152C79.6715 103.157 80.1501 103.01 80.5362 102.711C80.9224 102.407 81.2158 101.994 81.4164 101.472C81.6212 100.949 81.7265 100.36 81.7322 99.704C81.7379 99.0562 81.645 98.4737 81.4535 97.9564C81.2662 97.4391 80.98 97.0297 80.5948 96.728C80.2139 96.4264 79.7358 96.273 79.1606 96.268C78.6066 96.2632 78.1366 96.4019 77.7506 96.684C77.3689 96.9662 77.0778 97.3621 76.8773 97.8717C76.6768 98.3814 76.5736 98.9771 76.5677 99.6589ZM93.1827 97.2917L91.4479 97.5834C91.3773 97.3612 91.2641 97.1493 91.1082 96.9476C90.9566 96.746 90.7492 96.5801 90.4861 96.45C90.223 96.3198 89.8934 96.253 89.4971 96.2496C88.9559 96.2448 88.5031 96.3623 88.1388 96.6021C87.7745 96.8375 87.5907 97.1449 87.5874 97.5241C87.5846 97.8523 87.7037 98.1175 87.9448 98.3199C88.186 98.5223 88.5766 98.6898 89.1166 98.8223L90.6731 99.1939C91.5747 99.4106 92.2451 99.7382 92.6845 100.177C93.1239 100.615 93.3405 101.182 93.3345 101.876C93.3293 102.464 93.1543 102.987 92.8094 103.444C92.4688 103.897 91.9948 104.251 91.3874 104.506C90.7843 104.76 90.0865 104.884 89.2939 104.877C88.1945 104.868 87.2996 104.626 86.6091 104.151C85.9187 103.672 85.4984 102.997 85.3483 102.126L87.198 101.861C87.3089 102.344 87.5422 102.71 87.898 102.96C88.2538 103.206 88.7193 103.332 89.2946 103.337C89.921 103.342 90.4228 103.217 90.8001 102.96C91.1774 102.699 91.3677 102.379 91.371 102C91.3736 101.693 91.2608 101.434 91.0326 101.223C90.8085 101.013 90.4626 100.852 89.9948 100.741L88.3361 100.362C87.4218 100.146 86.7472 99.8074 86.3122 99.3476C85.8816 98.8879 85.6693 98.3086 85.6754 97.6097C85.6804 97.0302 85.8468 96.5245 86.1744 96.0927C86.5021 95.6609 86.9525 95.326 87.5256 95.0881C88.0987 94.846 88.7539 94.7281 89.4911 94.7345C90.5521 94.7438 91.3853 94.9812 91.9907 95.4467C92.596 95.908 92.9934 96.523 93.1827 97.2917ZM101.35 108.466C101.065 108.464 100.805 108.438 100.571 108.389C100.337 108.345 100.163 108.296 100.048 108.244L100.522 106.682C100.871 106.779 101.182 106.822 101.454 106.812C101.727 106.801 101.969 106.701 102.179 106.511C102.394 106.321 102.584 106.01 102.75 105.577L102.992 104.927L99.4868 94.9496L101.532 94.9675L103.952 102.608L104.054 102.609L106.607 95.0118L108.659 95.0297L104.516 106.122C104.324 106.632 104.082 107.063 103.789 107.414C103.496 107.769 103.148 108.035 102.746 108.21C102.344 108.386 101.879 108.471 101.35 108.466ZM114.169 105.094C113.249 105.086 112.447 104.868 111.765 104.441C111.083 104.013 110.555 103.418 110.183 102.656C109.81 101.894 109.628 101.006 109.637 99.9922C109.646 98.9738 109.843 98.0849 110.229 97.3254C110.615 96.566 111.153 95.9783 111.843 95.5624C112.532 95.1466 113.337 94.9426 114.258 94.9507C115.178 94.9587 115.98 95.1766 116.662 95.6045C117.344 96.0323 117.872 96.6293 118.244 97.3954C118.617 98.1614 118.799 99.0537 118.79 100.072C118.781 101.086 118.584 101.971 118.198 102.726C117.812 103.481 117.274 104.067 116.584 104.483C115.895 104.899 115.09 105.102 114.169 105.094ZM114.19 103.49C114.786 103.495 115.282 103.342 115.677 103.03C116.071 102.718 116.365 102.301 116.557 101.779C116.753 101.256 116.854 100.68 116.86 100.049C116.865 99.4225 116.774 98.8464 116.587 98.3206C116.404 97.7905 116.118 97.364 115.729 97.041C115.34 96.718 114.847 96.5539 114.25 96.5487C113.649 96.5434 113.149 96.6989 112.75 97.015C112.356 97.3312 112.06 97.7526 111.864 98.2793C111.671 98.8018 111.573 99.3763 111.567 100.003C111.562 100.633 111.65 101.212 111.833 101.737C112.021 102.263 112.309 102.685 112.698 103.004C113.092 103.323 113.589 103.485 114.19 103.49ZM127.135 100.938L127.186 95.1913L129.103 95.2081L129.018 105.026L127.138 105.009L127.153 103.309L127.051 103.308C126.82 103.831 126.454 104.264 125.953 104.609C125.456 104.95 124.838 105.117 124.101 105.111C123.47 105.105 122.913 104.962 122.43 104.681C121.951 104.395 121.575 103.977 121.303 103.424C121.035 102.872 120.905 102.191 120.912 101.382L120.966 95.1371L122.878 95.1537L122.825 101.168C122.819 101.837 123 102.372 123.367 102.771C123.734 103.171 124.214 103.373 124.807 103.378C125.165 103.381 125.521 103.295 125.876 103.119C126.236 102.943 126.534 102.675 126.772 102.315C127.014 101.955 127.135 101.496 127.135 100.938ZM131.585 105.048L131.671 95.2305L133.518 95.2466L133.505 96.8062L133.607 96.8071C133.791 96.2803 134.11 95.8676 134.564 95.569C135.022 95.2661 135.539 95.1172 136.115 95.1222C136.234 95.1233 136.375 95.1288 136.536 95.1387C136.703 95.1487 136.832 95.1605 136.926 95.1741L136.91 97.0021C136.834 96.9801 136.697 96.9555 136.502 96.9282C136.306 96.8967 136.11 96.8801 135.914 96.8784C135.462 96.8744 135.059 96.9668 134.703 97.1555C134.352 97.3399 134.073 97.5995 133.866 97.9344C133.658 98.265 133.553 98.6433 133.549 99.0695L133.497 105.065L131.585 105.048ZM147.925 95.3723L147.912 96.9064L142.549 96.8596L142.563 95.3255L147.925 95.3723ZM144.021 92.9859L145.933 93.0026L145.852 102.29C145.848 102.661 145.901 102.94 146.01 103.129C146.12 103.313 146.261 103.44 146.435 103.509C146.614 103.575 146.807 103.609 147.016 103.61C147.17 103.612 147.304 103.602 147.419 103.582C147.534 103.562 147.624 103.545 147.688 103.533L148.019 105.115C147.908 105.157 147.75 105.198 147.545 105.239C147.34 105.284 147.084 105.307 146.778 105.309C146.275 105.313 145.807 105.219 145.374 105.028C144.941 104.837 144.592 104.544 144.327 104.15C144.062 103.755 143.932 103.262 143.937 102.669L144.021 92.9859ZM154.078 105.443C153.111 105.434 152.279 105.22 151.584 104.801C150.893 104.377 150.362 103.787 149.989 103.029C149.62 102.267 149.441 101.377 149.45 100.359C149.458 99.3532 149.654 98.4685 150.035 97.7048C150.421 96.941 150.955 96.347 151.636 95.9225C152.322 95.4981 153.12 95.2898 154.032 95.2978C154.586 95.3026 155.122 95.3989 155.641 95.5867C156.159 95.7745 156.623 96.0662 157.033 96.4618C157.443 96.8574 157.764 97.3695 157.998 97.998C158.231 98.6222 158.343 99.3796 158.336 100.27L158.33 100.948L150.525 100.88L150.538 99.4478L156.469 99.4996C156.474 98.9968 156.375 98.5506 156.174 98.161C155.973 97.7672 155.688 97.4558 155.32 97.2267C154.955 96.9977 154.526 96.881 154.031 96.8767C153.494 96.872 153.025 97 152.622 97.2607C152.223 97.5172 151.913 97.8554 151.692 98.2753C151.476 98.6911 151.365 99.144 151.361 99.634L151.351 100.753C151.345 101.409 151.456 101.968 151.682 102.43C151.912 102.892 152.235 103.247 152.65 103.493C153.066 103.736 153.553 103.859 154.111 103.864C154.473 103.867 154.804 103.819 155.103 103.719C155.402 103.615 155.661 103.46 155.881 103.253C156.1 103.046 156.268 102.79 156.386 102.484L158.192 102.826C158.042 103.357 157.778 103.822 157.4 104.219C157.026 104.612 156.556 104.917 155.992 105.133C155.432 105.346 154.794 105.449 154.078 105.443ZM163.268 105.542C162.646 105.537 162.084 105.417 161.583 105.182C161.082 104.943 160.687 104.601 160.397 104.156C160.111 103.71 159.971 103.165 159.976 102.522C159.981 101.968 160.092 101.513 160.308 101.157C160.524 100.801 160.814 100.52 161.178 100.314C161.542 100.109 161.948 99.9544 162.397 99.8518C162.845 99.7491 163.302 99.6722 163.767 99.6208C164.355 99.5578 164.833 99.5065 165.2 99.4671C165.567 99.4235 165.834 99.3512 166.001 99.2504C166.168 99.1496 166.253 98.9841 166.255 98.754L166.255 98.7093C166.26 98.151 166.106 97.7172 165.793 97.4076C165.485 97.0981 165.022 96.9406 164.404 96.9352C163.76 96.9296 163.252 97.0679 162.879 97.3502C162.51 97.6282 162.254 97.9392 162.11 98.2832L160.318 97.8584C160.536 97.2637 160.851 96.7849 161.263 96.422C161.68 96.0549 162.157 95.7906 162.696 95.6291C163.234 95.4633 163.8 95.383 164.392 95.3882C164.784 95.3916 165.199 95.4421 165.637 95.5397C166.079 95.633 166.491 95.8028 166.873 96.0491C167.258 96.2953 167.573 96.6454 167.816 97.0992C168.059 97.5488 168.178 98.1316 168.171 98.8474L168.115 105.367L166.248 105.351L166.26 104.009L166.183 104.008C166.057 104.254 165.87 104.495 165.621 104.732C165.371 104.968 165.052 105.163 164.663 105.318C164.274 105.472 163.809 105.547 163.268 105.542ZM163.697 104.012C164.225 104.016 164.678 103.916 165.054 103.71C165.435 103.505 165.725 103.235 165.924 102.9C166.128 102.561 166.231 102.197 166.234 101.809L166.245 100.544C166.177 100.611 166.044 100.674 165.847 100.732C165.655 100.786 165.435 100.833 165.188 100.873C164.94 100.91 164.699 100.944 164.465 100.976C164.23 101.003 164.034 101.027 163.876 101.047C163.505 101.091 163.165 101.167 162.857 101.275C162.554 101.383 162.31 101.541 162.125 101.748C161.944 101.951 161.852 102.223 161.849 102.564C161.845 103.037 162.016 103.396 162.364 103.642C162.711 103.884 163.155 104.007 163.697 104.012ZM170.66 105.389L170.746 95.5715L172.58 95.5875L172.566 97.1854L172.688 97.1865C172.897 96.6471 173.235 96.2282 173.702 95.9297C174.169 95.6269 174.727 95.4784 175.375 95.484C176.031 95.4898 176.579 95.648 177.02 95.9586C177.464 96.2693 177.791 96.6941 177.999 97.2329L178.102 97.2337C178.341 96.7117 178.717 96.2973 179.231 95.9907C179.745 95.6799 180.356 95.5275 181.063 95.5337C181.954 95.5414 182.678 95.8269 183.236 96.39C183.797 96.9532 184.073 97.7972 184.064 98.9222L184.006 105.506L182.095 105.489L182.151 99.0845C182.157 98.4197 181.98 97.9367 181.62 97.6352C181.261 97.3338 180.829 97.1808 180.327 97.1765C179.704 97.171 179.219 97.3586 178.871 97.7391C178.522 98.1153 178.345 98.6017 178.34 99.1983L178.286 105.456L176.381 105.439L176.438 98.9132C176.442 98.3805 176.28 97.9508 175.95 97.6241C175.621 97.2973 175.19 97.1316 174.657 97.127C174.295 97.1238 173.96 97.2168 173.651 97.4059C173.347 97.5907 173.1 97.8506 172.909 98.1856C172.723 98.5207 172.628 98.9098 172.624 99.3529L172.571 105.406L170.66 105.389ZM195.561 105.805C194.594 105.796 193.762 105.582 193.067 105.163C192.376 104.739 191.844 104.149 191.472 103.391C191.103 102.629 190.924 101.739 190.932 100.721C190.941 99.7152 191.136 98.8305 191.518 98.0668C191.904 97.3031 192.438 96.709 193.119 96.2845C193.804 95.8601 194.603 95.6518 195.515 95.6598C196.069 95.6646 196.605 95.7609 197.123 95.9487C197.642 96.1365 198.106 96.4282 198.516 96.8238C198.926 97.2194 199.247 97.7315 199.48 98.36C199.714 98.9842 199.826 99.7416 199.818 100.632L199.813 101.31L192.008 101.242L192.021 99.8099L197.952 99.8616C197.957 99.3588 197.858 98.9126 197.657 98.5231C197.456 98.1292 197.171 97.8178 196.802 97.5887C196.438 97.3597 196.008 97.243 195.514 97.2387C194.977 97.234 194.507 97.362 194.104 97.6227C193.706 97.8792 193.396 98.2174 193.175 98.6374C192.958 99.0531 192.848 99.506 192.844 99.996L192.834 101.115C192.828 101.771 192.938 102.33 193.164 102.792C193.395 103.255 193.718 103.609 194.133 103.855C194.549 104.098 195.036 104.221 195.594 104.226C195.956 104.229 196.287 104.181 196.586 104.081C196.885 103.977 197.144 103.822 197.363 103.615C197.583 103.408 197.751 103.152 197.869 102.846L199.675 103.188C199.525 103.719 199.261 104.184 198.883 104.581C198.509 104.974 198.039 105.279 197.475 105.495C196.915 105.708 196.277 105.811 195.561 105.805ZM206.653 95.8848L206.64 97.4189L201.092 97.3705L201.105 95.8364L206.653 95.8848ZM202.541 105.668L202.636 94.712C202.642 94.0983 202.78 93.5903 203.052 93.1878C203.324 92.7811 203.683 92.4795 204.128 92.2831C204.573 92.0825 205.055 91.9844 205.575 91.9889C205.959 91.9923 206.286 92.0271 206.559 92.0934C206.831 92.1554 207.033 92.2126 207.164 92.2649L206.703 93.8078C206.614 93.7814 206.499 93.7506 206.359 93.7153C206.219 93.6757 206.048 93.655 205.848 93.6533C205.384 93.6492 205.05 93.7614 204.848 93.9898C204.65 94.2182 204.549 94.5497 204.545 94.9843L204.452 105.684L202.541 105.668ZM213.298 95.9428L213.284 97.4769L207.736 97.4284L207.75 95.8944L213.298 95.9428ZM209.185 105.725L209.281 94.7699C209.286 94.1563 209.425 93.6483 209.697 93.2458C209.969 92.8391 210.327 92.5375 210.772 92.3411C211.217 92.1404 211.699 92.0424 212.219 92.0469C212.603 92.0503 212.931 92.0851 213.203 92.1514C213.475 92.2134 213.677 92.2706 213.809 92.3229L213.348 93.8658C213.258 93.8394 213.144 93.8086 213.003 93.7733C212.863 93.7337 212.693 93.713 212.492 93.7113C212.028 93.7072 211.695 93.8194 211.492 94.0477C211.294 94.2761 211.193 94.6077 211.19 95.0423L211.096 105.742L209.185 105.725ZM219.027 106.01C218.059 106.001 217.228 105.787 216.533 105.368C215.842 104.944 215.31 104.353 214.938 103.596C214.569 102.834 214.389 101.944 214.398 100.926C214.407 99.92 214.602 99.0353 214.984 98.2716C215.37 97.5078 215.904 96.9138 216.585 96.4893C217.27 96.0649 218.069 95.8566 218.981 95.8646C219.535 95.8694 220.071 95.9657 220.589 96.1535C221.108 96.3413 221.572 96.633 221.982 97.0286C222.392 97.4242 222.713 97.9363 222.946 98.5648C223.179 99.189 223.292 99.9464 223.284 100.837L223.278 101.515L215.474 101.446L215.487 100.015L221.418 100.066C221.423 99.5636 221.324 99.1174 221.123 98.7278C220.922 98.334 220.637 98.0226 220.268 97.7935C219.904 97.5645 219.474 97.4478 218.98 97.4435C218.443 97.4388 217.973 97.5668 217.57 97.8275C217.172 98.084 216.862 98.4222 216.641 98.8421C216.424 99.2579 216.314 99.7108 216.31 100.201L216.3 101.319C216.294 101.976 216.404 102.535 216.63 102.997C216.861 103.459 217.184 103.814 217.599 104.06C218.015 104.302 218.501 104.426 219.06 104.431C219.422 104.434 219.753 104.386 220.052 104.286C220.351 104.182 220.61 104.027 220.829 103.82C221.048 103.613 221.217 103.357 221.335 103.051L223.141 103.393C222.991 103.924 222.727 104.388 222.349 104.786C221.974 105.179 221.505 105.484 220.941 105.7C220.381 105.913 219.743 106.016 219.027 106.01ZM229.495 106.101C228.545 106.093 227.728 105.87 227.046 105.434C226.368 104.993 225.849 104.39 225.489 103.624C225.13 102.858 224.954 101.983 224.963 100.999C224.971 100.002 225.166 99.1232 225.548 98.3637C225.93 97.6 226.463 97.0059 227.149 96.5815C227.834 96.1571 228.64 95.9489 229.564 95.9569C230.31 95.9634 230.973 96.1077 231.555 96.3898C232.136 96.6676 232.604 97.0552 232.957 97.5527C233.315 98.0501 233.525 98.6294 233.588 99.2905L231.728 99.2742C231.63 98.8131 231.399 98.4148 231.035 98.0792C230.676 97.7437 230.191 97.5733 229.582 97.568C229.049 97.5633 228.582 97.6999 228.179 97.9776C227.78 98.2511 227.468 98.6447 227.241 99.1584C227.015 99.6678 226.899 100.272 226.893 100.971C226.887 101.687 226.99 102.305 227.203 102.827C227.416 103.349 227.719 103.754 228.113 104.043C228.511 104.332 228.981 104.479 229.522 104.484C229.884 104.487 230.213 104.424 230.508 104.294C230.807 104.161 231.058 103.969 231.261 103.719C231.468 103.47 231.613 103.168 231.697 102.815L233.557 102.832C233.483 103.466 233.272 104.031 232.922 104.526C232.573 105.022 232.107 105.41 231.525 105.69C230.947 105.971 230.27 106.108 229.495 106.101ZM240.242 96.178L240.229 97.712L234.866 97.6652L234.88 96.1312L240.242 96.178ZM236.338 93.7915L238.249 93.8082L238.168 103.096C238.165 103.466 238.218 103.746 238.327 103.934C238.436 104.118 238.578 104.245 238.752 104.315C238.931 104.381 239.124 104.414 239.333 104.416C239.486 104.417 239.621 104.408 239.736 104.388C239.851 104.367 239.941 104.351 240.005 104.339L240.336 105.921C240.225 105.962 240.067 106.004 239.862 106.044C239.657 106.089 239.401 106.113 239.094 106.114C238.592 106.118 238.124 106.025 237.691 105.834C237.258 105.642 236.909 105.35 236.643 104.955C236.378 104.561 236.249 104.067 236.254 103.475L236.338 93.7915ZM242.271 106.014L242.356 96.1964L244.267 96.2131L244.182 106.031L242.271 106.014ZM243.335 94.69C243.002 94.6871 242.718 94.5738 242.481 94.3501C242.249 94.1222 242.134 93.8528 242.137 93.5417C242.139 93.2264 242.259 92.9589 242.495 92.7394C242.736 92.5156 243.022 92.4052 243.355 92.4081C243.687 92.411 243.969 92.5264 244.202 92.7543C244.438 92.978 244.555 93.2475 244.553 93.5628C244.55 93.8739 244.428 94.1413 244.188 94.365C243.951 94.5846 243.667 94.6929 243.335 94.69ZM255.237 96.3088L251.591 106.096L249.546 106.078L246.065 96.2288L248.117 96.2467L250.537 103.823L250.64 103.824L253.186 96.2909L255.237 96.3088ZM260.843 106.374C259.876 106.366 259.045 106.152 258.35 105.733C257.659 105.309 257.127 104.718 256.754 103.961C256.386 103.199 256.206 102.309 256.215 101.291C256.224 100.285 256.419 99.4002 256.801 98.6365C257.187 97.8728 257.72 97.2787 258.402 96.8542C259.087 96.4298 259.886 96.2216 260.798 96.2295C261.352 96.2343 261.888 96.3306 262.406 96.5184C262.924 96.7062 263.388 96.9979 263.798 97.3935C264.208 97.7892 264.53 98.3012 264.763 98.9297C264.996 99.5539 265.109 100.311 265.101 101.202L265.095 101.879L257.291 101.811L257.303 100.38L263.235 100.431C263.239 99.9285 263.141 99.4823 262.94 99.0928C262.739 98.699 262.454 98.3875 262.085 98.1584C261.72 97.9294 261.291 97.8127 260.797 97.8084C260.26 97.8037 259.79 97.9317 259.387 98.1924C258.989 98.4489 258.679 98.7871 258.458 99.2071C258.241 99.6228 258.131 100.076 258.126 100.566L258.117 101.684C258.111 102.341 258.221 102.9 258.447 103.362C258.677 103.824 259 104.179 259.416 104.425C259.831 104.667 260.318 104.791 260.876 104.796C261.239 104.799 261.569 104.751 261.869 104.651C262.168 104.547 262.427 104.392 262.646 104.185C262.865 103.978 263.034 103.722 263.151 103.416L264.957 103.758C264.808 104.289 264.544 104.753 264.165 105.151C263.791 105.544 263.322 105.848 262.757 106.065C262.197 106.278 261.559 106.381 260.843 106.374ZM274.07 106.292L271.266 96.4487L273.242 96.466L275.103 103.693L275.198 103.694L277.192 96.5004L279.167 96.5177L281.022 103.712L281.117 103.713L283.091 96.5519L285.066 96.5691L282.098 106.362L280.148 106.345L278.216 99.2389L278.069 99.2376L276.013 106.309L274.07 106.292ZM288.756 100.59L288.705 106.419L286.794 106.403L286.909 93.3124L288.794 93.3288L288.752 98.1994L288.873 98.2004C289.108 97.6741 289.463 97.2574 289.939 96.9505C290.414 96.6435 291.034 96.4934 291.796 96.5C292.47 96.5059 293.057 96.6495 293.557 96.9309C294.062 97.2123 294.45 97.6291 294.722 98.1812C294.999 98.7291 295.133 99.4121 295.126 100.23L295.072 106.475L293.161 106.458L293.213 100.444C293.219 99.7235 293.039 99.1637 292.672 98.7641C292.304 98.3604 291.79 98.1556 291.13 98.1498C290.678 98.1459 290.273 98.2382 289.913 98.4269C289.558 98.6155 289.276 98.8943 289.068 99.2633C288.865 99.628 288.761 100.07 288.756 100.59ZM297.622 106.497L297.708 96.6795L299.619 96.6961L299.533 106.514L297.622 106.497ZM298.686 95.173C298.354 95.1701 298.069 95.0568 297.833 94.8332C297.6 94.6053 297.485 94.3358 297.488 94.0247C297.491 93.7094 297.61 93.442 297.847 93.2224C298.087 92.9987 298.374 92.8883 298.706 92.8912C299.038 92.8941 299.321 93.0095 299.553 93.2373C299.79 93.461 299.907 93.7305 299.904 94.0458C299.901 94.3569 299.78 94.6243 299.539 94.8481C299.303 95.0676 299.018 95.1759 298.686 95.173ZM304.13 93.4627L304.015 106.553L302.104 106.536L302.219 93.446L304.13 93.4627ZM310.816 106.811C309.849 106.802 309.018 106.588 308.322 106.169C307.631 105.745 307.1 105.155 306.727 104.397C306.359 103.635 306.179 102.745 306.188 101.727C306.197 100.721 306.392 99.8363 306.773 99.0726C307.159 98.3089 307.693 97.7148 308.374 97.2903C309.06 96.8659 309.859 96.6577 310.77 96.6656C311.324 96.6704 311.861 96.7668 312.379 96.9545C312.897 97.1423 313.361 97.434 313.771 97.8296C314.181 98.2253 314.503 98.7373 314.736 99.3658C314.969 99.99 315.082 100.747 315.074 101.638L315.068 102.316L307.264 102.247L307.276 100.816L313.208 100.867C313.212 100.365 313.114 99.9184 312.912 99.5289C312.711 99.1351 312.426 98.8236 312.058 98.5945C311.693 98.3655 311.264 98.2488 310.769 98.2445C310.233 98.2398 309.763 98.3678 309.36 98.6285C308.961 98.885 308.651 99.2232 308.43 99.6432C308.214 100.059 308.103 100.512 308.099 101.002L308.089 102.12C308.084 102.777 308.194 103.336 308.42 103.798C308.65 104.26 308.973 104.615 309.389 104.861C309.804 105.104 310.291 105.227 310.849 105.232C311.211 105.235 311.542 105.187 311.841 105.087C312.14 104.983 312.4 104.828 312.619 104.621C312.838 104.414 313.006 104.158 313.124 103.852L314.93 104.194C314.781 104.725 314.517 105.189 314.138 105.587C313.764 105.98 313.295 106.285 312.73 106.501C312.17 106.714 311.532 106.817 310.816 106.811ZM45.7299 131.492C44.9374 131.485 44.2318 131.276 43.6132 130.866C42.9989 130.452 42.5182 129.866 42.1711 129.108C41.8283 128.347 41.6615 127.436 41.6707 126.375C41.68 125.314 41.8648 124.407 42.225 123.656C42.5896 122.905 43.0846 122.332 43.7103 121.937C44.3359 121.542 45.0429 121.348 45.8312 121.355C46.4405 121.36 46.9297 121.466 47.2986 121.674C47.6719 121.878 47.9596 122.115 48.1618 122.385C48.3682 122.655 48.5281 122.893 48.6414 123.099L48.7564 123.1L48.7989 118.235L50.71 118.252L50.5958 131.343L48.7294 131.326L48.7427 129.799L48.5829 129.797C48.466 130.005 48.2978 130.242 48.0781 130.509C47.8627 130.775 47.5666 131.007 47.1899 131.204C46.8132 131.401 46.3265 131.497 45.7299 131.492ZM46.166 129.866C46.7157 129.87 47.1815 129.73 47.5632 129.443C47.9493 129.152 48.2426 128.748 48.4432 128.23C48.648 127.712 48.7534 127.108 48.7594 126.417C48.7654 125.735 48.6726 125.138 48.481 124.625C48.2895 124.112 48.0053 123.711 47.6286 123.422C47.2518 123.133 46.7843 122.987 46.2261 122.982C45.6508 122.977 45.1701 123.122 44.784 123.417C44.3979 123.711 44.1046 124.116 43.9041 124.63C43.7078 125.144 43.6069 125.725 43.6012 126.372C43.5955 127.028 43.6884 127.619 43.8798 128.145C44.0713 128.671 44.3574 129.089 44.7382 129.399C45.1233 129.705 45.5993 129.861 46.166 129.866ZM57.5531 131.601C56.5858 131.593 55.7546 131.379 55.0593 130.96C54.3684 130.536 53.8366 129.945 53.4639 129.188C53.0956 128.426 52.9158 127.536 52.9247 126.518C52.9335 125.512 53.1287 124.627 53.5104 123.863C53.8963 123.1 54.43 122.506 55.1112 122.081C55.7968 121.657 56.5955 121.448 57.5074 121.456C58.0614 121.461 58.5975 121.558 59.1157 121.745C59.634 121.933 60.0981 122.225 60.508 122.62C60.9179 123.016 61.2395 123.528 61.4726 124.157C61.7058 124.781 61.8185 125.538 61.8108 126.429L61.8049 127.106L54.0005 127.038L54.013 125.607L59.9446 125.658C59.9489 125.155 59.8506 124.709 59.6494 124.32C59.4483 123.926 59.1634 123.614 58.7946 123.385C58.4301 123.156 58.0007 123.04 57.5064 123.035C56.9695 123.031 56.4996 123.159 56.0968 123.419C55.6982 123.676 55.3884 124.014 55.1674 124.434C54.9507 124.85 54.8402 125.303 54.8359 125.793L54.8262 126.911C54.8205 127.567 54.9306 128.127 55.1567 128.589C55.3871 129.051 55.71 129.406 56.1255 129.652C56.541 129.894 57.0279 130.018 57.5861 130.023C57.9483 130.026 58.279 129.978 58.5781 129.878C58.8774 129.774 59.1365 129.619 59.3557 129.412C59.5748 129.205 59.7433 128.949 59.861 128.643L61.667 128.985C61.5175 129.516 61.2535 129.98 60.875 130.378C60.5008 130.771 60.0315 131.075 59.4671 131.292C58.907 131.505 58.269 131.608 57.5531 131.601ZM65.9129 118.385L65.7987 131.475L63.8875 131.459L64.0018 118.368L65.9129 118.385ZM68.3698 131.498L68.4555 121.68L70.3666 121.697L70.2809 131.514L68.3698 131.498ZM69.4338 120.173C69.1015 120.171 68.8169 120.057 68.5802 119.834C68.3478 119.606 68.233 119.336 68.2357 119.025C68.2385 118.71 68.358 118.442 68.5943 118.223C68.8349 117.999 69.1214 117.889 69.4537 117.892C69.7861 117.894 70.0685 118.01 70.3009 118.238C70.5376 118.461 70.6546 118.731 70.6518 119.046C70.6491 119.357 70.5274 119.625 70.2868 119.848C70.0505 120.068 69.7662 120.176 69.4338 120.173ZM81.3365 121.792L77.6906 131.579L75.6452 131.561L72.1643 121.712L74.2161 121.73L76.6365 129.307L76.7388 129.308L79.2848 121.774L81.3365 121.792ZM86.9426 131.858C85.9753 131.849 85.1441 131.636 84.4488 131.216C83.7579 130.792 83.2261 130.202 82.8534 129.444C82.4851 128.683 82.3053 127.792 82.3142 126.774C82.323 125.768 82.5182 124.884 82.8999 124.12C83.2858 123.356 83.8195 122.762 84.5008 122.338C85.1863 121.913 85.985 121.705 86.8969 121.713C87.4509 121.718 87.987 121.814 88.5053 122.002C89.0235 122.19 89.4876 122.481 89.8975 122.877C90.3074 123.273 90.629 123.785 90.8621 124.413C91.0953 125.037 91.2081 125.795 91.2003 126.685L91.1944 127.363L83.39 127.295L83.4025 125.863L89.3341 125.915C89.3385 125.412 89.2401 124.966 89.0389 124.576C88.8378 124.182 88.5529 123.871 88.1841 123.642C87.8196 123.413 87.3902 123.296 86.8959 123.292C86.359 123.287 85.8891 123.415 85.4863 123.676C85.0877 123.932 84.7779 124.271 84.5569 124.69C84.3402 125.106 84.2297 125.559 84.2255 126.049L84.2157 127.168C84.21 127.824 84.3201 128.383 84.5462 128.845C84.7766 129.308 85.0995 129.662 85.515 129.909C85.9305 130.151 86.4174 130.274 86.9756 130.279C87.3378 130.282 87.6685 130.234 87.9676 130.135C88.2669 130.031 88.526 129.875 88.7452 129.668C88.9643 129.461 89.1328 129.205 89.2505 128.899L91.0565 129.241C90.907 129.772 90.643 130.237 90.2645 130.634C89.8903 131.027 89.421 131.332 88.8566 131.549C88.2965 131.761 87.6585 131.864 86.9426 131.858ZM93.277 131.715L93.3627 121.897L95.2099 121.913L95.1963 123.473L95.2986 123.474C95.4822 122.947 95.8011 122.534 96.2555 122.236C96.7141 121.933 97.231 121.784 97.8063 121.789C97.9256 121.79 98.0662 121.795 98.228 121.805C98.3942 121.815 98.524 121.827 98.6177 121.841L98.6017 123.669C98.5252 123.647 98.389 123.622 98.1932 123.595C97.9975 123.563 97.8016 123.547 97.6056 123.545C97.1539 123.541 96.7504 123.634 96.395 123.822C96.044 124.007 95.7647 124.266 95.5572 124.601C95.3498 124.932 95.2442 125.31 95.2405 125.736L95.1882 131.732L93.277 131.715ZM100.185 131.775L100.271 121.957L102.182 121.974L102.096 131.792L100.185 131.775ZM101.249 120.451C100.917 120.448 100.632 120.335 100.395 120.111C100.163 119.883 100.048 119.614 100.051 119.303C100.054 118.987 100.173 118.72 100.409 118.5C100.65 118.277 100.937 118.166 101.269 118.169C101.601 118.172 101.884 118.287 102.116 118.515C102.353 118.739 102.47 119.009 102.467 119.324C102.464 119.635 102.343 119.902 102.102 120.126C101.866 120.346 101.581 120.454 101.249 120.451ZM106.629 126.002L106.578 131.831L104.667 131.814L104.753 121.997L106.587 122.013L106.573 123.611L106.695 123.612C106.925 123.094 107.283 122.679 107.767 122.368C108.255 122.057 108.868 121.905 109.605 121.911C110.274 121.917 110.859 122.063 111.359 122.348C111.86 122.63 112.246 123.046 112.518 123.599C112.791 124.151 112.923 124.831 112.916 125.641L112.862 131.886L110.95 131.869L111.003 125.855C111.009 125.143 110.829 124.585 110.461 124.181C110.094 123.773 109.587 123.567 108.939 123.561C108.496 123.557 108.101 123.649 107.754 123.838C107.411 124.027 107.138 124.306 106.935 124.675C106.736 125.04 106.634 125.482 106.629 126.002ZM119.507 135.83C118.727 135.824 118.057 135.715 117.496 135.506C116.94 135.297 116.486 135.022 116.136 134.682C115.785 134.343 115.524 133.972 115.353 133.57L117.001 132.906C117.115 133.095 117.266 133.294 117.456 133.505C117.65 133.72 117.913 133.903 118.244 134.055C118.579 134.207 119.011 134.286 119.54 134.29C120.264 134.296 120.864 134.125 121.34 133.775C121.816 133.43 122.058 132.874 122.064 132.107L122.081 130.177L121.96 130.175C121.843 130.383 121.675 130.614 121.455 130.868C121.24 131.122 120.944 131.341 120.567 131.525C120.191 131.709 119.702 131.799 119.101 131.793C118.326 131.787 117.628 131.599 117.009 131.232C116.395 130.86 115.909 130.317 115.553 129.602C115.202 128.883 115.03 128.001 115.04 126.957C115.049 125.913 115.233 125.02 115.593 124.277C115.958 123.535 116.453 122.968 117.079 122.577C117.704 122.182 118.411 121.988 119.199 121.995C119.809 122 120.3 122.107 120.673 122.315C121.047 122.518 121.336 122.755 121.543 123.025C121.754 123.296 121.916 123.534 122.029 123.739L122.169 123.74L122.183 122.149L124.056 122.165L123.969 132.2C123.961 133.044 123.759 133.735 123.362 134.272C122.966 134.81 122.432 135.206 121.76 135.46C121.093 135.714 120.342 135.838 119.507 135.83ZM119.537 130.212C120.087 130.217 120.552 130.093 120.934 129.841C121.319 129.584 121.612 129.216 121.813 128.736C122.017 128.252 122.122 127.671 122.128 126.994C122.134 126.333 122.041 125.751 121.849 125.246C121.658 124.742 121.374 124.347 120.997 124.062C120.62 123.774 120.153 123.627 119.594 123.622C119.019 123.617 118.538 123.762 118.152 124.057C117.766 124.347 117.473 124.745 117.273 125.251C117.076 125.756 116.976 126.322 116.97 126.949C116.964 127.592 117.058 128.157 117.249 128.645C117.441 129.132 117.728 129.514 118.109 129.79C118.494 130.066 118.97 130.207 119.537 130.212ZM135.431 132.281C134.51 132.273 133.709 132.055 133.027 131.627C132.344 131.199 131.817 130.605 131.444 129.843C131.072 129.081 130.89 128.193 130.898 127.179C130.907 126.16 131.105 125.271 131.491 124.512C131.877 123.753 132.414 123.165 133.104 122.749C133.794 122.333 134.599 122.129 135.519 122.137C136.44 122.145 137.241 122.363 137.924 122.791C138.606 123.219 139.133 123.816 139.506 124.582C139.879 125.348 140.06 126.24 140.052 127.259C140.043 128.273 139.845 129.158 139.459 129.913C139.074 130.668 138.536 131.253 137.846 131.669C137.156 132.085 136.351 132.289 135.431 132.281ZM135.451 130.677C136.048 130.682 136.543 130.529 136.938 130.217C137.333 129.905 137.626 129.488 137.819 128.965C138.015 128.443 138.116 127.866 138.121 127.235C138.127 126.609 138.036 126.033 137.849 125.507C137.666 124.977 137.38 124.551 136.991 124.228C136.601 123.905 136.108 123.74 135.512 123.735C134.911 123.73 134.411 123.885 134.012 124.202C133.617 124.518 133.322 124.939 133.125 125.466C132.933 125.988 132.834 126.563 132.829 127.189C132.823 127.82 132.912 128.398 133.095 128.924C133.282 129.45 133.57 129.872 133.96 130.191C134.353 130.509 134.85 130.672 135.451 130.677ZM144.104 126.329L144.054 132.158L142.142 132.141L142.228 122.324L144.062 122.34L144.049 123.938L144.17 123.939C144.4 123.421 144.758 123.006 145.242 122.695C145.73 122.384 146.343 122.232 147.081 122.238C147.75 122.244 148.334 122.39 148.835 122.675C149.335 122.957 149.721 123.373 149.993 123.926C150.266 124.478 150.398 125.159 150.391 125.968L150.337 132.213L148.425 132.196L148.478 126.182C148.484 125.47 148.304 124.912 147.936 124.508C147.569 124.1 147.062 123.894 146.414 123.888C145.971 123.884 145.576 123.976 145.229 124.165C144.887 124.354 144.614 124.633 144.41 125.002C144.211 125.367 144.109 125.809 144.104 126.329ZM157.129 132.47C156.162 132.462 155.331 132.248 154.636 131.829C153.945 131.405 153.413 130.814 153.04 130.057C152.672 129.295 152.492 128.405 152.501 127.386C152.51 126.381 152.705 125.496 153.087 124.732C153.473 123.969 154.006 123.375 154.688 122.95C155.373 122.526 156.172 122.317 157.084 122.325C157.638 122.33 158.174 122.427 158.692 122.614C159.21 122.802 159.674 123.094 160.084 123.489C160.494 123.885 160.816 124.397 161.049 125.026C161.282 125.65 161.395 126.407 161.387 127.298L161.381 127.975L153.577 127.907L153.589 126.475L159.521 126.527C159.525 126.024 159.427 125.578 159.226 125.189C159.025 124.795 158.74 124.483 158.371 124.254C158.006 124.025 157.577 123.909 157.083 123.904C156.546 123.9 156.076 124.028 155.673 124.288C155.274 124.545 154.965 124.883 154.744 125.303C154.527 125.719 154.417 126.172 154.412 126.662L154.402 127.78C154.397 128.436 154.507 128.996 154.733 129.458C154.963 129.92 155.286 130.275 155.702 130.521C156.117 130.763 156.604 130.887 157.162 130.892C157.525 130.895 157.855 130.847 158.154 130.747C158.454 130.643 158.713 130.488 158.932 130.281C159.151 130.074 159.32 129.818 159.437 129.512L161.243 129.853C161.094 130.385 160.83 130.849 160.451 131.246C160.077 131.64 159.608 131.944 159.043 132.161C158.483 132.374 157.845 132.477 157.129 132.47ZM170.253 119.295L170.138 132.386L168.227 132.369L168.342 119.279L170.253 119.295ZM172.71 132.408L172.795 122.59L174.706 122.607L174.621 132.425L172.71 132.408ZM173.774 121.084C173.441 121.081 173.157 120.968 172.92 120.744C172.688 120.516 172.573 120.247 172.575 119.936C172.578 119.62 172.698 119.353 172.934 119.133C173.175 118.91 173.461 118.799 173.794 118.802C174.126 118.805 174.408 118.92 174.641 119.148C174.877 119.372 174.994 119.641 174.992 119.957C174.989 120.268 174.867 120.535 174.627 120.759C174.39 120.979 174.106 121.087 173.774 121.084ZM179.154 126.635L179.103 132.464L177.192 132.447L177.277 122.63L179.112 122.646L179.098 124.243L179.219 124.245C179.45 123.727 179.807 123.312 180.291 123.001C180.78 122.69 181.393 122.538 182.13 122.544C182.799 122.55 183.384 122.696 183.884 122.981C184.384 123.263 184.771 123.679 185.043 124.231C185.315 124.784 185.448 125.464 185.441 126.274L185.386 132.519L183.475 132.502L183.527 126.487C183.534 125.776 183.353 125.218 182.986 124.814C182.619 124.406 182.111 124.199 181.464 124.194C181.02 124.19 180.625 124.282 180.279 124.471C179.936 124.66 179.663 124.939 179.459 125.308C179.26 125.672 179.158 126.115 179.154 126.635ZM192.179 132.776C191.212 132.768 190.38 132.554 189.685 132.134C188.994 131.711 188.462 131.12 188.09 130.363C187.721 129.601 187.542 128.711 187.55 127.692C187.559 126.687 187.754 125.802 188.136 125.038C188.522 124.275 189.056 123.68 189.737 123.256C190.423 122.832 191.221 122.623 192.133 122.631C192.687 122.636 193.223 122.732 193.741 122.92C194.26 123.108 194.724 123.4 195.134 123.795C195.544 124.191 195.865 124.703 196.098 125.331C196.332 125.956 196.444 126.713 196.437 127.604L196.431 128.281L188.626 128.213L188.639 126.781L194.57 126.833C194.575 126.33 194.476 125.884 194.275 125.495C194.074 125.101 193.789 124.789 193.42 124.56C193.056 124.331 192.626 124.215 192.132 124.21C191.595 124.206 191.125 124.334 190.722 124.594C190.324 124.851 190.014 125.189 189.793 125.609C189.576 126.025 189.466 126.477 189.462 126.968L189.452 128.086C189.446 128.742 189.556 129.302 189.782 129.764C190.013 130.226 190.336 130.58 190.751 130.827C191.167 131.069 191.654 131.193 192.212 131.198C192.574 131.201 192.905 131.153 193.204 131.053C193.503 130.949 193.762 130.794 193.981 130.587C194.201 130.38 194.369 130.123 194.487 129.818L196.293 130.159C196.143 130.691 195.879 131.155 195.501 131.552C195.127 131.945 194.657 132.25 194.093 132.467C193.533 132.679 192.895 132.783 192.179 132.776ZM207.411 132.909C206.46 132.901 205.644 132.679 204.962 132.242C204.284 131.802 203.765 131.198 203.405 130.432C203.045 129.666 202.87 128.791 202.878 127.807C202.887 126.81 203.082 125.932 203.464 125.172C203.845 124.408 204.379 123.814 205.065 123.39C205.75 122.965 206.555 122.757 207.48 122.765C208.226 122.772 208.889 122.916 209.47 123.198C210.052 123.476 210.519 123.864 210.873 124.361C211.231 124.858 211.441 125.438 211.503 126.099L209.643 126.083C209.545 125.621 209.314 125.223 208.951 124.888C208.591 124.552 208.107 124.382 207.498 124.376C206.965 124.372 206.497 124.508 206.094 124.786C205.696 125.059 205.383 125.453 205.157 125.967C204.931 126.476 204.815 127.08 204.809 127.779C204.803 128.495 204.906 129.114 205.119 129.636C205.331 130.157 205.635 130.563 206.029 130.852C206.427 131.141 206.896 131.287 207.437 131.292C207.8 131.295 208.128 131.232 208.423 131.103C208.723 130.969 208.974 130.777 209.176 130.527C209.383 130.278 209.529 129.977 209.613 129.624L211.473 129.64C211.399 130.274 211.187 130.839 210.838 131.335C210.488 131.83 210.022 132.218 209.44 132.499C208.863 132.779 208.186 132.916 207.411 132.909ZM217.623 132.998C216.703 132.99 215.901 132.772 215.219 132.345C214.536 131.917 214.009 131.322 213.636 130.56C213.264 129.798 213.082 128.91 213.091 127.896C213.1 126.878 213.297 125.989 213.683 125.229C214.069 124.47 214.607 123.882 215.296 123.466C215.986 123.05 216.791 122.846 217.712 122.855C218.632 122.863 219.433 123.081 220.116 123.508C220.798 123.936 221.326 124.533 221.698 125.299C222.071 126.065 222.253 126.958 222.244 127.976C222.235 128.99 222.038 129.875 221.652 130.63C221.266 131.385 220.728 131.971 220.038 132.387C219.349 132.802 218.543 133.006 217.623 132.998ZM217.643 131.394C218.24 131.399 218.736 131.246 219.13 130.934C219.525 130.622 219.819 130.205 220.011 129.682C220.207 129.16 220.308 128.583 220.313 127.953C220.319 127.326 220.228 126.75 220.041 126.224C219.858 125.694 219.572 125.268 219.183 124.945C218.793 124.622 218.301 124.458 217.704 124.453C217.103 124.447 216.603 124.603 216.204 124.919C215.809 125.235 215.514 125.656 215.317 126.183C215.125 126.706 215.027 127.28 215.021 127.907C215.016 128.537 215.104 129.115 215.287 129.641C215.474 130.167 215.763 130.589 216.152 130.908C216.545 131.227 217.043 131.389 217.643 131.394ZM228.008 133.083C227.216 133.076 226.51 132.867 225.891 132.457C225.277 132.042 224.796 131.456 224.449 130.699C224.106 129.938 223.94 129.026 223.949 127.965C223.958 126.904 224.143 125.998 224.503 125.247C224.868 124.496 225.363 123.923 225.988 123.528C226.614 123.133 227.321 122.938 228.109 122.945C228.719 122.951 229.208 123.057 229.577 123.265C229.95 123.468 230.238 123.705 230.44 123.976C230.646 124.246 230.806 124.484 230.92 124.689L231.035 124.69L231.077 119.826L232.988 119.843L232.874 132.933L231.008 132.917L231.021 131.389L230.861 131.388C230.744 131.596 230.576 131.833 230.356 132.099C230.141 132.366 229.845 132.598 229.468 132.795C229.091 132.992 228.605 133.088 228.008 133.083ZM228.444 131.456C228.994 131.461 229.46 131.32 229.841 131.034C230.228 130.743 230.521 130.339 230.721 129.821C230.926 129.302 231.032 128.698 231.038 128.008C231.044 127.326 230.951 126.729 230.759 126.216C230.568 125.703 230.284 125.302 229.907 125.013C229.53 124.724 229.063 124.577 228.504 124.572C227.929 124.567 227.448 124.712 227.062 125.007C226.676 125.302 226.383 125.707 226.182 126.22C225.986 126.734 225.885 127.315 225.879 127.963C225.874 128.619 225.967 129.21 226.158 129.736C226.349 130.262 226.636 130.68 227.016 130.99C227.402 131.296 227.877 131.451 228.444 131.456ZM239.831 133.192C238.864 133.184 238.033 132.97 237.338 132.55C236.647 132.127 236.115 131.536 235.742 130.779C235.374 130.017 235.194 129.127 235.203 128.108C235.212 127.103 235.407 126.218 235.789 125.454C236.175 124.69 236.708 124.096 237.389 123.672C238.075 123.247 238.874 123.039 239.786 123.047C240.34 123.052 240.876 123.148 241.394 123.336C241.912 123.524 242.376 123.816 242.786 124.211C243.196 124.607 243.518 125.119 243.751 125.747C243.984 126.372 244.097 127.129 244.089 128.02L244.083 128.697L236.279 128.629L236.291 127.197L242.223 127.249C242.227 126.746 242.129 126.3 241.928 125.91C241.726 125.517 241.442 125.205 241.073 124.976C240.708 124.747 240.279 124.63 239.785 124.626C239.248 124.621 238.778 124.749 238.375 125.01C237.976 125.267 237.667 125.605 237.446 126.025C237.229 126.44 237.118 126.893 237.114 127.383L237.104 128.502C237.099 129.158 237.209 129.717 237.435 130.18C237.665 130.642 237.988 130.996 238.404 131.243C238.819 131.485 239.306 131.609 239.864 131.614C240.226 131.617 240.557 131.568 240.856 131.469C241.156 131.365 241.415 131.209 241.634 131.003C241.853 130.796 242.021 130.539 242.139 130.233L243.945 130.575C243.796 131.107 243.532 131.571 243.153 131.968C242.779 132.361 242.31 132.666 241.745 132.883C241.185 133.095 240.547 133.198 239.831 133.192ZM253.784 133.333C253.162 133.328 252.601 133.208 252.1 132.973C251.599 132.734 251.204 132.392 250.914 131.946C250.628 131.501 250.488 130.956 250.493 130.313C250.498 129.759 250.609 129.304 250.825 128.948C251.041 128.592 251.331 128.311 251.695 128.105C252.059 127.899 252.465 127.745 252.914 127.643C253.362 127.54 253.819 127.463 254.284 127.412C254.872 127.349 255.35 127.297 255.717 127.258C256.084 127.214 256.351 127.142 256.518 127.041C256.685 126.941 256.769 126.775 256.771 126.545L256.772 126.5C256.777 125.942 256.623 125.508 256.31 125.199C256.002 124.889 255.539 124.732 254.921 124.726C254.277 124.721 253.769 124.859 253.396 125.141C253.027 125.419 252.771 125.73 252.627 126.074L250.834 125.649C251.053 125.055 251.368 124.576 251.78 124.213C252.197 123.846 252.674 123.582 253.213 123.42C253.751 123.254 254.316 123.174 254.909 123.179C255.301 123.183 255.716 123.233 256.154 123.331C256.596 123.424 257.008 123.594 257.389 123.84C257.775 124.086 258.09 124.436 258.333 124.89C258.576 125.34 258.694 125.923 258.688 126.638L258.631 133.158L256.765 133.142L256.777 131.799L256.7 131.799C256.574 132.045 256.387 132.286 256.137 132.523C255.888 132.759 255.569 132.954 255.18 133.109C254.791 133.263 254.326 133.338 253.784 133.333ZM254.213 131.803C254.742 131.807 255.194 131.707 255.571 131.501C255.952 131.296 256.242 131.026 256.441 130.691C256.644 130.352 256.748 129.988 256.751 129.6L256.762 128.335C256.693 128.402 256.561 128.465 256.364 128.523C256.172 128.577 255.952 128.624 255.705 128.664C255.457 128.7 255.216 128.735 254.981 128.767C254.747 128.794 254.55 128.818 254.393 128.838C254.021 128.882 253.682 128.958 253.374 129.066C253.071 129.174 252.826 129.332 252.641 129.539C252.461 129.742 252.369 130.014 252.366 130.355C252.362 130.828 252.533 131.187 252.881 131.433C253.228 131.675 253.672 131.798 254.213 131.803ZM265.845 123.402L265.832 124.936L260.469 124.89L260.483 123.356L265.845 123.402ZM261.941 121.016L263.853 121.033L263.772 130.32C263.768 130.691 263.821 130.97 263.93 131.159C264.04 131.343 264.181 131.47 264.355 131.54C264.534 131.605 264.727 131.639 264.936 131.641C265.09 131.642 265.224 131.632 265.339 131.612C265.454 131.592 265.544 131.576 265.608 131.563L265.939 133.145C265.828 133.187 265.67 133.228 265.465 133.269C265.26 133.314 265.004 133.337 264.698 133.339C264.195 133.343 263.727 133.249 263.294 133.058C262.861 132.867 262.512 132.574 262.247 132.18C261.982 131.785 261.852 131.292 261.857 130.7L261.941 121.016ZM277.306 123.502L277.293 125.036L271.93 124.99L271.943 123.456L277.306 123.502ZM273.402 121.116L275.313 121.133L275.232 130.42C275.229 130.791 275.282 131.07 275.391 131.259C275.5 131.443 275.642 131.57 275.816 131.64C275.994 131.705 276.188 131.739 276.397 131.741C276.55 131.742 276.684 131.732 276.8 131.712C276.915 131.692 277.005 131.676 277.069 131.663L277.4 133.245C277.289 133.287 277.131 133.328 276.926 133.369C276.721 133.414 276.465 133.437 276.158 133.439C275.655 133.443 275.187 133.349 274.754 133.158C274.321 132.967 273.972 132.674 273.707 132.28C273.442 131.885 273.312 131.392 273.317 130.8L273.402 121.116ZM281.507 127.528L281.456 133.357L279.545 133.341L279.66 120.25L281.545 120.267L281.503 125.137L281.624 125.138C281.859 124.612 282.214 124.195 282.69 123.888C283.165 123.581 283.785 123.431 284.547 123.438C285.221 123.444 285.808 123.587 286.308 123.869C286.813 124.15 287.201 124.567 287.473 125.119C287.75 125.667 287.884 126.35 287.877 127.168L287.823 133.413L285.912 133.396L285.964 127.381C285.97 126.661 285.79 126.101 285.423 125.702C285.055 125.298 284.541 125.093 283.881 125.088C283.429 125.084 283.024 125.176 282.664 125.365C282.309 125.553 282.027 125.832 281.819 126.201C281.616 126.566 281.512 127.008 281.507 127.528ZM294.603 133.67C293.635 133.662 292.804 133.448 292.109 133.028C291.418 132.605 290.886 132.014 290.513 131.256C290.145 130.495 289.965 129.605 289.974 128.586C289.983 127.581 290.178 126.696 290.56 125.932C290.946 125.168 291.48 124.574 292.161 124.15C292.846 123.725 293.645 123.517 294.557 123.525C295.111 123.53 295.647 123.626 296.165 123.814C296.684 124.002 297.148 124.294 297.558 124.689C297.967 125.085 298.289 125.597 298.522 126.225C298.755 126.85 298.868 127.607 298.86 128.498L298.854 129.175L291.05 129.107L291.063 127.675L296.994 127.727C296.998 127.224 296.9 126.778 296.699 126.388C296.498 125.995 296.213 125.683 295.844 125.454C295.48 125.225 295.05 125.108 294.556 125.104C294.019 125.099 293.549 125.227 293.146 125.488C292.748 125.745 292.438 126.083 292.217 126.503C292 126.918 291.89 127.371 291.886 127.861L291.876 128.98C291.87 129.636 291.98 130.195 292.206 130.658C292.437 131.12 292.76 131.474 293.175 131.721C293.591 131.963 294.077 132.087 294.636 132.092C294.998 132.095 295.329 132.046 295.628 131.947C295.927 131.843 296.186 131.687 296.405 131.481C296.624 131.274 296.793 131.017 296.911 130.711L298.717 131.053C298.567 131.585 298.303 132.049 297.925 132.446C297.55 132.839 297.081 133.144 296.517 133.361C295.957 133.573 295.319 133.676 294.603 133.67ZM46.4893 148.489L46.4759 150.023L41.1132 149.976L41.1266 148.442L46.4893 148.489ZM42.5853 146.103L44.4964 146.119L44.4154 155.407C44.4121 155.777 44.4651 156.057 44.5743 156.245C44.6834 156.43 44.8251 156.557 44.9992 156.626C45.1776 156.692 45.3712 156.725 45.58 156.727C45.7334 156.729 45.8678 156.719 45.983 156.699C46.0982 156.679 46.1879 156.662 46.2519 156.65L46.5833 158.232C46.4721 158.273 46.3141 158.315 46.1092 158.356C45.9042 158.401 45.6483 158.424 45.3415 158.426C44.8386 158.43 44.3706 158.336 43.9376 158.145C43.5046 157.954 43.1556 157.661 42.8906 157.266C42.6255 156.872 42.4956 156.379 42.5008 155.786L42.5853 146.103ZM48.5177 158.325L48.6034 148.508L50.5145 148.524L50.4289 158.342L48.5177 158.325ZM49.5818 147.001C49.2494 146.998 48.9649 146.885 48.7282 146.661C48.4958 146.433 48.3809 146.164 48.3837 145.853C48.3864 145.538 48.5059 145.27 48.7422 145.051C48.9828 144.827 49.2693 144.716 49.6017 144.719C49.9341 144.722 50.2165 144.838 50.4488 145.065C50.6855 145.289 50.8025 145.559 50.7998 145.874C50.797 146.185 50.6754 146.452 50.4348 146.676C50.1985 146.896 49.9142 147.004 49.5818 147.001ZM53 158.365L53.0856 148.547L54.9201 148.563L54.9062 150.161L55.0276 150.162C55.2369 149.622 55.575 149.203 56.0422 148.905C56.5093 148.602 57.0667 148.454 57.7144 148.459C58.3707 148.465 58.919 148.623 59.3595 148.934C59.8042 149.245 60.1308 149.669 60.3392 150.208L60.4415 150.209C60.6804 149.687 61.0569 149.273 61.5709 148.966C62.085 148.655 62.6958 148.503 63.4031 148.509C64.2937 148.517 65.0178 148.802 65.5754 149.365C66.1373 149.928 66.4133 150.772 66.4035 151.897L66.3461 158.481L64.4349 158.464L64.4908 152.06C64.4966 151.395 64.3197 150.912 63.9601 150.61C63.6005 150.309 63.1693 150.156 62.6665 150.152C62.0443 150.146 61.559 150.334 61.2105 150.714C60.862 151.091 60.6852 151.577 60.68 152.174L60.6254 158.431L58.7206 158.414L58.7776 151.888C58.7822 151.356 58.6198 150.926 58.2902 150.599C57.9607 150.273 57.5296 150.107 56.9969 150.102C56.6347 150.099 56.2994 150.192 55.9909 150.381C55.6867 150.566 55.4394 150.826 55.249 151.161C55.0628 151.496 54.9678 151.885 54.9639 152.328L54.9111 158.381L53 158.365ZM73.1372 158.738C72.1699 158.73 71.3387 158.516 70.6434 158.097C69.9525 157.673 69.4207 157.082 69.048 156.325C68.6797 155.563 68.4999 154.673 68.5088 153.655C68.5176 152.649 68.7128 151.764 69.0945 151C69.4804 150.237 70.0141 149.643 70.6953 149.218C71.3809 148.794 72.1796 148.586 73.0915 148.593C73.6455 148.598 74.1816 148.695 74.6998 148.882C75.2181 149.07 75.6822 149.362 76.0921 149.757C76.502 150.153 76.8236 150.665 77.0567 151.294C77.2899 151.918 77.4026 152.675 77.3949 153.566L77.389 154.243L69.5846 154.175L69.5971 152.744L75.5287 152.795C75.533 152.292 75.4347 151.846 75.2335 151.457C75.0324 151.063 74.7475 150.751 74.3787 150.522C74.0142 150.293 73.5848 150.177 73.0905 150.172C72.5536 150.168 72.0837 150.296 71.6809 150.556C71.2823 150.813 70.9725 151.151 70.7515 151.571C70.5348 151.987 70.4243 152.44 70.42 152.93L70.4103 154.048C70.4046 154.704 70.5147 155.264 70.7408 155.726C70.9712 156.188 71.2941 156.543 71.7096 156.789C72.1251 157.031 72.6119 157.155 73.1702 157.16C73.5324 157.163 73.8631 157.115 74.1622 157.015C74.4614 156.911 74.7206 156.756 74.9398 156.549C75.1589 156.342 75.3273 156.086 75.4451 155.78L77.2511 156.122C77.1016 156.653 76.8376 157.117 76.4591 157.515C76.0849 157.908 75.6156 158.212 75.0512 158.429C74.4911 158.642 73.8531 158.745 73.1372 158.738Z" fill="#3E8473"/>
<g filter="url(#filter0_f_12_597)">
<rect x="20.224" y="198.478" width="330" height="10" transform="rotate(-2.5 20.224 198.478)" fill="black" fill-opacity="0.1"/>
</g>
<g filter="url(#filter1_f_12_597)">
<rect x="20.2785" y="188.08" width="330" height="10" transform="rotate(0.5 20.2785 188.08)" fill="black" fill-opacity="0.1"/>
</g>
<rect x="10.476" y="164.994" width="350" height="30" transform="rotate(0.5 10.476 164.994)" fill="#C8FFF2"/>
<defs>
<filter id="filter0_f_12_597" x="10.224" y="174.084" width="350.122" height="44.3849" filterUnits="userSpaceOnUse" color-interpolation-filters="sRGB">
<feFlood flood-opacity="0" result="BackgroundImageFix"/>
<feBlend mode="normal" in="SourceGraphic" in2="BackgroundImageFix" result="shape"/>
<feGaussianBlur stdDeviation="5" result="effect1_foregroundBlur_12_597"/>
</filter>
<filter id="filter1_f_12_597" x="0.191204" y="168.08" width="370.075" height="52.8794" filterUnits="userSpaceOnUse" color-interpolation-filters="sRGB">
<feFlood flood-opacity="0" result="BackgroundImageFix"/>
<feBlend mode="normal" in="SourceGraphic" in2="BackgroundImageFix" result="shape"/>
<feGaussianBlur stdDeviation="10" result="effect1_foregroundBlur_12_597"/>
</filter>
</defs>
</svg>
