<svg width="371" height="221" viewBox="0 0 371 221" fill="none" xmlns="http://www.w3.org/2000/svg">
<rect width="350" height="165" transform="translate(11.9159) rotate(0.5)" fill="#FFF6C8"/>
<path d="M54.2404 41.8631L51.4408 41.8387C51.3928 41.476 51.2912 41.1534 51.136 40.8708C50.9808 40.5839 50.7805 40.3393 50.5351 40.1368C50.2897 39.9344 50.0056 39.7785 49.6827 39.6691C49.364 39.5598 49.0172 39.5035 48.6422 39.5003C47.9647 39.4943 47.373 39.6575 46.8673 39.9898C46.3615 40.3177 45.9674 40.8001 45.6848 41.4369C45.4023 42.0694 45.2571 42.8395 45.2492 43.7471C45.241 44.6803 45.3727 45.4656 45.6441 46.1029C45.9198 46.7403 46.3077 47.2231 46.8077 47.5513C47.3077 47.8796 47.8879 48.0466 48.5484 48.0523C48.9191 48.0556 49.2626 48.0095 49.5787 47.9143C49.8992 47.8191 50.1838 47.6788 50.4326 47.4935C50.6814 47.3039 50.888 47.0734 51.0523 46.8021C51.2209 46.5308 51.3386 46.2208 51.4056 45.8719L54.2051 45.9091C54.1274 46.5093 53.9412 47.0873 53.6466 47.643C53.3563 48.1944 52.9663 48.6875 52.4767 49.1222C51.9914 49.5526 51.4131 49.8927 50.7419 50.1426C50.0749 50.3882 49.3217 50.5073 48.4823 50.5C47.3147 50.4898 46.273 50.2165 45.3572 49.6801C44.4457 49.1437 43.7279 48.3725 43.204 47.3665C42.6844 46.3605 42.4308 45.1458 42.4432 43.7226C42.4556 42.2951 42.7347 41.083 43.2803 40.0863C43.826 39.0896 44.5613 38.3332 45.4863 37.8171C46.4113 37.2968 47.4491 37.0416 48.5996 37.0516C49.3581 37.0583 50.0603 37.1709 50.7061 37.3896C51.3562 37.6084 51.9309 37.9245 52.4302 38.338C52.9295 38.7472 53.3342 39.2472 53.6444 39.838C53.9589 40.4288 54.1575 41.1038 54.2404 41.8631ZM60.5339 50.618C59.541 50.6093 58.6843 50.3909 57.9635 49.9627C57.2471 49.5303 56.6962 48.9331 56.3108 48.1712C55.9254 47.405 55.7371 46.5191 55.7459 45.5135C55.7547 44.4993 55.9585 43.6147 56.3571 42.8596C56.7558 42.1003 57.3171 41.5128 58.0409 41.0973C58.769 40.6775 59.6295 40.4719 60.6224 40.4806C61.6152 40.4892 62.4699 40.7098 63.1863 41.1422C63.907 41.5703 64.4601 42.1675 64.8454 42.9337C65.2309 43.6956 65.4191 44.5836 65.4103 45.5978C65.4015 46.6035 65.1978 47.4859 64.7991 48.2453C64.4004 49.0004 63.8371 49.5878 63.1089 50.0076C62.3851 50.4232 61.5268 50.6266 60.5339 50.618ZM60.5651 48.5088C61.0168 48.5127 61.395 48.3882 61.6998 48.1351C62.0046 47.8778 62.2357 47.5261 62.393 47.0801C62.5545 46.634 62.6378 46.1255 62.6428 45.5545C62.6478 44.9835 62.5734 44.4736 62.4196 44.0248C62.2701 43.576 62.0453 43.2203 61.745 42.9578C61.4447 42.6952 61.0687 42.5619 60.617 42.558C60.1611 42.554 59.7764 42.6806 59.4631 42.9379C59.154 43.1951 58.9187 43.5468 58.7571 43.9928C58.5998 44.4389 58.5187 44.9475 58.5137 45.5185C58.5087 46.0895 58.581 46.5993 58.7305 47.0481C58.8842 47.4969 59.1134 47.8526 59.4179 48.1152C59.7268 48.3736 60.1091 48.5048 60.5651 48.5088ZM70.7547 50.6752C70.009 50.6687 69.3352 50.471 68.7335 50.0822C68.1361 49.6892 67.6638 49.1162 67.3166 48.3631C66.9738 47.6059 66.8071 46.6796 66.8167 45.5845C66.8265 44.4596 67.0158 43.5258 67.3845 42.7833C67.7532 42.0364 68.2396 41.4803 68.8437 41.1148C69.4521 40.7451 70.1163 40.5634 70.8365 40.5697C71.3862 40.5745 71.8434 40.6722 72.2083 40.8629C72.5774 41.0494 72.8737 41.2821 73.0971 41.561C73.3248 41.8358 73.4972 42.1058 73.6142 42.371L73.6973 42.3717L73.7402 37.45L76.4567 37.4737L76.3425 50.5641L73.6579 50.5407L73.6717 48.9683L73.5566 48.9673C73.4264 49.2389 73.2429 49.5079 73.0062 49.7743C72.7738 50.0365 72.4715 50.2534 72.0992 50.4248C71.7313 50.5963 71.2831 50.6798 70.7547 50.6752ZM71.6365 48.5159C72.0754 48.5197 72.4471 48.4036 72.7518 48.1677C73.0607 47.9274 73.298 47.5907 73.4637 47.1575C73.6337 46.7243 73.7213 46.2158 73.7264 45.632C73.7314 45.0482 73.6549 44.5405 73.4967 44.1087C73.3386 43.6769 73.1071 43.3425 72.8023 43.1054C72.4976 42.8684 72.1258 42.7479 71.6868 42.7441C71.2394 42.7402 70.8612 42.8583 70.5523 43.0986C70.2434 43.3388 70.0082 43.6734 69.8468 44.1024C69.6854 44.5314 69.6022 45.0293 69.5973 45.596C69.5923 46.167 69.6667 46.6726 69.8205 47.1129C69.9787 47.549 70.2079 47.8919 70.5083 48.1417C70.813 48.3873 71.1891 48.512 71.6365 48.5159ZM83.0538 50.8145C82.0439 50.8057 81.1764 50.5935 80.4513 50.1781C79.7305 49.7584 79.1774 49.1698 78.792 48.4121C78.4065 47.6502 78.2184 46.7515 78.2274 45.7161C78.2362 44.7062 78.44 43.8215 78.8386 43.0622C79.2373 42.3029 79.7943 41.7132 80.5097 41.2933C81.2293 40.8735 82.0706 40.6677 83.0336 40.6761C83.6813 40.6818 84.2834 40.7914 84.8398 41.0051C85.4005 41.2146 85.8878 41.5278 86.3018 41.9448C86.7201 42.3618 87.0436 42.8845 87.2725 43.5129C87.5015 44.1371 87.6123 44.8668 87.605 45.702L87.5985 46.4499L79.3083 46.3775L79.323 44.6901L85.0501 44.74C85.0535 44.348 84.9713 44 84.8035 43.696C84.6357 43.3919 84.4013 43.1534 84.1002 42.9803C83.8035 42.803 83.4569 42.7126 83.0606 42.7091C82.6473 42.7055 82.28 42.7982 81.9587 42.9872C81.6418 43.1719 81.3924 43.4233 81.2106 43.7413C81.0289 44.0551 80.9342 44.4058 80.9266 44.7936L80.9126 46.3979C80.9084 46.8837 80.9942 47.3042 81.1701 47.6594C81.3502 48.0147 81.6056 48.2897 81.9363 48.4843C82.267 48.679 82.6604 48.7783 83.1163 48.7823C83.4188 48.7849 83.6962 48.7447 83.9484 48.6617C84.2005 48.5787 84.4168 48.4527 84.5973 48.2838C84.7777 48.1149 84.9159 47.9073 85.0118 47.661L87.5287 47.8492C87.3956 48.4531 87.1289 48.9792 86.7287 49.4275C86.3328 49.8715 85.8226 50.2165 85.1983 50.4624C84.5783 50.7042 83.8635 50.8215 83.0538 50.8145ZM93.5045 50.7139L93.5902 40.8961L96.3131 40.9199L96.2274 50.7377L93.5045 50.7139ZM94.9691 39.6425C94.5642 39.6389 94.2181 39.5017 93.9307 39.2307C93.6476 38.9555 93.5077 38.6283 93.511 38.249C93.5143 37.874 93.6598 37.5535 93.9477 37.2876C94.2398 37.0174 94.5883 36.8841 94.9931 36.8876C95.3979 36.8911 95.7419 37.0305 96.025 37.3057C96.3124 37.5767 96.4545 37.8997 96.4512 38.2747C96.4479 38.6539 96.3002 38.9786 96.008 39.2488C95.7202 39.5148 95.3739 39.646 94.9691 39.6425ZM106.639 43.8098L104.144 43.9414C104.104 43.728 104.014 43.5355 103.875 43.3638C103.736 43.1879 103.551 43.0477 103.322 42.9435C103.097 42.835 102.827 42.7793 102.512 42.7766C102.09 42.7729 101.733 42.8593 101.442 43.0357C101.151 43.2079 101.004 43.441 101.001 43.735C100.999 43.9694 101.091 44.1684 101.277 44.3319C101.463 44.4955 101.784 44.6283 102.239 44.7302L104.013 45.1037C104.966 45.308 105.675 45.6296 106.139 46.0683C106.604 46.507 106.834 47.0801 106.828 47.7875C106.822 48.4309 106.627 48.9938 106.244 49.4763C105.865 49.9588 105.346 50.3336 104.687 50.6006C104.033 50.8633 103.28 50.991 102.427 50.9835C101.128 50.9722 100.095 50.6926 99.328 50.1447C98.5658 49.5926 98.1227 48.8472 97.9988 47.9086L100.678 47.7913C100.756 48.1883 100.949 48.4926 101.258 48.7041C101.568 48.9113 101.965 49.0171 102.451 49.0213C102.928 49.0255 103.312 48.9372 103.604 48.7565C103.899 48.5716 104.051 48.3321 104.058 48.0381C104.055 47.791 103.953 47.5876 103.75 47.4282C103.547 47.2645 103.232 47.1382 102.807 47.0492L101.11 46.6956C100.153 46.4955 99.4417 46.1569 98.9771 45.6798C98.5167 45.2028 98.2898 44.5978 98.2962 43.8648C98.3017 43.2342 98.4768 42.6924 98.8217 42.2394C99.1709 41.7865 99.6576 41.4391 100.282 41.1974C100.91 40.9557 101.644 40.8385 102.484 40.8459C103.724 40.8567 104.697 41.1273 105.404 41.6576C106.116 42.188 106.527 42.9054 106.639 43.8098ZM114.989 50.9014L112.023 50.8755L116.656 37.8245L120.223 37.8557L124.621 50.9855L121.656 50.9596L118.465 40.8319L118.362 40.831L114.989 50.9014ZM114.848 45.7544L121.854 45.8155L121.835 47.976L114.83 47.9148L114.848 45.7544ZM126.146 50.9988L126.232 41.181L128.871 41.204L128.856 42.917L128.959 42.9179C129.143 42.3101 129.447 41.8525 129.872 41.5451C130.297 41.2335 130.784 41.0801 131.333 41.0849C131.47 41.086 131.617 41.0958 131.774 41.1143C131.932 41.1327 132.07 41.1573 132.189 41.1882L132.168 43.6043C132.04 43.5648 131.864 43.5292 131.638 43.4974C131.413 43.4656 131.206 43.4489 131.019 43.4473C130.618 43.4438 130.259 43.528 129.943 43.6999C129.63 43.8677 129.381 44.1042 129.195 44.4094C129.013 44.7146 128.921 45.0675 128.917 45.4681L128.869 51.0225L126.146 50.9988ZM139.311 41.2951L139.293 43.3405L133.38 43.2889L133.398 41.2435L139.311 41.2951ZM134.761 38.903L137.484 38.9268L137.404 48.0799C137.402 48.3313 137.439 48.5276 137.514 48.6689C137.59 48.8059 137.695 48.9027 137.831 48.9593C137.971 49.016 138.133 49.0451 138.316 49.0467C138.444 49.0478 138.572 49.0382 138.7 49.018C138.828 48.9936 138.926 48.9753 138.995 48.9631L139.405 50.993C139.268 51.0344 139.076 51.0818 138.829 51.135C138.581 51.1925 138.28 51.2261 137.926 51.2358C137.27 51.2557 136.695 51.1633 136.203 50.9587C135.715 50.7541 135.336 50.4397 135.067 50.0155C134.798 49.5913 134.668 49.0574 134.678 48.414L134.761 38.903ZM147.963 51.3745C147.336 51.3691 146.779 51.2555 146.291 51.0339C145.803 50.8081 145.418 50.4787 145.136 50.0458C144.859 49.6087 144.723 49.0663 144.728 48.4186C144.733 47.8732 144.837 47.416 145.041 47.047C145.244 46.6781 145.52 46.3821 145.867 46.1593C146.214 45.9365 146.607 45.7695 147.047 45.6582C147.491 45.5471 147.957 45.4701 148.443 45.4275C149.014 45.3728 149.475 45.3215 149.825 45.2734C150.175 45.221 150.429 45.1423 150.588 45.0371C150.746 44.932 150.826 44.775 150.828 44.5662L150.829 44.5278C150.832 44.123 150.707 43.8087 150.453 43.5849C150.204 43.3611 149.847 43.2472 149.382 43.2432C148.892 43.2389 148.501 43.3441 148.21 43.5589C147.918 43.7695 147.724 44.0362 147.628 44.3593L145.111 44.1328C145.244 43.5373 145.5 43.0239 145.879 42.5925C146.257 42.1569 146.744 41.8245 147.338 41.5953C147.937 41.3619 148.628 41.2486 149.412 41.2554C149.958 41.2602 150.479 41.3286 150.977 41.4608C151.479 41.5931 151.922 41.7951 152.308 42.0669C152.697 42.3388 153.003 42.6867 153.225 43.1105C153.447 43.5301 153.556 44.0317 153.551 44.6155L153.493 51.2374L150.911 51.2149L150.923 49.8534L150.846 49.8528C150.686 50.1582 150.472 50.4269 150.206 50.659C149.94 50.8868 149.621 51.0651 149.249 51.194C148.877 51.3186 148.448 51.3788 147.963 51.3745ZM148.759 49.5022C149.159 49.5056 149.514 49.4299 149.822 49.2749C150.13 49.1157 150.373 48.9004 150.55 48.6293C150.727 48.3581 150.817 48.0499 150.82 47.7047L150.829 46.6629C150.743 46.7175 150.626 46.7676 150.476 46.8132C150.331 46.8546 150.167 46.8936 149.983 46.9304C149.799 46.9628 149.616 46.9932 149.432 47.0214C149.249 47.0454 149.083 47.0674 148.933 47.0874C148.613 47.1315 148.334 47.2036 148.094 47.3038C147.855 47.404 147.668 47.5409 147.534 47.7144C147.401 47.8837 147.333 48.0962 147.331 48.3519C147.327 48.7226 147.459 49.0071 147.726 49.2055C147.997 49.3996 148.341 49.4985 148.759 49.5022ZM158.378 45.6037L158.329 51.2796L155.606 51.2559L155.691 41.4381L158.286 41.4607L158.271 43.1929L158.386 43.1939C158.609 42.6248 158.977 42.1763 159.491 41.8484C160.005 41.5162 160.627 41.3533 161.356 41.3596C162.037 41.3656 162.63 41.5199 163.135 41.8226C163.639 42.1253 164.03 42.5549 164.306 43.1113C164.583 43.6635 164.718 44.3209 164.711 45.0837L164.656 51.3348L161.934 51.3111L161.984 45.5457C161.993 44.9449 161.844 44.4748 161.536 44.1355C161.228 43.7919 160.801 43.6177 160.256 43.6129C159.889 43.6097 159.565 43.6857 159.282 43.8409C159.004 43.9962 158.784 44.2244 158.624 44.5256C158.468 44.8225 158.386 45.1819 158.378 45.6037ZM170.419 51.5449C169.673 51.5384 168.999 51.3408 168.398 50.952C167.8 50.559 167.328 49.9859 166.981 49.2329C166.638 48.4756 166.471 47.5494 166.481 46.4543C166.491 45.3293 166.68 44.3956 167.049 43.653C167.417 42.9062 167.904 42.3501 168.508 41.9846C169.116 41.6149 169.78 41.4332 170.501 41.4394C171.05 41.4442 171.508 41.542 171.872 41.7327C172.242 41.9191 172.538 42.1519 172.761 42.4308C172.989 42.7055 173.161 42.9755 173.278 43.2407L173.361 43.2415L173.404 38.3198L176.121 38.3435L176.007 51.4339L173.322 51.4105L173.336 49.8381L173.221 49.8371C173.091 50.1087 172.907 50.3777 172.67 50.6441C172.438 50.9063 172.136 51.1231 171.763 51.2946C171.395 51.4661 170.947 51.5496 170.419 51.5449ZM171.301 49.3857C171.74 49.3895 172.111 49.2734 172.416 49.0374C172.725 48.7972 172.962 48.4605 173.128 48.0273C173.298 47.5941 173.385 47.0856 173.391 46.5018C173.396 45.918 173.319 45.4102 173.161 44.9784C173.003 44.5466 172.771 44.2122 172.467 43.9752C172.162 43.7381 171.79 43.6177 171.351 43.6139C170.904 43.6099 170.525 43.7281 170.216 43.9683C169.908 44.2085 169.672 44.5431 169.511 44.9721C169.35 45.4011 169.266 45.899 169.261 46.4658C169.256 47.0368 169.331 47.5424 169.485 47.9827C169.643 48.4187 169.872 48.7617 170.172 49.0114C170.477 49.257 170.853 49.3817 171.301 49.3857ZM189.645 42.2266C189.598 41.7105 189.382 41.308 188.997 41.0192C188.612 40.7303 188.087 40.5829 187.422 40.5771C186.97 40.5732 186.589 40.6338 186.276 40.7589C185.964 40.8798 185.724 41.0503 185.556 41.2704C185.392 41.4906 185.309 41.7413 185.306 42.0225C185.296 42.2568 185.343 42.4618 185.448 42.6374C185.557 42.8131 185.707 42.9657 185.898 43.0952C186.089 43.2204 186.309 43.331 186.56 43.427C186.811 43.5186 187.078 43.5977 187.363 43.6641L188.537 43.9556C189.107 44.0884 189.629 44.2634 190.105 44.4807C190.58 44.6979 190.991 44.9636 191.338 45.2777C191.685 45.5918 191.952 45.9606 192.14 46.3842C192.332 46.8077 192.428 47.2922 192.428 47.8377C192.417 48.6388 192.206 49.3316 191.796 49.9161C191.39 50.4964 190.807 50.9451 190.046 51.2624C189.289 51.5754 188.377 51.7272 187.312 51.7179C186.255 51.7087 185.336 51.5388 184.555 51.2081C183.778 50.8774 183.173 50.3927 182.74 49.754C182.311 49.111 182.089 48.3185 182.076 47.3766L184.755 47.4C184.781 47.8392 184.903 48.2067 185.122 48.5027C185.345 48.7944 185.644 49.0165 186.018 49.1689C186.396 49.3171 186.823 49.3933 187.3 49.3974C187.769 49.4015 188.177 49.3369 188.523 49.2035C188.874 49.0702 189.146 48.883 189.34 48.6418C189.534 48.4005 189.632 48.1223 189.635 47.8069C189.637 47.5129 189.552 47.265 189.379 47.0632C189.21 46.8614 188.961 46.6888 188.629 46.5453C188.302 46.4018 187.901 46.2705 187.425 46.1512L186.002 45.7809C184.901 45.5028 184.033 45.0754 183.399 44.4989C182.765 43.9223 182.454 43.1504 182.467 42.1831C182.47 41.3905 182.687 40.6999 183.118 40.1113C183.553 39.5227 184.148 39.0655 184.9 38.7397C185.653 38.4139 186.507 38.2551 187.462 38.2635C188.433 38.272 189.28 38.4455 190.001 38.7842C190.727 39.123 191.29 39.5903 191.689 40.1861C192.089 40.7819 192.292 41.4698 192.298 42.2497L189.645 42.2266ZM198.64 51.8232C197.634 51.8144 196.771 51.5938 196.05 51.1614C195.334 50.7247 194.785 50.1233 194.404 49.3571C194.027 48.591 193.843 47.7116 193.852 46.7187C193.861 45.7131 194.062 44.8327 194.457 44.0776C194.855 43.3182 195.417 42.7287 196.141 42.3088C196.864 41.8847 197.723 41.677 198.716 41.6857C199.572 41.6932 200.321 41.8552 200.961 42.1719C201.602 42.4886 202.108 42.9298 202.478 43.4956C202.848 44.0613 203.049 44.7236 203.08 45.4824L200.511 45.46C200.443 44.9693 200.254 44.5735 199.946 44.2725C199.642 43.9673 199.24 43.8125 198.742 43.8081C198.32 43.8045 197.95 43.9163 197.633 44.1437C197.32 44.3668 197.074 44.6949 196.896 45.128C196.717 45.5611 196.625 46.0866 196.62 46.7045C196.614 47.3309 196.695 47.8643 196.862 48.3047C197.033 48.7451 197.275 49.0818 197.588 49.3146C197.901 49.5475 198.269 49.6657 198.691 49.6694C199.002 49.6721 199.281 49.6107 199.53 49.485C199.782 49.3593 199.991 49.1758 200.155 48.9343C200.323 48.6886 200.434 48.3934 200.488 48.0487L203.058 48.0711C203.009 48.8207 202.798 49.4794 202.427 50.0472C202.06 50.6108 201.555 51.0496 200.913 51.3636C200.271 51.6776 199.514 51.8308 198.64 51.8232ZM204.77 51.6849L204.855 41.8671L207.578 41.8909L207.493 51.7087L204.77 51.6849ZM206.234 40.6135C205.83 40.6099 205.483 40.4727 205.196 40.2017C204.913 39.9265 204.773 39.5993 204.776 39.22C204.78 38.845 204.925 38.5245 205.213 38.2586C205.505 37.9884 205.854 37.8551 206.258 37.8586C206.663 37.8621 207.007 38.0015 207.29 38.2767C207.578 38.5477 207.72 38.8707 207.717 39.2457C207.713 39.6249 207.565 39.9496 207.273 40.2198C206.985 40.4858 206.639 40.617 206.234 40.6135ZM214.146 51.9585C213.137 51.9497 212.269 51.7376 211.544 51.3221C210.823 50.9025 210.27 50.3138 209.885 49.5562C209.499 48.7943 209.311 47.8956 209.32 46.8601C209.329 45.8502 209.533 44.9656 209.931 44.2062C210.33 43.4469 210.887 42.8573 211.602 42.4374C212.322 42.0175 213.163 41.8118 214.126 41.8202C214.774 41.8258 215.376 41.9355 215.932 42.1491C216.493 42.3586 216.98 42.6718 217.394 43.0888C217.813 43.5058 218.136 44.0285 218.365 44.657C218.594 45.2812 218.705 46.0108 218.698 46.846L218.691 47.5939L210.401 47.5215L210.416 45.8341L216.143 45.8841C216.146 45.492 216.064 45.144 215.896 44.84C215.728 44.5359 215.494 44.2974 215.193 44.1243C214.896 43.947 214.55 43.8566 214.153 43.8531C213.74 43.8495 213.373 43.9422 213.051 44.1312C212.734 44.3159 212.485 44.5673 212.303 44.8853C212.122 45.1991 212.027 45.5499 212.019 45.9376L212.005 47.5419C212.001 48.0277 212.087 48.4482 212.263 48.8035C212.443 49.1587 212.698 49.4337 213.029 49.6284C213.36 49.823 213.753 49.9223 214.209 49.9263C214.512 49.9289 214.789 49.8888 215.041 49.8057C215.293 49.7227 215.509 49.5967 215.69 49.4278C215.87 49.259 216.009 49.0514 216.104 48.805L218.621 48.9932C218.488 49.5972 218.222 50.1233 217.821 50.5715C217.425 51.0155 216.915 51.3605 216.291 51.6065C215.671 51.8482 214.956 51.9656 214.146 51.9585ZM223.204 46.1694L223.154 51.8453L220.431 51.8216L220.517 42.0038L223.112 42.0264L223.097 43.7586L223.212 43.7596C223.434 43.1905 223.803 42.742 224.317 42.4141C224.831 42.0819 225.453 41.919 226.181 41.9254C226.863 41.9313 227.456 42.0856 227.961 42.3884C228.465 42.6911 228.856 43.1206 229.132 43.677C229.408 44.2292 229.543 44.8866 229.537 45.6494L229.482 51.9006L226.759 51.8768L226.809 46.1114C226.819 45.5106 226.67 45.0405 226.362 44.7012C226.053 44.3576 225.627 44.1834 225.081 44.1786C224.715 44.1754 224.39 44.2514 224.108 44.4067C223.829 44.5619 223.61 44.7901 223.45 45.0913C223.294 45.3882 223.212 45.7476 223.204 46.1694ZM236.062 52.1498C235.057 52.141 234.194 51.9204 233.473 51.4879C232.756 51.0513 232.208 50.4499 231.827 49.6837C231.45 48.9176 231.266 48.0381 231.274 47.0453C231.283 46.0396 231.485 45.1593 231.879 44.4042C232.278 43.6448 232.839 43.0552 233.563 42.6354C234.287 42.2113 235.145 42.0036 236.138 42.0123C236.995 42.0197 237.743 42.1818 238.384 42.4985C239.025 42.8152 239.53 43.2564 239.9 43.8221C240.27 44.3879 240.471 45.0502 240.503 45.809L237.933 45.7866C237.865 45.2959 237.677 44.9001 237.368 44.5991C237.064 44.2939 236.663 44.1391 236.164 44.1347C235.742 44.131 235.373 44.2429 235.055 44.4702C234.742 44.6934 234.497 45.0215 234.318 45.4546C234.14 45.8877 234.048 46.4132 234.042 47.0311C234.037 47.6575 234.117 48.1909 234.284 48.6313C234.455 49.0717 234.697 49.4083 235.01 49.6412C235.324 49.8741 235.691 49.9923 236.113 49.996C236.424 49.9987 236.704 49.9372 236.952 49.8116C237.205 49.6859 237.413 49.5024 237.577 49.2609C237.745 49.0152 237.857 48.72 237.911 48.3753L240.48 48.3977C240.431 49.1473 240.221 49.806 239.849 50.3738C239.482 50.9374 238.978 51.3762 238.336 51.6902C237.694 52.0042 236.936 52.1574 236.062 52.1498ZM246.665 52.2423C245.655 52.2335 244.787 52.0214 244.062 51.6059C243.341 51.1863 242.788 50.5976 242.403 49.84C242.017 49.078 241.829 48.1793 241.838 47.1439C241.847 46.134 242.051 45.2493 242.45 44.49C242.848 43.7307 243.405 43.1411 244.121 42.7211C244.84 42.3013 245.682 42.0955 246.645 42.1039C247.292 42.1096 247.894 42.2193 248.451 42.4329C249.011 42.6424 249.499 42.9556 249.913 43.3726C250.331 43.7896 250.655 44.3123 250.883 44.9408C251.112 45.5649 251.223 46.2946 251.216 47.1298L251.209 47.8777L242.919 47.8053L242.934 46.1179L248.661 46.1679C248.664 45.7758 248.582 45.4278 248.414 45.1238C248.247 44.8197 248.012 44.5812 247.711 44.4081C247.414 44.2308 247.068 44.1404 246.672 44.1369C246.258 44.1333 245.891 44.226 245.57 44.415C245.253 44.5997 245.003 44.8511 244.822 45.1691C244.64 45.4829 244.545 45.8336 244.538 46.2214L244.524 47.8257C244.519 48.3115 244.605 48.732 244.781 49.0872C244.961 49.4425 245.217 49.7175 245.547 49.9121C245.878 50.1068 246.271 50.2061 246.727 50.2101C247.03 50.2127 247.307 50.1725 247.559 50.0895C247.811 50.0065 248.028 49.8805 248.208 49.7116C248.389 49.5427 248.527 49.3351 248.623 49.0888L251.14 49.277C251.007 49.8809 250.74 50.407 250.34 50.8553C249.944 51.2993 249.434 51.6443 248.809 51.8903C248.189 52.132 247.474 52.2494 246.665 52.2423ZM41.8992 92.8746L41.914 91.1743L52.045 91.2627L52.0302 92.963L47.9458 92.9273L47.8464 104.318L45.8777 104.3L45.9771 92.9101L41.8992 92.8746ZM55.9781 98.5587L55.9273 104.388L54.0161 104.371L54.1303 91.2809L56.0159 91.2974L55.9734 96.168L56.0949 96.169C56.3296 95.6426 56.6848 95.226 57.1605 94.919C57.6362 94.6121 58.2554 94.462 59.0182 94.4686C59.6915 94.4745 60.2783 94.6181 60.7787 94.8995C61.2834 95.1809 61.6718 95.5976 61.944 96.1497C62.2205 96.6976 62.3551 97.3806 62.348 98.1988L62.2935 104.444L60.3823 104.427L60.4348 98.4122C60.4411 97.6921 60.2606 97.1322 59.8934 96.7327C59.5261 96.3289 59.0123 96.1242 58.3518 96.1184C57.9001 96.1145 57.4944 96.2068 57.1348 96.3954C56.7795 96.5841 56.4979 96.8629 56.2901 97.2318C56.0867 97.5966 55.9827 98.0388 55.9781 98.5587ZM67.6991 104.708C67.0769 104.703 66.5154 104.583 66.0146 104.348C65.5139 104.109 65.1184 103.767 64.8282 103.321C64.5423 102.876 64.4022 102.331 64.4078 101.688C64.4127 101.134 64.5232 100.679 64.7393 100.323C64.9555 99.9667 65.2456 99.6858 65.6097 99.4802C65.9737 99.2745 66.3799 99.1204 66.8282 99.0178C67.2766 98.9151 67.7332 98.8381 68.1982 98.7868C68.7868 98.7238 69.2646 98.6725 69.6314 98.6331C69.9983 98.5894 70.2653 98.5172 70.4323 98.4164C70.5994 98.3156 70.684 98.1501 70.686 97.92L70.6864 97.8752C70.6912 97.317 70.5373 96.8831 70.2247 96.5736C69.9163 96.2641 69.4532 96.1066 68.8353 96.1012C68.1918 96.0956 67.6835 96.2339 67.3103 96.5162C66.9414 96.7942 66.6851 97.1052 66.5415 97.4491L64.749 97.0244C64.9672 96.4297 65.2825 95.9509 65.6948 95.588C66.1113 95.2209 66.5888 94.9566 67.1272 94.7951C67.6656 94.6293 68.2309 94.549 68.8232 94.5542C69.2152 94.5576 69.6303 94.6081 70.0684 94.7057C70.5108 94.799 70.9227 94.9688 71.3041 95.2151C71.6897 95.4613 72.0041 95.8114 72.2473 96.2652C72.4906 96.7148 72.6091 97.2975 72.6028 98.0134L72.5459 104.533L70.6795 104.517L70.6912 103.174L70.6145 103.174C70.4888 103.42 70.3013 103.661 70.0521 103.898C69.8029 104.134 69.4837 104.329 69.0945 104.484C68.7054 104.638 68.2402 104.713 67.6991 104.708ZM68.1279 103.178C68.6563 103.182 69.1089 103.082 69.4857 102.876C69.8668 102.671 70.1568 102.401 70.3557 102.066C70.559 101.727 70.6623 101.363 70.6657 100.975L70.6767 99.7097C70.608 99.7773 70.4753 99.8401 70.2788 99.898C70.0865 99.9518 69.8667 99.9989 69.6191 100.039C69.3716 100.076 69.1306 100.11 68.8959 100.142C68.6613 100.169 68.465 100.193 68.3072 100.213C67.9361 100.257 67.5966 100.333 67.2888 100.441C66.9853 100.549 66.741 100.707 66.556 100.914C66.3752 101.117 66.2834 101.389 66.2804 101.73C66.2763 102.203 66.4478 102.562 66.7951 102.808C67.1425 103.05 67.5867 103.173 68.1279 103.178ZM79.7601 94.7775L79.7467 96.3115L74.384 96.2647L74.3974 94.7307L79.7601 94.7775ZM75.856 92.391L77.7672 92.4077L77.6861 101.695C77.6829 102.066 77.7359 102.345 77.845 102.534C77.9542 102.718 78.0959 102.845 78.27 102.915C78.4484 102.98 78.642 103.014 78.8508 103.016C79.0042 103.017 79.1385 103.007 79.2538 102.987C79.369 102.967 79.4586 102.951 79.5227 102.938L79.854 104.52C79.7429 104.562 79.5848 104.603 79.3799 104.644C79.175 104.689 78.9191 104.712 78.6122 104.714C78.1093 104.718 77.6414 104.624 77.2084 104.433C76.7754 104.242 76.4264 103.949 76.1613 103.555C75.8963 103.16 75.7664 102.667 75.7715 102.075L75.856 92.391ZM84.0376 91.5419L84.0269 92.7692C84.0237 93.1314 83.9522 93.5122 83.8124 93.9115C83.6768 94.3067 83.486 94.6864 83.2399 95.0507C82.9938 95.4151 82.7055 95.7279 82.3751 95.9893L81.4351 95.3035C81.6897 94.9392 81.9104 94.5512 82.0972 94.1395C82.2883 93.7278 82.3861 93.2726 82.3904 92.7741L82.4013 91.5277L84.0376 91.5419ZM91.9523 97.281L90.2174 97.5727C90.1469 97.3504 90.0337 97.1385 89.8778 96.9369C89.7261 96.7352 89.5188 96.5694 89.2557 96.4392C88.9926 96.3091 88.6629 96.2423 88.2666 96.2388C87.7255 96.2341 87.2727 96.3516 86.9084 96.5913C86.5441 96.8268 86.3603 97.1342 86.357 97.5134C86.3541 97.8415 86.4733 98.1068 86.7144 98.3092C86.9556 98.5116 87.3462 98.679 87.8862 98.8116L89.4427 99.1831C90.3443 99.3998 91.0147 99.7274 91.4541 100.166C91.8935 100.604 92.1101 101.171 92.1041 101.866C92.0989 102.454 91.9239 102.976 91.579 103.433C91.2384 103.886 90.7644 104.24 90.157 104.495C89.5539 104.75 88.8561 104.874 88.0635 104.867C86.9641 104.857 86.0692 104.615 85.3787 104.14C84.6882 103.661 84.268 102.986 84.1179 102.115L85.9676 101.85C86.0784 102.333 86.3118 102.699 86.6675 102.95C87.0234 103.196 87.4889 103.321 88.0642 103.326C88.6906 103.332 89.1924 103.206 89.5696 102.949C89.9469 102.688 90.1372 102.368 90.1405 101.989C90.1432 101.682 90.0304 101.423 89.8021 101.213C89.5781 101.002 89.2322 100.841 88.7644 100.731L87.1057 100.352C86.1914 100.135 85.5167 99.7966 85.0818 99.3369C84.6512 98.8771 84.4389 98.2978 84.445 97.599C84.45 97.0195 84.6164 96.5138 84.944 96.082C85.2717 95.6502 85.722 95.3153 86.2952 95.0774C86.8683 94.8352 87.5235 94.7174 88.2607 94.7238C89.3217 94.7331 90.1549 94.9705 90.7602 95.436C91.3656 95.8972 91.763 96.5122 91.9523 97.281ZM101.073 104.782L98.2691 94.939L100.244 94.9562L102.105 102.183L102.201 102.184L104.194 94.9907L106.169 95.0079L108.024 102.203L108.12 102.203L110.094 95.0422L112.069 95.0594L109.101 104.852L107.151 104.835L105.219 97.7291L105.072 97.7279L103.016 104.799L101.073 104.782ZM115.759 99.0804L115.708 104.91L113.797 104.893L113.911 91.8026L115.797 91.8191L115.754 96.6897L115.876 96.6907C116.111 96.1643 116.466 95.7477 116.941 95.4407C117.417 95.1338 118.036 94.9837 118.799 94.9903C119.472 94.9962 120.059 95.1398 120.56 95.4212C121.064 95.7026 121.453 96.1193 121.725 96.6714C122.001 97.2193 122.136 97.9023 122.129 98.7205L122.074 104.965L120.163 104.949L120.216 98.9339C120.222 98.2138 120.042 97.6539 119.674 97.2544C119.307 96.8506 118.793 96.6459 118.133 96.6401C117.681 96.6362 117.275 96.7285 116.916 96.9171C116.56 97.1058 116.279 97.3846 116.071 97.7535C115.868 98.1183 115.764 98.5605 115.759 99.0804ZM125.449 108.677C125.164 108.674 124.904 108.649 124.67 108.6C124.436 108.555 124.262 108.507 124.147 108.454L124.621 106.892C124.97 106.989 125.28 107.032 125.553 107.022C125.826 107.012 126.068 106.911 126.278 106.722C126.493 106.532 126.683 106.22 126.849 105.787L127.091 105.137L123.585 95.1599L125.631 95.1778L128.051 102.818L128.153 102.819L130.706 95.2221L132.758 95.24L128.615 106.333C128.423 106.842 128.18 107.273 127.887 107.624C127.594 107.979 127.247 108.245 126.845 108.42C126.443 108.596 125.978 108.681 125.449 108.677ZM141.474 92.0432L141.36 105.134L139.385 105.116L139.499 92.0259L141.474 92.0432ZM148.752 95.3795L148.738 96.9136L143.375 96.8668L143.389 95.3327L148.752 95.3795ZM144.848 92.9931L146.759 93.0098L146.678 102.297C146.674 102.668 146.727 102.947 146.837 103.136C146.946 103.32 147.087 103.447 147.261 103.517C147.44 103.582 147.634 103.616 147.842 103.618C147.996 103.619 148.13 103.61 148.245 103.589C148.36 103.569 148.45 103.553 148.514 103.54L148.846 105.122C148.734 105.164 148.576 105.205 148.371 105.246C148.166 105.291 147.911 105.314 147.604 105.316C147.101 105.32 146.633 105.226 146.2 105.035C145.767 104.844 145.418 104.551 145.153 104.157C144.888 103.762 144.758 103.269 144.763 102.677L144.848 92.9931ZM157.506 99.4447L157.455 105.274L155.543 105.257L155.629 95.4396L157.464 95.4556L157.45 97.0535L157.571 97.0546C157.801 96.5367 158.159 96.1222 158.643 95.811C159.132 95.5 159.744 95.3476 160.482 95.3541C161.151 95.3599 161.735 95.5056 162.236 95.7913C162.736 96.0726 163.122 96.4894 163.395 97.0415C163.667 97.5936 163.799 98.2745 163.792 99.0841L163.738 105.329L161.827 105.312L161.879 99.2975C161.885 98.5859 161.705 98.0282 161.338 97.6244C160.97 97.2164 160.463 97.0095 159.815 97.0039C159.372 97 158.977 97.0924 158.63 97.2812C158.288 97.4699 158.015 97.7488 157.811 98.1178C157.612 98.4825 157.51 98.9249 157.506 99.4447ZM170.531 105.586C169.563 105.578 168.732 105.364 168.037 104.945C167.346 104.521 166.814 103.93 166.441 103.173C166.073 102.411 165.893 101.521 165.902 100.502C165.911 99.4968 166.106 98.6121 166.488 97.8483C166.874 97.0846 167.407 96.4905 168.089 96.0661C168.774 95.6416 169.573 95.4334 170.485 95.4414C171.039 95.4462 171.575 95.5425 172.093 95.7303C172.611 95.918 173.076 96.2097 173.485 96.6054C173.895 97.001 174.217 97.5131 174.45 98.1415C174.683 98.7658 174.796 99.5232 174.788 100.414L174.782 101.091L166.978 101.023L166.99 99.5914L172.922 99.6432C172.926 99.1404 172.828 98.6942 172.627 98.3046C172.426 97.9108 172.141 97.5994 171.772 97.3703C171.408 97.1412 170.978 97.0246 170.484 97.0202C169.947 97.0156 169.477 97.1436 169.074 97.4043C168.676 97.6607 168.366 97.999 168.145 98.4189C167.928 98.8347 167.818 99.2875 167.813 99.7776L167.804 100.896C167.798 101.552 167.908 102.112 168.134 102.574C168.364 103.036 168.687 103.39 169.103 103.637C169.518 103.879 170.005 104.003 170.563 104.008C170.926 104.011 171.256 103.963 171.556 103.863C171.855 103.759 172.114 103.604 172.333 103.397C172.552 103.19 172.721 102.933 172.838 102.628L174.644 102.969C174.495 103.501 174.231 103.965 173.852 104.362C173.478 104.755 173.009 105.06 172.445 105.277C171.884 105.489 171.246 105.593 170.531 105.586ZM181.095 105.679C180.127 105.67 179.296 105.456 178.601 105.037C177.91 104.613 177.378 104.022 177.005 103.265C176.637 102.503 176.457 101.613 176.466 100.595C176.475 99.589 176.67 98.7043 177.052 97.9405C177.438 97.1768 177.971 96.5827 178.653 96.1583C179.338 95.7338 180.137 95.5256 181.049 95.5336C181.603 95.5384 182.139 95.6347 182.657 95.8225C183.175 96.0102 183.64 96.3019 184.049 96.6976C184.459 97.0932 184.781 97.6053 185.014 98.2337C185.247 98.858 185.36 99.6154 185.352 100.506L185.346 101.183L177.542 101.115L177.554 99.6836L183.486 99.7354C183.49 99.2326 183.392 98.7864 183.191 98.3968C182.99 98.003 182.705 97.6916 182.336 97.4625C181.972 97.2334 181.542 97.1168 181.048 97.1124C180.511 97.1078 180.041 97.2358 179.638 97.4965C179.24 97.7529 178.93 98.0912 178.709 98.5111C178.492 98.9269 178.382 99.3797 178.377 99.8698L178.368 100.988C178.362 101.645 178.472 102.204 178.698 102.666C178.929 103.128 179.251 103.483 179.667 103.729C180.082 103.971 180.569 104.095 181.128 104.1C181.49 104.103 181.82 104.055 182.12 103.955C182.419 103.851 182.678 103.696 182.897 103.489C183.116 103.282 183.285 103.026 183.402 102.72L185.208 103.062C185.059 103.593 184.795 104.057 184.416 104.455C184.042 104.848 183.573 105.153 183.009 105.369C182.448 105.582 181.81 105.685 181.095 105.679ZM191.103 105.759C190.31 105.753 189.604 105.544 188.986 105.134C188.372 104.719 187.891 104.133 187.544 103.376C187.201 102.614 187.034 101.703 187.043 100.642C187.053 99.5811 187.237 98.675 187.598 97.9239C187.962 97.1728 188.457 96.5997 189.083 96.2045C189.709 95.8094 190.416 95.6153 191.204 95.6222C191.813 95.6275 192.302 95.734 192.671 95.9418C193.045 96.1454 193.332 96.3823 193.534 96.6525C193.741 96.9228 193.901 97.1607 194.014 97.3662L194.129 97.3672L194.172 92.5031L196.083 92.5197L195.968 105.61L194.102 105.594L194.115 104.066L193.956 104.065C193.839 104.273 193.67 104.51 193.451 104.776C193.235 105.043 192.939 105.275 192.563 105.472C192.186 105.669 191.699 105.765 191.103 105.759ZM191.539 104.133C192.088 104.138 192.554 103.997 192.936 103.711C193.322 103.42 193.615 103.016 193.816 102.498C194.021 101.979 194.126 101.375 194.132 100.685C194.138 100.003 194.045 99.4056 193.854 98.8926C193.662 98.3795 193.378 97.9786 193.001 97.6898C192.624 97.401 192.157 97.2541 191.599 97.2493C191.023 97.2442 190.543 97.3892 190.157 97.6841C189.771 97.9791 189.477 98.3835 189.277 98.8974C189.081 99.4113 188.98 99.9921 188.974 100.64C188.968 101.296 189.061 101.887 189.252 102.413C189.444 102.939 189.73 103.357 190.111 103.667C190.496 103.973 190.972 104.128 191.539 104.133ZM206.118 98.2773L204.383 98.569C204.312 98.3468 204.199 98.1348 204.043 97.9332C203.892 97.7316 203.684 97.5657 203.421 97.4355C203.158 97.3054 202.829 97.2386 202.432 97.2351C201.891 97.2304 201.438 97.3479 201.074 97.5876C200.71 97.8231 200.526 98.1305 200.523 98.5097C200.52 98.8378 200.639 99.1031 200.88 99.3055C201.121 99.5079 201.512 99.6753 202.052 99.8079L203.608 100.179C204.51 100.396 205.18 100.724 205.62 101.162C206.059 101.601 206.276 102.167 206.27 102.862C206.264 103.45 206.089 103.973 205.745 104.43C205.404 104.883 204.93 105.237 204.323 105.491C203.719 105.746 203.022 105.87 202.229 105.863C201.13 105.853 200.235 105.611 199.544 105.136C198.854 104.657 198.434 103.982 198.283 103.112L200.133 102.847C200.244 103.329 200.477 103.696 200.833 103.946C201.189 104.192 201.654 104.317 202.23 104.322C202.856 104.328 203.358 104.202 203.735 103.946C204.112 103.685 204.303 103.365 204.306 102.985C204.309 102.679 204.196 102.42 203.968 102.209C203.744 101.998 203.398 101.837 202.93 101.727L201.271 101.348C200.357 101.131 199.682 100.793 199.247 100.333C198.817 99.8734 198.604 99.2941 198.611 98.5953C198.616 98.0158 198.782 97.5101 199.11 97.0783C199.437 96.6465 199.888 96.3116 200.461 96.0737C201.034 95.8315 201.689 95.7137 202.426 95.7201C203.487 95.7294 204.32 95.9668 204.926 96.4323C205.531 96.8936 205.929 97.5086 206.118 98.2773ZM217.778 95.9819L217.765 97.516L212.402 97.4692L212.416 95.9351L217.778 95.9819ZM213.874 93.5955L215.785 93.6122L215.704 102.899C215.701 103.27 215.754 103.55 215.863 103.738C215.972 103.922 216.114 104.049 216.288 104.119C216.467 104.185 216.66 104.218 216.869 104.22C217.022 104.221 217.157 104.212 217.272 104.192C217.387 104.171 217.477 104.155 217.541 104.143L217.872 105.725C217.761 105.766 217.603 105.807 217.398 105.848C217.193 105.893 216.937 105.917 216.63 105.918C216.128 105.922 215.66 105.829 215.227 105.638C214.794 105.446 214.445 105.153 214.179 104.759C213.914 104.365 213.785 103.871 213.79 103.279L213.874 93.5955ZM223.835 106.052C222.915 106.043 222.113 105.826 221.431 105.398C220.748 104.97 220.221 104.375 219.848 103.613C219.476 102.851 219.294 101.963 219.303 100.949C219.311 99.9308 219.509 99.0419 219.895 98.2824C220.281 97.523 220.819 96.9353 221.508 96.5195C222.198 96.1036 223.003 95.8997 223.923 95.9077C224.844 95.9157 225.645 96.1337 226.328 96.5615C227.01 96.9894 227.538 97.5863 227.91 98.3524C228.283 99.1185 228.465 100.011 228.456 101.029C228.447 102.043 228.249 102.928 227.864 103.683C227.478 104.438 226.94 105.024 226.25 105.44C225.56 105.856 224.755 106.06 223.835 106.052ZM223.855 104.447C224.452 104.452 224.948 104.299 225.342 103.987C225.737 103.675 226.031 103.258 226.223 102.736C226.419 102.213 226.52 101.637 226.525 101.006C226.531 100.38 226.44 99.8034 226.253 99.2776C226.07 98.7476 225.784 98.3211 225.395 97.998C225.005 97.675 224.512 97.5109 223.916 97.5057C223.315 97.5005 222.815 97.6559 222.416 97.9721C222.021 98.2882 221.726 98.7097 221.529 99.2364C221.337 99.7589 221.238 100.333 221.233 100.96C221.227 101.59 221.316 102.169 221.499 102.694C221.686 103.22 221.975 103.642 222.364 103.961C222.757 104.28 223.255 104.442 223.855 104.447ZM235.463 105.955L235.578 92.8644L237.489 92.8811L237.446 97.7453L237.561 97.7463C237.674 97.5427 237.836 97.3076 238.047 97.0409C238.258 96.7743 238.55 96.5425 238.922 96.3454C239.295 96.1441 239.786 96.0461 240.395 96.0515C241.188 96.0584 241.893 96.2648 242.512 96.6708C243.131 97.0768 243.613 97.6584 243.961 98.4158C244.312 99.1731 244.483 100.082 244.474 101.143C244.464 102.204 244.28 103.113 243.919 103.868C243.559 104.619 243.068 105.197 242.447 105.6C241.825 106 241.118 106.196 240.326 106.189C239.729 106.184 239.242 106.079 238.865 105.876C238.492 105.672 238.2 105.435 237.989 105.165C237.778 104.895 237.616 104.655 237.503 104.445L237.343 104.443L237.33 105.971L235.463 105.955ZM237.379 101.062C237.373 101.753 237.468 102.359 237.664 102.88C237.859 103.402 238.146 103.811 238.522 104.109C238.899 104.402 239.362 104.551 239.912 104.555C240.483 104.56 240.961 104.413 241.348 104.114C241.734 103.811 242.027 103.398 242.228 102.875C242.433 102.353 242.538 101.764 242.544 101.107C242.549 100.46 242.456 99.8771 242.265 99.3598C242.078 98.8425 241.791 98.4331 241.406 98.1314C241.025 97.8298 240.547 97.6764 239.972 97.6714C239.418 97.6666 238.948 97.8052 238.562 98.0874C238.18 98.3696 237.889 98.7655 237.689 99.2751C237.488 99.7848 237.385 100.38 237.379 101.062ZM250.807 106.287C249.839 106.278 249.008 106.065 248.313 105.645C247.622 105.221 247.09 104.631 246.718 103.873C246.349 103.111 246.169 102.221 246.178 101.203C246.187 100.197 246.382 99.3126 246.764 98.5489C247.15 97.7852 247.684 97.1911 248.365 96.7666C249.05 96.3422 249.849 96.134 250.761 96.1419C251.315 96.1468 251.851 96.2431 252.369 96.4308C252.888 96.6186 253.352 96.9103 253.762 97.3059C254.172 97.7016 254.493 98.2136 254.726 98.8421C254.959 99.4663 255.072 100.224 255.064 101.114L255.059 101.792L247.254 101.724L247.267 100.292L253.198 100.344C253.203 99.8409 253.104 99.3947 252.903 99.0052C252.702 98.6114 252.417 98.2999 252.048 98.0708C251.684 97.8418 251.254 97.7251 250.76 97.7208C250.223 97.7161 249.753 97.8441 249.35 98.1048C248.952 98.3613 248.642 98.6995 248.421 99.1195C248.204 99.5352 248.094 99.9881 248.09 100.478L248.08 101.597C248.074 102.253 248.184 102.812 248.41 103.274C248.641 103.737 248.964 104.091 249.379 104.338C249.795 104.58 250.281 104.703 250.84 104.708C251.202 104.711 251.533 104.663 251.832 104.564C252.131 104.46 252.39 104.304 252.609 104.097C252.828 103.89 252.997 103.634 253.115 103.328L254.921 103.67C254.771 104.201 254.507 104.666 254.129 105.063C253.754 105.456 253.285 105.761 252.721 105.978C252.161 106.19 251.523 106.293 250.807 106.287ZM45.7299 131.492C44.9374 131.485 44.2318 131.276 43.6132 130.866C42.9989 130.452 42.5182 129.866 42.1711 129.108C41.8283 128.347 41.6615 127.436 41.6707 126.375C41.68 125.314 41.8648 124.407 42.225 123.656C42.5896 122.905 43.0846 122.332 43.7103 121.937C44.3359 121.542 45.0429 121.348 45.8312 121.355C46.4405 121.36 46.9297 121.466 47.2986 121.674C47.6719 121.878 47.9596 122.115 48.1618 122.385C48.3682 122.655 48.5281 122.893 48.6414 123.099L48.7564 123.1L48.7989 118.235L50.71 118.252L50.5958 131.343L48.7294 131.326L48.7427 129.799L48.5829 129.797C48.466 130.005 48.2978 130.242 48.0781 130.509C47.8627 130.775 47.5666 131.007 47.1899 131.204C46.8132 131.401 46.3265 131.497 45.7299 131.492ZM46.166 129.866C46.7157 129.87 47.1815 129.73 47.5632 129.443C47.9493 129.152 48.2426 128.748 48.4432 128.23C48.648 127.712 48.7534 127.108 48.7594 126.417C48.7654 125.735 48.6726 125.138 48.481 124.625C48.2895 124.112 48.0053 123.711 47.6286 123.422C47.2518 123.133 46.7843 122.987 46.2261 122.982C45.6508 122.977 45.1701 123.122 44.784 123.417C44.3979 123.711 44.1046 124.116 43.9041 124.63C43.7078 125.144 43.6069 125.725 43.6012 126.372C43.5955 127.028 43.6884 127.619 43.8798 128.145C44.0713 128.671 44.3574 129.089 44.7382 129.399C45.1233 129.705 45.5993 129.861 46.166 129.866ZM57.5531 131.601C56.5858 131.593 55.7546 131.379 55.0593 130.96C54.3684 130.536 53.8366 129.945 53.4639 129.188C53.0956 128.426 52.9158 127.536 52.9247 126.518C52.9335 125.512 53.1287 124.627 53.5104 123.863C53.8963 123.1 54.43 122.506 55.1112 122.081C55.7968 121.657 56.5955 121.448 57.5074 121.456C58.0614 121.461 58.5975 121.558 59.1157 121.745C59.634 121.933 60.0981 122.225 60.508 122.62C60.9179 123.016 61.2395 123.528 61.4726 124.157C61.7058 124.781 61.8185 125.538 61.8108 126.429L61.8049 127.106L54.0005 127.038L54.013 125.607L59.9446 125.658C59.9489 125.155 59.8506 124.709 59.6494 124.32C59.4483 123.926 59.1634 123.614 58.7946 123.385C58.4301 123.156 58.0007 123.04 57.5064 123.035C56.9695 123.031 56.4996 123.159 56.0968 123.419C55.6982 123.676 55.3884 124.014 55.1674 124.434C54.9507 124.85 54.8402 125.303 54.8359 125.793L54.8262 126.911C54.8205 127.567 54.9306 128.127 55.1567 128.589C55.3871 129.051 55.71 129.406 56.1255 129.652C56.541 129.894 57.0279 130.018 57.5861 130.023C57.9483 130.026 58.279 129.978 58.5781 129.878C58.8774 129.774 59.1365 129.619 59.3557 129.412C59.5748 129.205 59.7433 128.949 59.861 128.643L61.667 128.985C61.5175 129.516 61.2535 129.98 60.875 130.378C60.5008 130.771 60.0315 131.075 59.4671 131.292C58.907 131.505 58.269 131.608 57.5531 131.601ZM71.3092 124.102L69.5744 124.394C69.5039 124.171 69.3907 123.959 69.2348 123.758C69.0831 123.556 68.8757 123.39 68.6127 123.26C68.3496 123.13 68.0199 123.063 67.6236 123.06C67.0824 123.055 66.6297 123.172 66.2654 123.412C65.9011 123.648 65.7173 123.955 65.714 124.334C65.7111 124.662 65.8302 124.928 66.0714 125.13C66.3125 125.332 66.7031 125.5 67.2432 125.632L68.7997 126.004C69.7012 126.221 70.3717 126.548 70.811 126.987C71.2504 127.425 71.4671 127.992 71.461 128.686C71.4559 129.274 71.2809 129.797 70.9359 130.254C70.5953 130.707 70.1213 131.061 69.514 131.316C68.9109 131.571 68.213 131.694 67.4205 131.688C66.3211 131.678 65.4261 131.436 64.7356 130.961C64.0452 130.482 63.6249 129.807 63.4749 128.936L65.3245 128.671C65.4354 129.154 65.6687 129.52 66.0245 129.77C66.3803 130.016 66.8459 130.142 67.4211 130.147C68.0475 130.152 68.5493 130.027 68.9266 129.77C69.3039 129.509 69.4942 129.189 69.4975 128.81C69.5002 128.503 69.3874 128.244 69.1591 128.034C68.9351 127.823 68.5892 127.662 68.1214 127.551L66.4627 127.173C65.5483 126.956 64.8737 126.618 64.4388 126.158C64.0081 125.698 63.7958 125.119 63.8019 124.42C63.807 123.84 63.9733 123.335 64.301 122.903C64.6286 122.471 65.079 122.136 65.6521 121.898C66.2253 121.656 66.8805 121.538 67.6176 121.545C68.6787 121.554 69.5119 121.791 70.1172 122.257C70.7226 122.718 71.1199 123.333 71.3092 124.102ZM73.5375 131.543L73.6232 121.725L75.5344 121.742L75.4487 131.559L73.5375 131.543ZM74.6016 120.219C74.2692 120.216 73.9847 120.102 73.748 119.879C73.5156 119.651 73.4008 119.381 73.4035 119.07C73.4062 118.755 73.5258 118.487 73.7621 118.268C74.0027 118.044 74.2891 117.934 74.6215 117.937C74.9539 117.94 75.2363 118.055 75.4687 118.283C75.7054 118.506 75.8223 118.776 75.8196 119.091C75.8169 119.402 75.6952 119.67 75.4546 119.894C75.2183 120.113 74.934 120.221 74.6016 120.219ZM82.1022 135.504C81.3224 135.497 80.6522 135.389 80.0915 135.18C79.535 134.97 79.0814 134.696 78.7307 134.356C78.38 134.016 78.119 133.645 77.9478 133.243L79.5964 132.58C79.7098 132.769 79.8615 132.968 80.0514 133.178C80.2456 133.393 80.5082 133.577 80.8392 133.729C81.1746 133.881 81.6064 133.959 82.1348 133.964C82.8592 133.97 83.4595 133.798 83.9355 133.449C84.4116 133.104 84.653 132.547 84.6597 131.78L84.6765 129.85L84.5551 129.849C84.4382 130.057 84.27 130.288 84.0504 130.541C83.8351 130.795 83.5392 131.014 83.1625 131.198C82.7859 131.383 82.2972 131.472 81.6964 131.467C80.9208 131.46 80.2236 131.273 79.6046 130.905C78.9899 130.533 78.5046 129.99 78.1486 129.275C77.7969 128.556 77.6256 127.675 77.6347 126.631C77.6438 125.587 77.8285 124.694 78.1887 123.951C78.5531 123.208 79.0481 122.642 79.6737 122.251C80.2994 121.856 81.0063 121.662 81.7947 121.668C82.404 121.674 82.8953 121.78 83.2685 121.988C83.6417 122.192 83.9316 122.429 84.138 122.699C84.3487 122.969 84.5107 123.207 84.624 123.413L84.7646 123.414L84.7785 121.822L86.6513 121.839L86.5637 131.874C86.5564 132.717 86.3543 133.408 85.9576 133.946C85.5608 134.484 85.0268 134.88 84.3555 135.134C83.6885 135.388 82.9374 135.511 82.1022 135.504ZM82.1321 129.885C82.6818 129.89 83.1473 129.766 83.5288 129.514C83.9146 129.258 84.2076 128.889 84.4078 128.409C84.6123 127.925 84.7175 127.345 84.7235 126.667C84.7292 126.007 84.6363 125.424 84.4447 124.92C84.253 124.415 83.9688 124.021 83.592 123.736C83.2153 123.447 82.7478 123.3 82.1896 123.295C81.6143 123.29 81.1336 123.435 80.7475 123.73C80.3614 124.021 80.0682 124.419 79.8677 124.924C79.6716 125.43 79.5707 125.996 79.5653 126.622C79.5597 127.266 79.6527 127.831 79.8445 128.319C80.0363 128.806 80.3227 129.188 80.7039 129.464C81.0893 129.74 81.5653 129.88 82.1321 129.885ZM91.0908 125.866L91.0399 131.695L89.1287 131.679L89.2144 121.861L91.0489 121.877L91.0349 123.475L91.1564 123.476C91.3868 122.958 91.7441 122.544 92.2283 122.232C92.7169 121.921 93.3297 121.769 94.0669 121.775C94.7359 121.781 95.3206 121.927 95.821 122.213C96.3214 122.494 96.7077 122.911 96.9799 123.463C97.252 124.015 97.3846 124.696 97.3775 125.506L97.323 131.75L95.4119 131.734L95.4644 125.719C95.4706 125.007 95.2901 124.45 94.9229 124.046C94.5557 123.638 94.0482 123.431 93.4005 123.425C92.9573 123.421 92.5623 123.514 92.2155 123.703C91.8729 123.891 91.5999 124.17 91.3964 124.539C91.1972 124.904 91.0953 125.346 91.0908 125.866ZM104.116 132.008C103.149 131.999 102.317 131.785 101.622 131.366C100.931 130.942 100.399 130.352 100.027 129.594C99.6583 128.832 99.4785 127.942 99.4874 126.924C99.4962 125.918 99.6914 125.034 100.073 124.27C100.459 123.506 100.993 122.912 101.674 122.488C102.359 122.063 103.158 121.855 104.07 121.863C104.624 121.868 105.16 121.964 105.678 122.152C106.197 122.339 106.661 122.631 107.071 123.027C107.481 123.422 107.802 123.935 108.035 124.563C108.269 125.187 108.381 125.945 108.373 126.835L108.368 127.513L100.563 127.445L100.576 126.013L106.507 126.065C106.512 125.562 106.413 125.116 106.212 124.726C106.011 124.332 105.726 124.021 105.357 123.792C104.993 123.563 104.563 123.446 104.069 123.442C103.532 123.437 103.062 123.565 102.659 123.826C102.261 124.082 101.951 124.42 101.73 124.84C101.513 125.256 101.403 125.709 101.399 126.199L101.389 127.318C101.383 127.974 101.493 128.533 101.719 128.995C101.95 129.458 102.273 129.812 102.688 130.058C103.104 130.301 103.591 130.424 104.149 130.429C104.511 130.432 104.842 130.384 105.141 130.284C105.44 130.18 105.699 130.025 105.918 129.818C106.137 129.611 106.306 129.355 106.424 129.049L108.23 129.391C108.08 129.922 107.816 130.387 107.438 130.784C107.063 131.177 106.594 131.482 106.03 131.698C105.47 131.911 104.832 132.014 104.116 132.008ZM114.124 132.089C113.331 132.082 112.626 131.873 112.007 131.463C111.393 131.048 110.912 130.463 110.565 129.705C110.222 128.944 110.055 128.032 110.065 126.971C110.074 125.91 110.259 125.004 110.619 124.253C110.983 123.502 111.479 122.929 112.104 122.534C112.73 122.139 113.437 121.945 114.225 121.951C114.834 121.957 115.324 122.063 115.693 122.271C116.066 122.475 116.353 122.711 116.556 122.982C116.762 123.252 116.922 123.49 117.035 123.695L117.15 123.696L117.193 118.832L119.104 118.849L118.99 131.939L117.123 131.923L117.137 130.395L116.977 130.394C116.86 130.602 116.692 130.839 116.472 131.106C116.257 131.372 115.961 131.604 115.584 131.801C115.207 131.998 114.72 132.094 114.124 132.089ZM114.56 130.462C115.11 130.467 115.575 130.326 115.957 130.04C116.343 129.749 116.636 129.345 116.837 128.827C117.042 128.309 117.147 127.704 117.153 127.014C117.159 126.332 117.066 125.735 116.875 125.222C116.683 124.709 116.399 124.308 116.022 124.019C115.646 123.73 115.178 123.583 114.62 123.579C114.045 123.573 113.564 123.718 113.178 124.013C112.792 124.308 112.498 124.713 112.298 125.227C112.102 125.741 112.001 126.321 111.995 126.969C111.989 127.625 112.082 128.216 112.274 128.742C112.465 129.268 112.751 129.686 113.132 129.996C113.517 130.302 113.993 130.458 114.56 130.462ZM126.481 132.005L126.567 122.187L128.478 122.204L128.392 132.021L126.481 132.005ZM127.545 120.681C127.213 120.678 126.928 120.564 126.691 120.341C126.459 120.113 126.344 119.843 126.347 119.532C126.35 119.217 126.469 118.949 126.705 118.73C126.946 118.506 127.232 118.396 127.565 118.399C127.897 118.402 128.18 118.517 128.412 118.745C128.649 118.969 128.766 119.238 128.763 119.553C128.76 119.864 128.639 120.132 128.398 120.356C128.162 120.575 127.877 120.683 127.545 120.681ZM132.925 126.231L132.874 132.061L130.963 132.044L131.049 122.226L132.883 122.242L132.869 123.84L132.991 123.841C133.221 123.323 133.578 122.909 134.063 122.598C134.551 122.286 135.164 122.134 135.901 122.141C136.57 122.146 137.155 122.292 137.655 122.578C138.156 122.859 138.542 123.276 138.814 123.828C139.086 124.38 139.219 125.061 139.212 125.871L139.157 132.115L137.246 132.099L137.299 126.084C137.305 125.372 137.124 124.815 136.757 124.411C136.39 124.003 135.883 123.796 135.235 123.79C134.792 123.787 134.397 123.879 134.05 124.068C133.707 124.256 133.434 124.535 133.231 124.904C133.032 125.269 132.93 125.711 132.925 126.231ZM149.339 132.422C148.717 132.416 148.156 132.296 147.655 132.062C147.154 131.823 146.759 131.481 146.468 131.035C146.183 130.589 146.042 130.045 146.048 129.401C146.053 128.847 146.163 128.392 146.38 128.036C146.596 127.68 146.886 127.399 147.25 127.194C147.614 126.988 148.02 126.834 148.468 126.731C148.917 126.629 149.373 126.552 149.838 126.5C150.427 126.437 150.905 126.386 151.272 126.347C151.638 126.303 151.905 126.231 152.072 126.13C152.24 126.029 152.324 125.864 152.326 125.633L152.327 125.589C152.331 125.031 152.178 124.597 151.865 124.287C151.556 123.978 151.093 123.82 150.475 123.815C149.832 123.809 149.324 123.947 148.95 124.23C148.582 124.508 148.325 124.819 148.182 125.163L146.389 124.738C146.607 124.143 146.923 123.664 147.335 123.301C147.751 122.934 148.229 122.67 148.767 122.509C149.306 122.343 149.871 122.262 150.463 122.268C150.855 122.271 151.27 122.322 151.709 122.419C152.151 122.513 152.563 122.682 152.944 122.929C153.33 123.175 153.644 123.525 153.888 123.979C154.131 124.428 154.249 125.011 154.243 125.727L154.186 132.247L152.32 132.23L152.331 130.888L152.255 130.887C152.129 131.133 151.941 131.375 151.692 131.611C151.443 131.848 151.124 132.043 150.735 132.197C150.346 132.352 149.88 132.426 149.339 132.422ZM149.768 130.891C150.296 130.896 150.749 130.795 151.126 130.59C151.507 130.384 151.797 130.114 151.996 129.779C152.199 129.44 152.302 129.077 152.306 128.689L152.317 127.423C152.248 127.491 152.115 127.554 151.919 127.612C151.727 127.665 151.507 127.712 151.259 127.753C151.012 127.789 150.771 127.823 150.536 127.855C150.301 127.883 150.105 127.907 149.947 127.927C149.576 127.97 149.237 128.046 148.929 128.154C148.625 128.263 148.381 128.42 148.196 128.627C148.015 128.83 147.924 129.102 147.921 129.443C147.916 129.916 148.088 130.276 148.435 130.522C148.783 130.763 149.227 130.886 149.768 130.891ZM163.624 132.329L160.82 122.486L162.795 122.503L164.656 129.73L164.752 129.731L166.745 122.538L168.72 122.555L170.575 129.75L170.671 129.75L172.645 122.589L174.62 122.606L171.652 132.399L169.702 132.382L167.77 125.276L167.623 125.275L165.567 132.346L163.624 132.329ZM179.203 132.682C178.581 132.677 178.02 132.557 177.519 132.322C177.018 132.084 176.623 131.741 176.332 131.296C176.047 130.85 175.906 130.305 175.912 129.662C175.917 129.108 176.027 128.653 176.244 128.297C176.46 127.941 176.75 127.66 177.114 127.454C177.478 127.249 177.884 127.094 178.332 126.992C178.781 126.889 179.237 126.812 179.702 126.761C180.291 126.698 180.769 126.647 181.136 126.607C181.503 126.564 181.77 126.491 181.937 126.39C182.104 126.29 182.188 126.124 182.19 125.894L182.191 125.849C182.195 125.291 182.042 124.857 181.729 124.548C181.421 124.238 180.957 124.081 180.34 124.075C179.696 124.07 179.188 124.208 178.815 124.49C178.446 124.768 178.189 125.079 178.046 125.423L176.253 124.999C176.471 124.404 176.787 123.925 177.199 123.562C177.616 123.195 178.093 122.931 178.631 122.769C179.17 122.603 179.735 122.523 180.327 122.528C180.72 122.532 181.135 122.582 181.573 122.68C182.015 122.773 182.427 122.943 182.808 123.189C183.194 123.435 183.508 123.785 183.752 124.239C183.995 124.689 184.113 125.272 184.107 125.988L184.05 132.507L182.184 132.491L182.196 131.149L182.119 131.148C181.993 131.394 181.806 131.635 181.556 131.872C181.307 132.108 180.988 132.304 180.599 132.458C180.21 132.612 179.744 132.687 179.203 132.682ZM179.632 131.152C180.161 131.156 180.613 131.056 180.99 130.85C181.371 130.645 181.661 130.375 181.86 130.04C182.063 129.701 182.167 129.337 182.17 128.949L182.181 127.684C182.112 127.751 181.98 127.814 181.783 127.872C181.591 127.926 181.371 127.973 181.123 128.013C180.876 128.05 180.635 128.084 180.4 128.116C180.166 128.144 179.969 128.167 179.811 128.187C179.44 128.231 179.101 128.307 178.793 128.415C178.49 128.523 178.245 128.681 178.06 128.888C177.879 129.091 177.788 129.363 177.785 129.704C177.781 130.177 177.952 130.536 178.299 130.782C178.647 131.024 179.091 131.147 179.632 131.152ZM187.42 136.219C187.135 136.216 186.875 136.19 186.641 136.141C186.407 136.097 186.233 136.048 186.118 135.996L186.592 134.434C186.94 134.531 187.251 134.574 187.524 134.564C187.797 134.553 188.039 134.453 188.249 134.263C188.464 134.073 188.654 133.762 188.82 133.329L189.062 132.679L185.556 122.702L187.602 122.72L190.022 130.36L190.124 130.361L192.677 122.764L194.729 122.782L190.586 133.875C190.394 134.384 190.151 134.815 189.858 135.166C189.565 135.521 189.218 135.787 188.816 135.962C188.414 136.138 187.948 136.223 187.42 136.219ZM205.871 122.879L205.858 124.413L200.495 124.366L200.508 122.832L205.871 122.879ZM201.967 120.493L203.878 120.509L203.797 129.797C203.794 130.167 203.847 130.447 203.956 130.635C204.065 130.82 204.207 130.947 204.381 131.016C204.56 131.082 204.753 131.115 204.962 131.117C205.115 131.119 205.25 131.109 205.365 131.089C205.48 131.068 205.57 131.052 205.634 131.04L205.965 132.622C205.854 132.663 205.696 132.705 205.491 132.745C205.286 132.791 205.03 132.814 204.723 132.815C204.22 132.82 203.753 132.726 203.32 132.535C202.887 132.343 202.537 132.051 202.272 131.656C202.007 131.262 201.877 130.768 201.883 130.176L201.967 120.493ZM210.073 126.904L210.022 132.734L208.111 132.717L208.225 119.627L210.11 119.643L210.068 124.514L210.189 124.515C210.424 123.988 210.779 123.572 211.255 123.265C211.731 122.958 212.35 122.808 213.113 122.814C213.786 122.82 214.373 122.964 214.873 123.245C215.378 123.527 215.766 123.943 216.038 124.496C216.315 125.043 216.45 125.726 216.442 126.545L216.388 132.789L214.477 132.773L214.529 126.758C214.536 126.038 214.355 125.478 213.988 125.079C213.621 124.675 213.107 124.47 212.446 124.464C211.995 124.46 211.589 124.553 211.229 124.741C210.874 124.93 210.592 125.209 210.385 125.578C210.181 125.942 210.077 126.385 210.073 126.904ZM221.793 133.054C221.171 133.048 220.61 132.928 220.109 132.694C219.608 132.455 219.213 132.113 218.923 131.667C218.637 131.222 218.497 130.677 218.502 130.034C218.507 129.48 218.618 129.025 218.834 128.669C219.05 128.312 219.34 128.032 219.704 127.826C220.068 127.62 220.474 127.466 220.923 127.364C221.371 127.261 221.828 127.184 222.293 127.133C222.881 127.07 223.359 127.018 223.726 126.979C224.093 126.935 224.36 126.863 224.527 126.762C224.694 126.661 224.778 126.496 224.78 126.266L224.781 126.221C224.786 125.663 224.632 125.229 224.319 124.919C224.011 124.61 223.548 124.452 222.93 124.447C222.286 124.441 221.778 124.58 221.405 124.862C221.036 125.14 220.78 125.451 220.636 125.795L218.843 125.37C219.062 124.775 219.377 124.297 219.789 123.934C220.206 123.567 220.683 123.302 221.222 123.141C221.76 122.975 222.325 122.895 222.918 122.9C223.31 122.903 223.725 122.954 224.163 123.051C224.605 123.145 225.017 123.315 225.398 123.561C225.784 123.807 226.099 124.157 226.342 124.611C226.585 125.061 226.704 125.643 226.697 126.359L226.64 132.879L224.774 132.863L224.786 131.52L224.709 131.52C224.583 131.766 224.396 132.007 224.147 132.243C223.897 132.48 223.578 132.675 223.189 132.83C222.8 132.984 222.335 133.059 221.793 133.054ZM222.222 131.523C222.751 131.528 223.203 131.428 223.58 131.222C223.961 131.017 224.251 130.746 224.45 130.411C224.653 130.072 224.757 129.709 224.76 129.321L224.771 128.056C224.702 128.123 224.57 128.186 224.373 128.244C224.181 128.298 223.961 128.345 223.714 128.385C223.466 128.421 223.225 128.455 222.99 128.487C222.756 128.515 222.559 128.539 222.402 128.559C222.03 128.603 221.691 128.679 221.383 128.787C221.08 128.895 220.835 129.052 220.65 129.26C220.47 129.463 220.378 129.735 220.375 130.075C220.371 130.548 220.542 130.908 220.89 131.154C221.237 131.396 221.681 131.519 222.222 131.523ZM233.855 123.123L233.841 124.657L228.478 124.61L228.492 123.076L233.855 123.123ZM229.95 120.737L231.862 120.753L231.781 130.041C231.777 130.412 231.83 130.691 231.939 130.88C232.049 131.064 232.19 131.191 232.364 131.26C232.543 131.326 232.736 131.36 232.945 131.361C233.099 131.363 233.233 131.353 233.348 131.333C233.463 131.313 233.553 131.296 233.617 131.284L233.948 132.866C233.837 132.908 233.679 132.949 233.474 132.99C233.269 133.035 233.014 133.058 232.707 133.06C232.204 133.064 231.736 132.97 231.303 132.779C230.87 132.588 230.521 132.295 230.256 131.9C229.991 131.506 229.861 131.013 229.866 130.42L229.95 120.737ZM244.78 133.235C243.83 133.227 243.014 133.005 242.331 132.568C241.653 132.128 241.134 131.524 240.775 130.759C240.415 129.993 240.239 129.117 240.248 128.133C240.257 127.136 240.452 126.258 240.833 125.498C241.215 124.734 241.749 124.14 242.434 123.716C243.12 123.291 243.925 123.083 244.85 123.091C245.595 123.098 246.259 123.242 246.84 123.524C247.422 123.802 247.889 124.19 248.243 124.687C248.601 125.185 248.811 125.764 248.873 126.425L247.013 126.409C246.915 125.948 246.684 125.549 246.32 125.214C245.961 124.878 245.477 124.708 244.867 124.702C244.335 124.698 243.867 124.834 243.464 125.112C243.065 125.386 242.753 125.779 242.527 126.293C242.301 126.802 242.185 127.406 242.179 128.105C242.172 128.821 242.276 129.44 242.488 129.962C242.701 130.483 243.004 130.889 243.398 131.178C243.796 131.467 244.266 131.614 244.807 131.618C245.169 131.621 245.498 131.558 245.793 131.429C246.093 131.295 246.344 131.103 246.546 130.854C246.753 130.604 246.898 130.303 246.982 129.95L248.842 129.966C248.769 130.6 248.557 131.165 248.207 131.661C247.858 132.156 247.392 132.544 246.81 132.825C246.232 133.105 245.556 133.242 244.78 133.235ZM253.714 133.332C253.092 133.327 252.531 133.207 252.03 132.973C251.529 132.734 251.133 132.392 250.843 131.946C250.557 131.5 250.417 130.956 250.423 130.312C250.428 129.758 250.538 129.303 250.754 128.947C250.971 128.591 251.261 128.31 251.625 128.105C251.989 127.899 252.395 127.745 252.843 127.642C253.292 127.539 253.748 127.463 254.213 127.411C254.802 127.348 255.28 127.297 255.646 127.257C256.013 127.214 256.28 127.142 256.447 127.041C256.615 126.94 256.699 126.774 256.701 126.544L256.701 126.5C256.706 125.941 256.552 125.507 256.24 125.198C255.931 124.888 255.468 124.731 254.85 124.726C254.207 124.72 253.699 124.858 253.325 125.141C252.956 125.419 252.7 125.73 252.557 126.074L250.764 125.649C250.982 125.054 251.298 124.575 251.71 124.212C252.126 123.845 252.604 123.581 253.142 123.419C253.681 123.254 254.246 123.173 254.838 123.179C255.23 123.182 255.645 123.232 256.083 123.33C256.526 123.423 256.938 123.593 257.319 123.839C257.705 124.086 258.019 124.436 258.262 124.89C258.506 125.339 258.624 125.922 258.618 126.638L258.561 133.157L256.695 133.141L256.706 131.799L256.63 131.798C256.504 132.044 256.316 132.286 256.067 132.522C255.818 132.758 255.499 132.954 255.11 133.108C254.72 133.262 254.255 133.337 253.714 133.332ZM254.143 131.802C254.671 131.807 255.124 131.706 255.501 131.501C255.882 131.295 256.172 131.025 256.371 130.69C256.574 130.351 256.677 129.987 256.681 129.6L256.692 128.334C256.623 128.402 256.49 128.464 256.294 128.522C256.102 128.576 255.882 128.623 255.634 128.664C255.387 128.7 255.146 128.734 254.911 128.766C254.676 128.794 254.48 128.818 254.322 128.838C253.951 128.881 253.612 128.957 253.304 129.065C253 129.173 252.756 129.331 252.571 129.538C252.39 129.741 252.298 130.013 252.295 130.354C252.291 130.827 252.463 131.187 252.81 131.432C253.158 131.674 253.602 131.797 254.143 131.802ZM263.069 127.367L263.018 133.196L261.107 133.18L261.192 123.362L263.027 123.378L263.013 124.976L263.134 124.977C263.365 124.459 263.722 124.044 264.206 123.733C264.695 123.422 265.308 123.27 266.045 123.276C266.714 123.282 267.298 123.428 267.799 123.714C268.299 123.995 268.685 124.412 268.958 124.964C269.23 125.516 269.362 126.197 269.355 127.006L269.301 133.251L267.39 133.234L267.442 127.22C267.448 126.508 267.268 125.95 266.901 125.547C266.533 125.139 266.026 124.932 265.378 124.926C264.935 124.922 264.54 125.015 264.193 125.203C263.851 125.392 263.578 125.671 263.374 126.04C263.175 126.405 263.073 126.847 263.069 127.367ZM46.0504 158.502C45.0831 158.494 44.2518 158.28 43.5566 157.86C42.8656 157.437 42.3338 156.846 41.9612 156.088C41.5928 155.327 41.4131 154.437 41.422 153.418C41.4307 152.413 41.626 151.528 42.0076 150.764C42.3936 150 42.9272 149.406 43.6085 148.982C44.294 148.557 45.0928 148.349 46.0046 148.357C46.5586 148.362 47.0947 148.458 47.613 148.646C48.1313 148.834 48.5953 149.125 49.0053 149.521C49.4152 149.917 49.7367 150.429 49.9699 151.057C50.2031 151.681 50.3158 152.439 50.308 153.329L50.3021 154.007L42.4977 153.939L42.5102 152.507L48.4418 152.559C48.4462 152.056 48.3478 151.61 48.1466 151.22C47.9455 150.827 47.6606 150.515 47.2918 150.286C46.9274 150.057 46.498 149.94 46.0037 149.936C45.4667 149.931 44.9969 150.059 44.594 150.32C44.1954 150.576 43.8857 150.915 43.6647 151.335C43.448 151.75 43.3375 152.203 43.3332 152.693L43.3234 153.812C43.3177 154.468 43.4279 155.027 43.654 155.49C43.8843 155.952 44.2072 156.306 44.6227 156.553C45.0382 156.795 45.5251 156.919 46.0833 156.923C46.4455 156.927 46.7762 156.878 47.0754 156.779C47.3746 156.675 47.6338 156.519 47.8529 156.312C48.0721 156.106 48.2405 155.849 48.3582 155.543L50.1643 155.885C50.0147 156.417 49.7507 156.881 49.3722 157.278C48.9981 157.671 48.5288 157.976 47.9643 158.193C47.4042 158.405 46.7662 158.508 46.0504 158.502ZM60.588 148.612L56.9421 158.399L54.8967 158.381L51.4158 148.532L53.4676 148.55L55.888 156.127L55.9903 156.128L58.5363 148.594L60.588 148.612ZM66.0982 158.677C65.1778 158.669 64.3764 158.451 63.6941 158.023C63.0117 157.595 62.4842 157.001 62.1116 156.239C61.7389 155.477 61.557 154.589 61.5659 153.575C61.5748 152.556 61.7722 151.667 62.1581 150.908C62.544 150.149 63.0818 149.561 63.7715 149.145C64.4613 148.729 65.2663 148.525 66.1868 148.533C67.1072 148.541 67.9086 148.759 68.5909 149.187C69.2733 149.615 69.8008 150.212 70.1734 150.978C70.546 151.744 70.7278 152.636 70.7189 153.655C70.7101 154.669 70.5127 155.553 70.1269 156.309C69.741 157.064 69.2032 157.649 68.5135 158.065C67.8237 158.481 67.0187 158.685 66.0982 158.677ZM66.1186 157.073C66.7152 157.078 67.2109 156.925 67.6057 156.613C68.0004 156.301 68.2939 155.884 68.4859 155.361C68.6823 154.839 68.7832 154.262 68.7887 153.631C68.7941 153.005 68.7033 152.429 68.5161 151.903C68.3332 151.373 68.0472 150.947 67.6579 150.624C67.2687 150.301 66.7758 150.136 66.1792 150.131C65.5784 150.126 65.0784 150.281 64.6793 150.598C64.2845 150.914 63.9889 151.335 63.7926 151.862C63.6005 152.384 63.5017 152.959 63.4963 153.585C63.4908 154.216 63.5795 154.794 63.7624 155.32C63.9496 155.846 64.2378 156.268 64.6271 156.587C65.0206 156.905 65.5178 157.067 66.1186 157.073ZM74.8351 145.464L74.7209 158.554L72.8098 158.537L72.924 145.447L74.8351 145.464ZM85.7765 148.832L82.1306 158.619L80.0852 158.601L76.6043 148.752L78.6561 148.77L81.0765 156.347L81.1788 156.348L83.7248 148.814L85.7765 148.832ZM91.3826 158.898C90.4153 158.889 89.5841 158.675 88.8888 158.256C88.1979 157.832 87.6661 157.242 87.2934 156.484C86.9251 155.722 86.7453 154.832 86.7542 153.814C86.763 152.808 86.9582 151.923 87.3399 151.16C87.7258 150.396 88.2594 149.802 88.9407 149.377C89.6263 148.953 90.425 148.745 91.3369 148.753C91.8909 148.758 92.427 148.854 92.9452 149.042C93.4635 149.229 93.9276 149.521 94.3375 149.917C94.7474 150.312 95.069 150.824 95.3021 151.453C95.5353 152.077 95.648 152.835 95.6403 153.725L95.6344 154.403L87.83 154.335L87.8425 152.903L93.7741 152.955C93.7784 152.452 93.6801 152.006 93.4789 151.616C93.2778 151.222 92.9929 150.911 92.6241 150.682C92.2596 150.453 91.8302 150.336 91.3359 150.332C90.799 150.327 90.3291 150.455 89.9263 150.716C89.5277 150.972 89.2179 151.31 88.9969 151.73C88.7802 152.146 88.6697 152.599 88.6654 153.089L88.6557 154.207C88.65 154.864 88.7601 155.423 88.9862 155.885C89.2166 156.347 89.5395 156.702 89.955 156.948C90.3705 157.191 90.8573 157.314 91.4156 157.319C91.7778 157.322 92.1085 157.274 92.4076 157.174C92.7068 157.07 92.966 156.915 93.1852 156.708C93.4043 156.501 93.5727 156.245 93.6905 155.939L95.4965 156.281C95.347 156.812 95.083 157.276 94.7045 157.674C94.3303 158.067 93.861 158.372 93.2966 158.588C92.7365 158.801 92.0985 158.904 91.3826 158.898Z" fill="#84793F"/>
<g filter="url(#filter0_f_15_44)">
<rect x="20.224" y="198.478" width="330" height="10" transform="rotate(-2.5 20.224 198.478)" fill="black" fill-opacity="0.1"/>
</g>
<g filter="url(#filter1_f_15_44)">
<rect x="20.2785" y="188.08" width="330" height="10" transform="rotate(0.5 20.2785 188.08)" fill="black" fill-opacity="0.1"/>
</g>
<rect x="10.476" y="164.994" width="350" height="30" transform="rotate(0.5 10.476 164.994)" fill="#FFF6C8"/>
<defs>
<filter id="filter0_f_15_44" x="10.224" y="174.084" width="350.122" height="44.3849" filterUnits="userSpaceOnUse" color-interpolation-filters="sRGB">
<feFlood flood-opacity="0" result="BackgroundImageFix"/>
<feBlend mode="normal" in="SourceGraphic" in2="BackgroundImageFix" result="shape"/>
<feGaussianBlur stdDeviation="5" result="effect1_foregroundBlur_15_44"/>
</filter>
<filter id="filter1_f_15_44" x="0.191208" y="168.08" width="370.075" height="52.8794" filterUnits="userSpaceOnUse" color-interpolation-filters="sRGB">
<feFlood flood-opacity="0" result="BackgroundImageFix"/>
<feBlend mode="normal" in="SourceGraphic" in2="BackgroundImageFix" result="shape"/>
<feGaussianBlur stdDeviation="10" result="effect1_foregroundBlur_15_44"/>
</filter>
</defs>
</svg>
